VelekaWorld-SemiBoldItalic.ufo
<glyph name="numbersign" format="2">
  <advance width="742"/>
  <unicode hex="0023"/>
  <outline>
    <contour>
      <point x="684.667" y="416.333" type="line" name="n00"/>
      <point x="531" y="416.333" type="line"/>
      <point x="486.333" y="280.667" type="line"/>
      <point x="643.333" y="280.667" type="line" name="n03"/>
      <point x="643.333" y="222" type="line" name="n04"/>
      <point x="466" y="222" type="line"/>
      <point x="387" y="-23.6667" type="line"/>
      <point x="324.333" y="-7" type="line"/>
      <point x="400" y="222" type="line"/>
      <point x="268.333" y="222" type="line"/>
      <point x="188" y="-23.6667" type="line"/>
      <point x="126.667" y="-6" type="line"/>
      <point x="203.333" y="222" type="line"/>
      <point x="66.6667" y="222" type="line"/>
      <point x="66.6667" y="280.667" type="line"/>
      <point x="222" y="280.667" type="line"/>
      <point x="267" y="416.333" type="line"/>
      <point x="114.667" y="416.333" type="line"/>
      <point x="114.667" y="477.333" type="line"/>
      <point x="286.667" y="477.333" type="line"/>
      <point x="364.667" y="709.333" type="line"/>
      <point x="426.333" y="692" type="line"/>
      <point x="351.667" y="477.333" type="line"/>
      <point x="487" y="477.333" type="line"/>
      <point x="562.667" y="709.333" type="line"/>
      <point x="626" y="691.333" type="line"/>
      <point x="550.667" y="477.333" type="line"/>
      <point x="684.667" y="477.333" type="line" name="n27"/>
    </contour>
    <contour>
      <point x="465.667" y="416.333" type="line"/>
      <point x="333.333" y="416.333" type="line"/>
      <point x="288" y="280.667" type="line"/>
      <point x="419" y="280.667" type="line"/>
    </contour>
  </outline>
</glyph>
<glyph name="dollar" format="2">
  <advance width="584"/>
  <unicode hex="0024"/>
  <outline>
    <contour>
      <point x="564.333" y="640" type="curve"/>
      <point x="531.667" y="479" type="line"/>
      <point x="466" y="479" type="line"/>
      <point x="469" y="581.667" type="line"/>
      <point x="469.667" y="588.333"/>
      <point x="464.667" y="592.667"/>
      <point x="460" y="594.667" type="curve"/>
      <point x="445.667" y="601.333"/>
      <point x="406" y="611.333"/>
      <point x="387.333" y="612.333" type="curve"/>
      <point x="344.333" y="392.333" type="line"/>
      <point x="415.333" y="370.667"/>
      <point x="534.333" y="327.667"/>
      <point x="515.667" y="206" type="curve" name="n13"/>
      <point x="501" y="78.3333"/>
      <point x="376.667" y="14.6667"/>
      <point x="267.667" y="1" type="curve"/>
      <point x="248" y="-102" type="line" name="n17"/>
      <point x="189" y="-102" type="line"/>
      <point x="208.667" y="0" type="line" name="n19"/>
      <point x="185" y="1.33333"/>
      <point x="89.6667" y="9.33333"/>
      <point x="18.6667" y="36.6667" type="curve"/>
      <point x="52" y="204.333" type="line"/>
      <point x="122.333" y="204.333" type="line"/>
      <point x="117.333" y="94" type="line"/>
      <point x="117.333" y="84.3333"/>
      <point x="118" y="85.3333"/>
      <point x="125" y="81.6667" type="curve" smooth="yes"/>
      <point x="152" y="67"/>
      <point x="206.667" y="59.3333"/>
      <point x="220.333" y="58.3333" type="curve" name="n31"/>
      <point x="265.333" y="290" type="line"/>
      <point x="190.667" y="316.667"/>
      <point x="92" y="359"/>
      <point x="110" y="475" type="curve" smooth="yes" name="n35"/>
      <point x="134" y="635"/>
      <point x="302" y="664.333"/>
      <point x="340" y="668" type="curve"/>
      <point x="354.667" y="742.333" type="line" name="n39"/>
      <point x="413" y="742.333" type="line"/>
      <point x="399" y="669" type="line"/>
      <point x="475.333" y="668.333"/>
      <point x="559" y="641.667"/>
    </contour>
    <contour>
      <point x="328" y="609" type="line"/>
      <point x="306.667" y="602.667"/>
      <point x="244" y="585"/>
      <point x="232.667" y="508" type="curve" smooth="yes" name="n47"/>
      <point x="222" y="439"/>
      <point x="275.667" y="417.667"/>
      <point x="289.333" y="410.667" type="curve"/>
    </contour>
    <contour>
      <point x="391.333" y="173" type="curve" smooth="yes" name="n51"/>
      <point x="400" y="231.333"/>
      <point x="359.333" y="258"/>
      <point x="321.667" y="271.667" type="curve"/>
      <point x="280.333" y="61.6667" type="line"/>
      <point x="305" y="67.6667"/>
      <point x="378.667" y="87.6667"/>
    </contour>
  </outline>
</glyph>
<glyph name="ampersand" format="2">
  <advance width="731"/>
  <unicode hex="0026"/>
  <outline>
    <contour>
      <point x="699.667" y="314" type="line"/>
      <point x="626.333" y="306" type="line"/>
      <point x="598.333" y="248.333"/>
      <point x="554" y="183.667"/>
      <point x="503.667" y="131" type="curve"/>
      <point x="551" y="68.3333"/>
      <point x="588.333" y="51.3333"/>
      <point x="665.333" y="51" type="curve" name="n07"/>
      <point x="665.333" y="1.66667" type="line"/>
      <point x="622.667" y="0"/>
      <point x="600.001" y="-2.01663"/>
      <point x="581" y="-3" type="curve" smooth="yes" name="n11"/>
      <point x="557.334" y="-4.6833"/>
      <point x="533.333" y="-4"/>
      <point x="510.667" y="0" type="curve" smooth="yes"/>
      <point x="477.667" y="6.66667"/>
      <point x="451.333" y="22.3333"/>
      <point x="420" y="57.6667" type="curve" name="hr01"/>
      <point x="365.667" y="19.6667"/>
      <point x="299.333" y="-11"/>
      <point x="204.333" y="-11" type="curve" smooth="yes" name="n20"/>
      <point x="87.6667" y="-11"/>
      <point x="12" y="55.6667"/>
      <point x="12" y="156.333" type="curve" smooth="yes" name="n23"/>
      <point x="12" y="254.667"/>
      <point x="88.3333" y="319"/>
      <point x="183.333" y="367.667" type="curve"/>
      <point x="153.333" y="409"/>
      <point x="130" y="448.333" name="hr02"/>
      <point x="130" y="495.667" type="curve" smooth="yes" name="n29"/>
      <point x="130" y="600.333"/>
      <point x="222.667" y="684"/>
      <point x="366.333" y="684" type="curve" smooth="yes" name="n32"/>
      <point x="478.667" y="684"/>
      <point x="532.667" y="617.333"/>
      <point x="532.667" y="550" type="curve" smooth="yes" name="n35"/>
      <point x="532.667" y="455.333"/>
      <point x="450" y="398.333"/>
      <point x="331" y="357.667" type="curve"/>
      <point x="458" y="192.333" type="line"/>
      <point x="485.333" y="225.667"/>
      <point x="507" y="265"/>
      <point x="521" y="293.667" type="curve"/>
      <point x="522" y="296"/>
      <point x="517.333" y="304.333"/>
      <point x="516.333" y="304.333" type="curve"/>
      <point x="460" y="314" type="line"/>
      <point x="460" y="365.333" type="line"/>
      <point x="699.667" y="365.333" type="line"/>
    </contour>
    <contour>
      <point x="408" y="541.667" type="curve" smooth="yes" name="n49"/>
      <point x="408" y="586"/>
      <point x="393.333" y="628.333"/>
      <point x="346.333" y="628.333" type="curve" smooth="yes" name="n52"/>
      <point x="315" y="628.333"/>
      <point x="247.333" y="598.333"/>
      <point x="247.333" y="522" type="curve" smooth="yes" name="n55"/>
      <point x="247.333" y="478.667"/>
      <point x="270.667" y="434.333"/>
      <point x="296" y="401.667" type="curve"/>
      <point x="362.667" y="431.333"/>
      <point x="408" y="472.333"/>
    </contour>
    <contour>
      <point x="376.333" y="109.667" type="curve"/>
      <point x="221" y="315.333" type="line"/>
      <point x="174" y="281"/>
      <point x="145.333" y="239"/>
      <point x="145.333" y="185.333" type="curve" smooth="yes" name="n65"/>
      <point x="145.333" y="104"/>
      <point x="207" y="58.6667"/>
      <point x="255.333" y="58.6667" type="curve" smooth="yes" name="n68"/>
      <point x="299" y="58.6667"/>
      <point x="327.667" y="74.3333"/>
    </contour>
  </outline>
</glyph>
<glyph name="plus" format="2">
  <advance width="1000"/>
  <unicode hex="002B"/>
  <outline>
    <contour>
      <point x="800" y="269" type="line" name="n00"/>
      <point x="531" y="269" type="line"/>
      <point x="531" y="0" type="line" name="n02"/>
      <point x="469" y="0" type="line" name="n03"/>
      <point x="469" y="269" type="line"/>
      <point x="200" y="269" type="line"/>
      <point x="200" y="331" type="line"/>
      <point x="469" y="331" type="line"/>
      <point x="469" y="600" type="line" name="n08"/>
      <point x="531" y="600" type="line"/>
      <point x="531" y="331" type="line"/>
      <point x="800" y="331" type="line" name="n11"/>
    </contour>
  </outline>
</glyph>
<glyph name="one" format="2">
  <advance width="584"/>
  <unicode hex="0031"/>
  <outline>
    <contour>
      <point x="451.667" y="687" type="line" name="n00"/>
      <point x="332" y="74.6667" type="line"/>
      <point x="329.959" y="65.6744"/>
      <point x="337.667" y="59.6667"/>
      <point x="351" y="58.6667" type="curve" smooth="yes"/>
      <point x="426" y="52.3333" type="line"/>
      <point x="426" y="0" type="line"/>
      <point x="84" y="0" type="line"/>
      <point x="84" y="53" type="line"/>
      <point x="186.333" y="58.6667" type="line" smooth="yes"/>
      <point x="195.333" y="59"/>
      <point x="202.667" y="66.6667"/>
      <point x="204" y="74.6667" type="curve"/>
      <point x="304.667" y="587" type="line"/>
      <point x="149" y="566.333" type="line"/>
      <point x="149" y="618.667" type="line"/>
      <point x="394" y="687" type="line"/>
    </contour>
  </outline>
</glyph>
<glyph name="six" format="2">
  <advance width="584"/>
  <unicode hex="0036"/>
  <outline>
    <contour>
      <point x="547" y="271.667" type="curve" smooth="yes" name="n00"/>
      <point x="547" y="120.667"/>
      <point x="430" y="-16"/>
      <point x="260" y="-16" type="curve" smooth="yes" name="n03"/>
      <point x="149.333" y="-16"/>
      <point x="34" y="35.3333"/>
      <point x="34" y="216.333" type="curve" smooth="yes" name="n06"/>
      <point x="34" y="457"/>
      <point x="215" y="684.667"/>
      <point x="534" y="718.333" type="curve"/>
      <point x="535" y="656.667" type="line"/>
      <point x="372" y="639"/>
      <point x="252.667" y="543.333"/>
      <point x="209.667" y="420.333" type="curve"/>
      <point x="249.667" y="441.667"/>
      <point x="296" y="454.667"/>
      <point x="350" y="454.667" type="curve" smooth="yes" name="n16"/>
      <point x="474.333" y="454.667"/>
      <point x="547" y="381.333"/>
    </contour>
    <contour>
      <point x="413" y="246.333" type="curve" smooth="yes" name="n19"/>
      <point x="413" y="335.333"/>
      <point x="372" y="384"/>
      <point x="307" y="384" type="curve" smooth="yes" name="n22"/>
      <point x="279.667" y="384"/>
      <point x="241.667" y="375.333"/>
      <point x="188" y="335.333" type="curve"/>
      <point x="184.333" y="321.667"/>
      <point x="168" y="252"/>
      <point x="168" y="205.333" type="curve" smooth="yes" name="n28"/>
      <point x="168" y="139.333"/>
      <point x="175" y="40.6667"/>
      <point x="265" y="40.6667" type="curve" smooth="yes" name="n31"/>
      <point x="331" y="40.6667"/>
      <point x="413" y="131.667"/>
    </contour>
  </outline>
</glyph>
<glyph name="seven" format="2">
  <advance width="584"/>
  <unicode hex="0037"/>
  <outline>
    <contour>
      <point x="632.667" y="671" type="line"/>
      <point x="624" y="624.667" type="line"/>
      <point x="169" y="-10.6667" type="line"/>
      <point x="162.333" y="-37" type="line" name="n03"/>
      <point x="33.3333" y="-37" type="line"/>
      <point x="479" y="584" type="line"/>
      <point x="200.667" y="584" type="line" name="n06"/>
      <point x="168.667" y="494.667" type="line" name="n07"/>
      <point x="93.3333" y="494.667" type="line"/>
      <point x="128.667" y="671" type="line" name="n09"/>
    </contour>
  </outline>
</glyph>
<glyph name="D" format="2">
  <advance width="698"/>
  <unicode hex="0044"/>
  <outline>
    <contour>
      <point x="681" y="414.333" type="curve" smooth="yes" name="n00"/>
      <point x="681" y="173.667"/>
      <point x="507.333" y="0"/>
      <point x="234" y="0" type="curve" smooth="yes" name="n03"/>
      <point x="-15" y="0" type="line"/>
      <point x="-15" y="47.3333" type="line"/>
      <point x="9.34174" y="49.7372"/>
      <point x="45.6667" y="51.6667"/>
      <point x="45.6667" y="51.6667" type="curve"/>
      <point x="60.6667" y="52.6667"/>
      <point x="64" y="56"/>
      <point x="67" y="69.3333" type="curve"/>
      <point x="171" y="602" type="line" smooth="yes"/>
      <point x="173" y="613.667"/>
      <point x="166.333" y="617.667"/>
      <point x="152.333" y="618.667" type="curve"/>
      <point x="152.333" y="618.667"/>
      <point x="118.181" y="621.264"/>
      <point x="95" y="623.667" type="curve"/>
      <point x="95" y="671" type="line"/>
      <point x="348" y="671" type="line" smooth="yes" name="n20"/>
      <point x="546.667" y="671"/>
      <point x="681" y="600.333"/>
    </contour>
    <contour>
      <point x="545" y="423.333" type="curve" smooth="yes" name="n23"/>
      <point x="545" y="589"/>
      <point x="433.667" y="611"/>
      <point x="323.667" y="614.333" type="curve" name="n26"/>
      <point x="302.333" y="614.333" type="line"/>
      <point x="193.667" y="58.6667" type="line"/>
      <point x="252" y="58.6667" type="line" name="n29"/>
      <point x="436.667" y="60.6667"/>
      <point x="545" y="232.667"/>
    </contour>
  </outline>
</glyph>
<glyph name="Q" format="2">
  <advance width="737"/>
  <unicode hex="0051"/>
  <outline>
    <contour>
      <point x="750" y="-109" type="line"/>
      <point x="733" y="-117.667"/>
      <point x="640.333" y="-160"/>
      <point x="567" y="-160" type="curve" smooth="yes" name="n03"/>
      <point x="450" y="-160"/>
      <point x="404.667" y="-93.3333"/>
      <point x="369" y="-14.6667" type="curve"/>
      <point x="358" y="-15.6667"/>
      <point x="344.333" y="-17.3333"/>
      <point x="331" y="-17.3333" type="curve" smooth="yes" name="n09"/>
      <point x="166.667" y="-17.3333"/>
      <point x="46" y="87.3333"/>
      <point x="46" y="259" type="curve" smooth="yes" name="n12"/>
      <point x="46" y="461.333"/>
      <point x="195" y="687"/>
      <point x="435" y="687" type="curve" smooth="yes" name="n15"/>
      <point x="616" y="687"/>
      <point x="718" y="566.333"/>
      <point x="718" y="416.667" type="curve" smooth="yes" name="n18"/>
      <point x="718" y="310"/>
      <point x="684.667" y="127.333"/>
      <point x="499" y="21.3333" type="curve"/>
      <point x="537.667" y="-48.6667"/>
      <point x="557" y="-95.3333"/>
      <point x="621" y="-95.3333" type="curve" smooth="yes" name="n24"/>
      <point x="657.333" y="-95.3333"/>
      <point x="695.667" y="-77.6667"/>
      <point x="750" y="-53" type="curve"/>
    </contour>
    <contour>
      <point x="577" y="416.667" type="curve" smooth="yes" name="n28"/>
      <point x="577" y="544.667"/>
      <point x="508" y="629.333"/>
      <point x="430" y="629.333" type="curve" smooth="yes" name="n31"/>
      <point x="299.667" y="629.333"/>
      <point x="186" y="442.333"/>
      <point x="186" y="254" type="curve" smooth="yes" name="n34"/>
      <point x="186" y="127"/>
      <point x="254" y="41.6667"/>
      <point x="340" y="41.6667" type="curve" smooth="yes" name="n37"/>
      <point x="465" y="41.6667"/>
      <point x="577" y="240.667"/>
    </contour>
  </outline>
</glyph>
<glyph name="S" format="2">
  <advance width="548"/>
  <unicode hex="0053"/>
  <outline>
    <contour>
      <point x="541.667" y="648.333" type="curve"/>
      <point x="508.333" y="493.333" type="line"/>
      <point x="438" y="493.333" type="line"/>
      <point x="442" y="596.333" type="line"/>
      <point x="434.169" y="611.846"/>
      <point x="382.517" y="631.333"/>
      <point x="345.904" y="631.333" type="curve" smooth="yes" name="n06"/>
      <point x="281.764" y="631.333"/>
      <point x="216.083" y="571.724"/>
      <point x="216" y="509.354" type="curve" smooth="yes" name="n09"/>
      <point x="215.931" y="457.872"/>
      <point x="260.555" y="412.213"/>
      <point x="351.218" y="371.482" type="curve" smooth="yes"/>
      <point x="451.405" y="326.5"/>
      <point x="495" y="275.723"/>
      <point x="495" y="200.906" type="curve" smooth="yes" name="n15"/>
      <point x="495" y="76.0891"/>
      <point x="373.606" y="-16"/>
      <point x="206.334" y="-16" type="curve" smooth="yes" name="n18"/>
      <point x="135.597" y="-16"/>
      <point x="41.3472" y="8.569"/>
      <point x="-5" y="38.6667" type="curve"/>
      <point x="29.6667" y="201.667" type="line"/>
      <point x="109.372" y="201.667" type="line"/>
      <point x="98.1983" y="84" type="line"/>
      <point x="106.475" y="69.4373"/>
      <point x="186.373" y="42.6667"/>
      <point x="225.179" y="42.6667" type="curve" smooth="yes" name="n27"/>
      <point x="299.132" y="42.6667"/>
      <point x="362.879" y="106.447"/>
      <point x="363" y="184" type="curve" smooth="yes" name="n30"/>
      <point x="363.1" y="240.253"/>
      <point x="289.106" y="281.636"/>
      <point x="227.452" y="309.667" type="curve" smooth="yes"/>
      <point x="126.788" y="355.911"/>
      <point x="84" y="403.212"/>
      <point x="84" y="466.667" type="curve" smooth="yes" name="n36"/>
      <point x="84" y="598.134"/>
      <point x="195.73" y="687"/>
      <point x="357.602" y="687" type="curve" smooth="yes" name="n39"/>
      <point x="421.808" y="687"/>
      <point x="487.332" y="672.957"/>
    </contour>
  </outline>
</glyph>
<glyph name="U" format="2">
  <advance width="735"/>
  <unicode hex="0055"/>
  <anchor x="453.333" y="716.667" name="top"/>
  <outline>
    <contour>
      <point x="777" y="624" type="line"/>
      <point x="713.667" y="619" type="line" smooth="yes"/>
      <point x="703.738" y="618.202"/>
      <point x="697.1" y="612.219"/>
      <point x="695" y="601.667" type="curve" smooth="yes"/>
      <point x="618" y="215" type="line" smooth="yes"/>
      <point x="587.616" y="62.4333"/>
      <point x="487.747" y="-16"/>
      <point x="321.66" y="-16" type="curve" smooth="yes" name="n08"/>
      <point x="173.547" y="-16"/>
      <point x="92" y="45.2213"/>
      <point x="92" y="157.09" type="curve" smooth="yes" name="n11"/>
      <point x="92" y="184.091"/>
      <point x="96.6316" y="224.677"/>
      <point x="105" y="265" type="curve" smooth="yes"/>
      <point x="175" y="602.333" type="line"/>
      <point x="174.911" y="613.194"/>
      <point x="169.413" y="617.713"/>
      <point x="155" y="619" type="curve" smooth="yes" name="n18"/>
      <point x="99" y="624" type="line"/>
      <point x="99" y="671.333" type="line" name="n20"/>
      <point x="387" y="671.333" type="line"/>
      <point x="387" y="624" type="line"/>
      <point x="326" y="619" type="line" smooth="yes"/>
      <point x="312.684" y="617.908"/>
      <point x="306.284" y="612.812"/>
      <point x="304" y="601.667" type="curve" smooth="yes"/>
      <point x="235" y="265" type="line" smooth="yes"/>
      <point x="228.115" y="231.405"/>
      <point x="224" y="197.864"/>
      <point x="224" y="175.332" type="curve" smooth="yes" name="n30"/>
      <point x="224" y="100.941"/>
      <point x="272.768" y="56"/>
      <point x="352.803" y="56" type="curve" smooth="yes" name="n33"/>
      <point x="446.979" y="56"/>
      <point x="502.709" y="117.648"/>
      <point x="529" y="250" type="curve" smooth="yes"/>
      <point x="599" y="602.333" type="line"/>
      <point x="598.529" y="613.738"/>
      <point x="593.899" y="617.744"/>
      <point x="579.667" y="619" type="curve" smooth="yes"/>
      <point x="523" y="624" type="line"/>
      <point x="523" y="671.333" type="line"/>
      <point x="777" y="671.333" type="line"/>
    </contour>
  </outline>
</glyph>
<glyph name="b" format="2">
  <advance width="519"/>
  <unicode hex="0062"/>
  <outline>
    <contour>
      <point x="487.333" y="299.485" type="curve" smooth="yes" name="n00"/>
      <point x="487.333" y="129.317"/>
      <point x="355.437" y="-12"/>
      <point x="186.175" y="-12" type="curve" smooth="yes" name="n03"/>
      <point x="127.574" y="-12"/>
      <point x="67.3609" y="4.90491"/>
      <point x="18" y="36.6667" type="curve"/>
      <point x="135.333" y="663.333" type="line"/>
      <point x="47" y="671.667" type="line"/>
      <point x="47" y="705.667" type="line"/>
      <point x="211.667" y="737" type="line" name="n10"/>
      <point x="270" y="737" type="line"/>
      <point x="216.333" y="456.667" type="line"/>
      <point x="256.093" y="482.895"/>
      <point x="300.331" y="498"/>
      <point x="337.246" y="498" type="curve" smooth="yes" name="n15"/>
      <point x="424.529" y="498"/>
      <point x="487.333" y="416.68"/>
    </contour>
    <contour>
      <point x="361.667" y="303.689" type="curve" smooth="yes" name="n18"/>
      <point x="361.667" y="377.183"/>
      <point x="335.068" y="425.333"/>
      <point x="297.529" y="425.333" type="curve" smooth="yes" name="n21"/>
      <point x="273.905" y="425.333"/>
      <point x="233.103" y="405.051"/>
      <point x="201.333" y="377.667" type="curve"/>
      <point x="145.333" y="77.3333" type="line"/>
      <point x="159.876" y="55.2792"/>
      <point x="185.227" y="41"/>
      <point x="209.164" y="41" type="curve" smooth="yes" name="n28"/>
      <point x="283.885" y="41"/>
      <point x="361.667" y="177.259"/>
    </contour>
  </outline>
</glyph>
<glyph name="f" format="2">
  <advance width="348"/>
  <unicode hex="0066"/>
  <outline>
    <contour>
      <point x="468.333" y="664.755" type="curve" smooth="yes"/>
      <point x="468.333" y="641"/>
      <point x="449.667" y="615.333"/>
      <point x="390" y="607" type="curve"/>
      <point x="322.667" y="667.333" type="line"/>
      <point x="272" y="623.667"/>
      <point x="255.333" y="507.333"/>
      <point x="250.333" y="458.333" type="curve"/>
      <point x="372.333" y="458.333" type="line" name="n08"/>
      <point x="372.333" y="401.667" type="line" name="n09"/>
      <point x="240.667" y="401.667" type="line"/>
      <point x="234.667" y="349.333"/>
      <point x="198.667" y="94.6667"/>
      <point x="181.141" y="22.4242" type="curve" smooth="yes"/>
      <point x="155" y="-85.3333"/>
      <point x="62.6667" y="-229.667" name="n15"/>
      <point x="-47.6839" y="-229.667" type="curve" smooth="yes"/>
      <point x="-108.667" y="-229.667"/>
      <point x="-130" y="-185.667"/>
      <point x="-130" y="-161.736" type="curve" smooth="yes"/>
      <point x="-130" y="-140.667"/>
      <point x="-113.667" y="-117.333"/>
      <point x="-90.6667" y="-101" type="curve"/>
      <point x="3.33333" y="-147.667" type="line"/>
      <point x="35.6667" y="-104"/>
      <point x="56.6667" y="-25"/>
      <point x="71.4342" y="55.8432" type="curve" smooth="yes"/>
      <point x="89.6667" y="155.333"/>
      <point x="105" y="271"/>
      <point x="120.333" y="399.333" type="curve"/>
      <point x="44.1667" y="391.333" type="line"/>
      <point x="45.5" y="436.073" type="line"/>
      <point x="132" y="466" type="line"/>
      <point x="152" y="567.333"/>
      <point x="209.333" y="737" name="n34"/>
      <point x="360.718" y="737" type="curve" smooth="yes"/>
      <point x="435" y="737"/>
      <point x="468.333" y="696.667"/>
    </contour>
  </outline>
</glyph>
<glyph name="r" format="2">
  <advance width="403"/>
  <unicode hex="0072"/>
  <outline>
    <contour>
      <point x="440.333" y="428.333" type="curve" smooth="yes"/>
      <point x="440.333" y="382"/>
      <point x="410.667" y="364.667"/>
      <point x="347.333" y="364.667" type="curve" name="n03"/>
      <point x="321.333" y="416.667" type="line"/>
      <point x="263" y="389"/>
      <point x="204.657" y="319.335"/>
      <point x="192.667" y="260" type="curve" smooth="yes"/>
      <point x="138" y="0" type="line" name="n08"/>
      <point x="18.3333" y="0" type="line"/>
      <point x="105.667" y="423.667" type="line"/>
      <point x="21.6667" y="432.667" type="line"/>
      <point x="21.6667" y="465.667" type="line"/>
      <point x="182.667" y="498" type="line"/>
      <point x="242" y="498" type="line"/>
      <point x="226.333" y="419.667" type="line"/>
      <point x="264" y="465.333"/>
      <point x="315" y="498"/>
      <point x="368.333" y="498" type="curve" smooth="yes" name="n18"/>
      <point x="419" y="498"/>
      <point x="440.333" y="456.667"/>
    </contour>
  </outline>
</glyph>
<glyph name="braceleft" format="2">
  <advance width="492"/>
  <unicode hex="007B"/>
  <outline>
    <contour>
      <point x="509.667" y="705" type="curve" name="n00"/>
      <point x="500.667" y="654.333" type="line" name="n01"/>
      <point x="482.667" y="654.333"/>
      <point x="428.667" y="651.667"/>
      <point x="396.667" y="624.667" type="curve" smooth="yes"/>
      <point x="326.333" y="563.667"/>
      <point x="365" y="415.333"/>
      <point x="275" y="338.667" type="curve" smooth="yes"/>
      <point x="234.333" y="304.333"/>
      <point x="187.667" y="296"/>
      <point x="163.333" y="291.667" type="curve"/>
      <point x="180.667" y="288.333"/>
      <point x="222.667" y="281.333"/>
      <point x="250.667" y="249.667" type="curve"/>
      <point x="323" y="171.667"/>
      <point x="213.333" y="11.3333"/>
      <point x="268.333" y="-47" type="curve" smooth="yes"/>
      <point x="292" y="-73"/>
      <point x="346.333" y="-71.6667"/>
      <point x="357" y="-71.6667" type="curve"/>
      <point x="347" y="-122.333" type="line" name="n20"/>
      <point x="307.333" y="-122.333"/>
      <point x="203" y="-123.333"/>
      <point x="164.333" y="-81.3333" type="curve" smooth="yes"/>
      <point x="89.3333" y="0"/>
      <point x="205.667" y="179"/>
      <point x="151.333" y="238.667" type="curve"/>
      <point x="122.667" y="272"/>
      <point x="59.6667" y="263.667"/>
      <point x="46.6667" y="263.667" type="curve" name="n29"/>
      <point x="57" y="319" type="line" name="n30"/>
      <point x="75.3333" y="319"/>
      <point x="135.333" y="311.333"/>
      <point x="175.667" y="347" type="curve" smooth="yes"/>
      <point x="247" y="410"/>
      <point x="205.333" y="587.333"/>
      <point x="313" y="665.667" type="curve" smooth="yes"/>
      <point x="366" y="705"/>
      <point x="467.333" y="705"/>
    </contour>
  </outline>
</glyph>
<glyph name="braceright" format="2">
  <advance width="492"/>
  <unicode hex="007D"/>
  <outline>
    <contour>
      <point x="456" y="319" type="curve" name="n00"/>
      <point x="445.667" y="263.667" type="line" name="n01"/>
      <point x="427.333" y="263.667"/>
      <point x="367.333" y="270.667"/>
      <point x="326.333" y="235" type="curve" smooth="yes"/>
      <point x="255" y="171.333"/>
      <point x="297.333" y="-4.66667"/>
      <point x="190.667" y="-83" type="curve" smooth="yes"/>
      <point x="137.333" y="-122.333"/>
      <point x="35.3333" y="-122.333"/>
      <point x="-7" y="-122.333" type="curve" name="n10"/>
      <point x="2.66667" y="-71.6667" type="line" name="n11"/>
      <point x="20.6667" y="-71.6667"/>
      <point x="74" y="-69"/>
      <point x="106.333" y="-42" type="curve" smooth="yes"/>
      <point x="176.333" y="18.3333"/>
      <point x="137" y="166.333"/>
      <point x="227" y="243.333" type="curve" smooth="yes"/>
      <point x="267" y="276.667"/>
      <point x="313" y="286"/>
      <point x="338.667" y="291.333" type="curve"/>
      <point x="322.667" y="294.333"/>
      <point x="280" y="300"/>
      <point x="251.667" y="332.333" type="curve"/>
      <point x="179" y="410.333"/>
      <point x="288.667" y="572.333"/>
      <point x="234.667" y="629.667" type="curve" smooth="yes"/>
      <point x="211.333" y="655.667"/>
      <point x="156.333" y="654.333"/>
      <point x="145.667" y="654.333" type="curve"/>
      <point x="156" y="705" type="line" name="n30"/>
      <point x="195.333" y="705"/>
      <point x="299.667" y="706"/>
      <point x="339" y="664" type="curve" smooth="yes"/>
      <point x="413.333" y="582.667"/>
      <point x="297" y="403"/>
      <point x="351.333" y="343.333" type="curve"/>
      <point x="380" y="310"/>
      <point x="443" y="319"/>
    </contour>
  </outline>
</glyph>
<glyph name="yen" format="2">
  <advance width="584"/>
  <unicode hex="00A5"/>
  <outline>
    <contour>
      <point x="676.333" y="621" type="line"/>
      <point x="615.333" y="608.667" type="line"/>
      <point x="474" y="426" type="line"/>
      <point x="578.333" y="426" type="line" name="n03"/>
      <point x="578.333" y="374.333" type="line" name="n04"/>
      <point x="432" y="374.333" type="line"/>
      <point x="362.333" y="284" type="line"/>
      <point x="550" y="284" type="line" name="n07"/>
      <point x="550" y="232" type="line" name="n08"/>
      <point x="350.333" y="232" type="line"/>
      <point x="318" y="69" type="line"/>
      <point x="316.333" y="59"/>
      <point x="320.667" y="54.3333"/>
      <point x="335" y="53" type="curve"/>
      <point x="335" y="53"/>
      <point x="371.171" y="50.4101"/>
      <point x="395.333" y="48" type="curve"/>
      <point x="395.333" y="0" type="line"/>
      <point x="103.667" y="0" type="line" name="n18"/>
      <point x="103.667" y="48" type="line"/>
      <point x="128" y="50.3333"/>
      <point x="155.338" y="51.2923"/>
      <point x="161" y="52" type="curve" name="n22"/>
      <point x="174.672" y="53.2923"/>
      <point x="187.333" y="56"/>
      <point x="190" y="69.6667" type="curve" smooth="yes"/>
      <point x="221.667" y="232" type="line"/>
      <point x="28" y="232" type="line"/>
      <point x="28" y="284" type="line"/>
      <point x="227" y="284" type="line"/>
      <point x="197" y="374.333" type="line"/>
      <point x="56.3333" y="374.333" type="line"/>
      <point x="56.3333" y="426" type="line"/>
      <point x="178.667" y="426" type="line"/>
      <point x="118.667" y="610" type="line"/>
      <point x="57.3333" y="621.333" type="line"/>
      <point x="57.3333" y="668.667" type="line" name="n36"/>
      <point x="325.333" y="668.667" type="line"/>
      <point x="325.333" y="620.667" type="line"/>
      <point x="300.247" y="618.895"/>
      <point x="268" y="616.333"/>
      <point x="268" y="616.333" type="curve"/>
      <point x="257.667" y="615.333"/>
      <point x="249.667" y="611.333"/>
      <point x="254" y="599.667" type="curve"/>
      <point x="326" y="373.333" type="line"/>
      <point x="497" y="598.667" type="line"/>
      <point x="502" y="604.333"/>
      <point x="503" y="613.333"/>
      <point x="487.667" y="615" type="curve" smooth="yes"/>
      <point x="439.667" y="621" type="line"/>
      <point x="439.667" y="668.667" type="line"/>
      <point x="676.333" y="668.667" type="line"/>
    </contour>
  </outline>
</glyph>
<glyph name="copyright" format="2">
  <advance width="836"/>
  <unicode hex="00A9"/>
  <outline>
    <contour>
      <point x="824.333" y="350.333" type="curve" smooth="yes" name="n00"/>
      <point x="824.333" y="136"/>
      <point x="651.667" y="-38"/>
      <point x="437.333" y="-38" type="curve" smooth="yes" name="n03"/>
      <point x="225.667" y="-38"/>
      <point x="52" y="136"/>
      <point x="52" y="350" type="curve" smooth="yes" name="n06"/>
      <point x="52" y="563.667"/>
      <point x="225.333" y="738.333"/>
      <point x="439" y="738.333" type="curve" smooth="yes" name="n09"/>
      <point x="651.333" y="738.333"/>
      <point x="824.333" y="563.333"/>
    </contour>
    <contour>
      <point x="778" y="350" type="curve" smooth="yes" name="n12"/>
      <point x="778" y="539"/>
      <point x="626.667" y="693"/>
      <point x="439" y="693" type="curve" smooth="yes" name="n15"/>
      <point x="252" y="693"/>
      <point x="98.3333" y="540.667"/>
      <point x="98.3333" y="348.667" type="curve" smooth="yes" name="n18"/>
      <point x="98.3333" y="161.667"/>
      <point x="250" y="7.33333"/>
      <point x="438" y="7.33333" type="curve" smooth="yes" name="n21"/>
      <point x="626" y="7.33333"/>
      <point x="778" y="162.333"/>
    </contour>
    <contour>
      <point x="604" y="138.667" type="line"/>
      <point x="603" y="138.333"/>
      <point x="542" y="114"/>
      <point x="460" y="114" type="curve" smooth="yes" name="n27"/>
      <point x="313" y="114"/>
      <point x="216.333" y="208.667"/>
      <point x="216.333" y="350" type="curve" smooth="yes" name="n30"/>
      <point x="216.333" y="482"/>
      <point x="310.667" y="585"/>
      <point x="463" y="585" type="curve" smooth="yes" name="n33"/>
      <point x="540.333" y="585"/>
      <point x="589.333" y="563"/>
      <point x="604" y="558.667" type="curve"/>
      <point x="604" y="438.333" type="line"/>
      <point x="551.667" y="438.333" type="line"/>
      <point x="537.333" y="517" type="line"/>
      <point x="532.333" y="520.333"/>
      <point x="510.333" y="536"/>
      <point x="475.667" y="536" type="curve" smooth="yes" name="n42"/>
      <point x="376.667" y="536"/>
      <point x="323" y="446.667"/>
      <point x="323" y="349.333" type="curve" smooth="yes" name="n45"/>
      <point x="323" y="238.667"/>
      <point x="384.333" y="162.667"/>
      <point x="470.333" y="162.667" type="curve" smooth="yes" name="n48"/>
      <point x="504.667" y="162.667"/>
      <point x="532.333" y="175.667"/>
      <point x="538" y="178.333" type="curve"/>
      <point x="552" y="264" type="line"/>
      <point x="604" y="264" type="line"/>
    </contour>
  </outline>
</glyph>
<glyph name="guillemotleft" format="2">
  <advance width="411"/>
  <unicode hex="00AB"/>
  <outline>
    <contour>
      <point x="123.333" y="0" type="line" name="n00"/>
      <point x="18.6667" y="215" type="line"/>
      <point x="28.6667" y="266" type="line"/>
      <point x="220.667" y="482" type="line" name="n03"/>
      <point x="281" y="482" type="line"/>
      <point x="117.333" y="241" type="line"/>
      <point x="183" y="0" type="line"/>
    </contour>
    <contour>
      <point x="293.667" y="0" type="line"/>
      <point x="188.667" y="215" type="line"/>
      <point x="199.333" y="266" type="line"/>
      <point x="391.667" y="482" type="line"/>
      <point x="451.333" y="482" type="line"/>
      <point x="288" y="241" type="line"/>
      <point x="353.333" y="0" type="line"/>
    </contour>
  </outline>
</glyph>
<glyph name="threesuperior" format="2">
  <advance width="379"/>
  <unicode hex="00B3"/>
  <outline>
    <contour>
      <point x="422" y="707.333" type="curve" smooth="yes" name="n00"/>
      <point x="422" y="666"/>
      <point x="387" y="622"/>
      <point x="311.333" y="598.333" type="curve"/>
      <point x="363.333" y="589.333"/>
      <point x="395.667" y="565.667" name="hr01"/>
      <point x="395.667" y="521" type="curve" smooth="yes" name="n06"/>
      <point x="395.667" y="446"/>
      <point x="312.667" y="374"/>
      <point x="192.667" y="374" type="curve" smooth="yes" name="n09"/>
      <point x="103" y="374"/>
      <point x="66.3333" y="414"/>
      <point x="66.3333" y="442" type="curve" smooth="yes"/>
      <point x="66.3333" y="454"/>
      <point x="80" y="483.667" name="hr02"/>
      <point x="113.333" y="483.667" type="curve" smooth="yes" name="n15"/>
      <point x="131.333" y="483.667"/>
      <point x="142" y="475.333"/>
      <point x="148" y="472.667" type="curve"/>
      <point x="158" y="421.667" type="line"/>
      <point x="163.333" y="419.333"/>
      <point x="183" y="410.667" name="hr03"/>
      <point x="199.667" y="410.667" type="curve" smooth="yes" name="n22"/>
      <point x="252.333" y="410.667"/>
      <point x="306.667" y="453"/>
      <point x="306.667" y="512.333" type="curve" smooth="yes" name="n25"/>
      <point x="306.667" y="567.333"/>
      <point x="257.333" y="573"/>
      <point x="243" y="573" type="curve" smooth="yes" name="n28"/>
      <point x="227.333" y="573"/>
      <point x="213.333" y="570.667"/>
      <point x="188.667" y="567.333" type="curve"/>
      <point x="195.333" y="612.667" type="line" name="n32"/>
      <point x="276" y="608.333"/>
      <point x="331.333" y="644.333" name="hr04"/>
      <point x="331.333" y="699.333" type="curve" smooth="yes" name="n35"/>
      <point x="331.333" y="745.667"/>
      <point x="290.667" y="757.667"/>
      <point x="275" y="757.667" type="curve" smooth="yes" name="n38"/>
      <point x="249.333" y="757.667"/>
      <point x="230.667" y="746.333"/>
      <point x="224.333" y="741.667" type="curve"/>
      <point x="214.667" y="685.667" type="line"/>
      <point x="208.667" y="683"/>
      <point x="187" y="674"/>
      <point x="172.667" y="674" type="curve" smooth="yes"/>
      <point x="156.333" y="674"/>
      <point x="132.667" y="689.667"/>
      <point x="132.667" y="712" type="curve" smooth="yes"/>
      <point x="132.667" y="760"/>
      <point x="211" y="794"/>
      <point x="296.667" y="794" type="curve" smooth="yes" name="n51"/>
      <point x="380" y="794"/>
      <point x="422" y="762"/>
    </contour>
  </outline>
</glyph>
<glyph name="mu" format="2">
  <advance width="571"/>
  <unicode hex="00B5"/>
  <outline>
    <contour>
      <point x="546" y="114.667" type="line"/>
      <point x="526.667" y="42.3333"/>
      <point x="485.667" y="-12"/>
      <point x="405.667" y="-12" type="curve" smooth="yes" name="n03"/>
      <point x="356.667" y="-12"/>
      <point x="335.333" y="31.6667"/>
      <point x="331.667" y="73.6667" type="curve" name="n06"/>
      <point x="288" y="26.3333"/>
      <point x="241.333" y="-12"/>
      <point x="173.333" y="-12" type="curve" smooth="yes" name="n09"/>
      <point x="150" y="-12"/>
      <point x="113.667" y="8.33333"/>
      <point x="100.667" y="28.6667" type="curve"/>
      <point x="87.6667" y="-34.3333"/>
      <point x="94.6667" y="-71.6667"/>
      <point x="94.6667" y="-133" type="curve" smooth="yes" name="n15"/>
      <point x="94.6667" y="-173.667"/>
      <point x="64.6667" y="-222" name="n17"/>
      <point x="19.3333" y="-222" type="curve" smooth="yes"/>
      <point x="-6.33333" y="-222"/>
      <point x="-28" y="-199"/>
      <point x="-28" y="-174" type="curve" smooth="yes" name="n21"/>
      <point x="-28" y="-130"/>
      <point x="-2.33333" y="-107"/>
      <point x="13" y="-69" type="curve" smooth="yes"/>
      <point x="31.6667" y="-22"/>
      <point x="43.1943" y="28.0268"/>
      <point x="52.6667" y="77.6667" type="curve" smooth="yes"/>
      <point x="133.667" y="486" type="line" name="n28"/>
      <point x="248" y="486" type="line"/>
      <point x="186.667" y="174.333" type="line" smooth="yes"/>
      <point x="182.667" y="155.667"/>
      <point x="179.333" y="136"/>
      <point x="179.333" y="116" type="curve" smooth="yes" name="n33"/>
      <point x="179.333" y="90.3333"/>
      <point x="194.333" y="57.6667"/>
      <point x="224.333" y="57.6667" type="curve" smooth="yes" name="n36"/>
      <point x="268.333" y="57.6667"/>
      <point x="305.333" y="95.6667"/>
      <point x="335.667" y="123.333" type="curve"/>
      <point x="407.667" y="486" type="line"/>
      <point x="523.333" y="486" type="line"/>
      <point x="450.667" y="117.667" type="line" smooth="yes"/>
      <point x="447.667" y="102"/>
      <point x="437.667" y="51.6667" name="hr01"/>
      <point x="463" y="51.6667" type="curve" smooth="yes" name="n45"/>
      <point x="493.333" y="51.6667"/>
      <point x="508.333" y="92.3333"/>
      <point x="517.333" y="114.667" type="curve"/>
    </contour>
  </outline>
</glyph>
<glyph name="ordmasculine" format="2">
  <advance width="348"/>
  <unicode hex="00BA"/>
  <outline>
    <contour>
      <point x="381" y="564.333" type="curve" smooth="yes" name="n00"/>
      <point x="381" y="469.333"/>
      <point x="309.667" y="376"/>
      <point x="197.333" y="376" type="curve" smooth="yes" name="n03"/>
      <point x="113.667" y="376"/>
      <point x="72.3333" y="423"/>
      <point x="72.3333" y="490.333" type="curve" smooth="yes" name="n06"/>
      <point x="72.3333" y="585.333"/>
      <point x="140.333" y="681.667"/>
      <point x="254.333" y="681.667" type="curve" smooth="yes" name="n09"/>
      <point x="328.667" y="681.667"/>
      <point x="381" y="643.333"/>
    </contour>
    <contour>
      <point x="333" y="344" type="line" name="n12"/>
      <point x="324.667" y="300.667" type="line" name="n13"/>
      <point x="32.3333" y="300.667" type="line"/>
      <point x="41.3333" y="344" type="line"/>
    </contour>
    <contour>
      <point x="296.333" y="566.333" type="curve" smooth="yes" name="n16"/>
      <point x="296.333" y="624.667"/>
      <point x="269" y="651.667"/>
      <point x="246.667" y="651.667" type="curve" smooth="yes" name="n19"/>
      <point x="202" y="651.667"/>
      <point x="156.333" y="573.333"/>
      <point x="156.333" y="493.333" type="curve" smooth="yes" name="n22"/>
      <point x="156.333" y="432"/>
      <point x="184" y="407"/>
      <point x="204.667" y="407" type="curve" smooth="yes" name="n25"/>
      <point x="256" y="407"/>
      <point x="296.333" y="493.333"/>
    </contour>
  </outline>
</glyph>
<glyph name="onehalf" format="2">
  <advance width="897"/>
  <unicode hex="00BD"/>
  <outline>
    <contour>
      <point x="843" y="317.667" type="curve" smooth="yes" name="n00"/>
      <point x="843" y="204.333"/>
      <point x="661.333" y="109.667"/>
      <point x="576.667" y="61.3333" type="curve"/>
      <point x="755.333" y="61.3333" type="line" name="n04"/>
      <point x="776.667" y="113.667" type="line"/>
      <point x="817.667" y="113.667" type="line"/>
      <point x="795" y="0" type="line" name="n07"/>
      <point x="480.667" y="0" type="line"/>
      <point x="490" y="48" type="line"/>
      <point x="573.333" y="102.667"/>
      <point x="754" y="196.667"/>
      <point x="754" y="310.667" type="curve" smooth="yes" name="n12"/>
      <point x="754" y="350"/>
      <point x="728.333" y="371.333"/>
      <point x="689.333" y="371.333" type="curve" smooth="yes" name="n15"/>
      <point x="671.667" y="371.333"/>
      <point x="657.667" y="366"/>
      <point x="647.667" y="363" type="curve"/>
      <point x="632.667" y="288.333" type="line"/>
      <point x="623.333" y="284.333"/>
      <point x="607.667" y="277.333"/>
      <point x="590.333" y="277.333" type="curve" smooth="yes"/>
      <point x="572.333" y="277.333"/>
      <point x="551" y="284.333"/>
      <point x="551" y="309.333" type="curve" smooth="yes"/>
      <point x="551" y="378.333"/>
      <point x="653.333" y="411"/>
      <point x="720.667" y="411" type="curve" smooth="yes" name="n28"/>
      <point x="780.667" y="411"/>
      <point x="843" y="386.333"/>
    </contour>
    <contour>
      <point x="772" y="696" type="line"/>
      <point x="192.333" y="0" type="line"/>
      <point x="120" y="0" type="line"/>
      <point x="699.667" y="696" type="line"/>
    </contour>
    <contour>
      <point x="311" y="705.667" type="line" name="n35"/>
      <point x="234.667" y="342.667" type="line" smooth="yes"/>
      <point x="233.249" y="336.35"/>
      <point x="239" y="332.333"/>
      <point x="247.333" y="331.667" type="curve" smooth="yes"/>
      <point x="294.333" y="327.667" type="line"/>
      <point x="294.333" y="294.667" type="line"/>
      <point x="75.3333" y="294.667" type="line"/>
      <point x="75.3333" y="328" type="line"/>
      <point x="137.667" y="331.667" type="line"/>
      <point x="146.333" y="331.667"/>
      <point x="151.667" y="337"/>
      <point x="153.333" y="343.333" type="curve"/>
      <point x="215.667" y="644.333" type="line"/>
      <point x="117" y="632" type="line"/>
      <point x="117" y="665.333" type="line"/>
      <point x="274.667" y="705.667" type="line"/>
    </contour>
  </outline>
</glyph>
<glyph name="questiondown" format="2">
  <advance width="509"/>
  <unicode hex="00BF"/>
  <outline>
    <contour>
      <point x="409.333" y="422.333" type="curve" smooth="yes" name="n00"/>
      <point x="409.333" y="382.667"/>
      <point x="374.333" y="350.333"/>
      <point x="332" y="350.333" type="curve" smooth="yes" name="n03"/>
      <point x="289.333" y="350.333"/>
      <point x="260.667" y="386.333"/>
      <point x="260.667" y="424.667" type="curve" smooth="yes" name="n06"/>
      <point x="260.667" y="463.667"/>
      <point x="290" y="498"/>
      <point x="332.667" y="498" type="curve" smooth="yes" name="n09"/>
      <point x="377.667" y="498"/>
      <point x="409.333" y="463.333"/>
    </contour>
    <contour>
      <point x="399.667" y="-76.3333" type="curve" smooth="yes"/>
      <point x="399.667" y="-155.333"/>
      <point x="296.333" y="-202.333"/>
      <point x="200" y="-202.333" type="curve" smooth="yes" name="n15"/>
      <point x="97.3333" y="-202.333"/>
      <point x="10.3333" y="-154"/>
      <point x="10.3333" y="-52.6667" type="curve" smooth="yes" name="n18"/>
      <point x="10.3333" y="83.6667"/>
      <point x="144.667" y="169"/>
      <point x="261.667" y="200" type="curve"/>
      <point x="280.667" y="296.333" type="line"/>
      <point x="348.667" y="296.333" type="line"/>
      <point x="321.333" y="158" type="line"/>
      <point x="229" y="135.667"/>
      <point x="140" y="57"/>
      <point x="140" y="-47" type="curve" smooth="yes" name="n27"/>
      <point x="140" y="-114.333"/>
      <point x="185.333" y="-145"/>
      <point x="247.667" y="-145" type="curve" name="n30"/>
      <point x="258.907" y="-126.519"/>
      <point x="315" y="-30.6667"/>
      <point x="315" y="-30.6667" type="curve" name="n33"/>
      <point x="344" y="-30.6667" type="line" smooth="yes"/>
      <point x="374" y="-30.6667"/>
      <point x="399.667" y="-47"/>
    </contour>
  </outline>
</glyph>
<glyph name="Oslash" format="2">
  <advance width="737"/>
  <unicode hex="00D8"/>
  <outline>
    <contour>
      <point x="719" y="417" type="curve" smooth="yes" name="n00"/>
      <point x="719" y="210"/>
      <point x="587" y="-16"/>
      <point x="334" y="-16" type="curve" smooth="yes" name="n03"/>
      <point x="283.667" y="-16"/>
      <point x="238.333" y="-6.66667"/>
      <point x="199.667" y="11" type="curve"/>
      <point x="132.667" y="-90.6667" type="line"/>
      <point x="70.3333" y="-45.3333" type="line"/>
      <point x="134" y="52.6667" type="line"/>
      <point x="78.6667" y="102.333"/>
      <point x="48" y="175.333"/>
      <point x="48" y="262.667" type="curve" smooth="yes" name="n12"/>
      <point x="48" y="473"/>
      <point x="196" y="687"/>
      <point x="434" y="687" type="curve" smooth="yes" name="n15"/>
      <point x="472.667" y="687"/>
      <point x="507.333" y="681"/>
      <point x="538.333" y="671.333" type="curve"/>
      <point x="595.667" y="758.333" type="line"/>
      <point x="666" y="714.667" type="line"/>
      <point x="612.667" y="634.333" type="line"/>
      <point x="682.667" y="584.667"/>
      <point x="719" y="504"/>
    </contour>
    <contour>
      <point x="496.333" y="606.333" type="line"/>
      <point x="474.667" y="622.333"/>
      <point x="450.333" y="630.333"/>
      <point x="425" y="630.333" type="curve" smooth="yes" name="n27"/>
      <point x="297" y="630.333"/>
      <point x="189" y="433.667"/>
      <point x="189" y="254.667" type="curve" smooth="yes" name="n30"/>
      <point x="189" y="218.667"/>
      <point x="194.667" y="186.667"/>
      <point x="204.333" y="159.333" type="curve"/>
    </contour>
    <contour>
      <point x="577" y="417" type="curve" smooth="yes" name="n34"/>
      <point x="577" y="466"/>
      <point x="567.667" y="507.333"/>
      <point x="550.667" y="540" type="curve"/>
      <point x="248.667" y="84" type="line"/>
      <point x="275.667" y="56.6667"/>
      <point x="308.667" y="42.6667"/>
      <point x="341" y="42.6667" type="curve" smooth="yes" name="n41"/>
      <point x="468.333" y="42.6667"/>
      <point x="577" y="244"/>
    </contour>
  </outline>
</glyph>
<glyph name="oslash" format="2">
  <advance width="537"/>
  <unicode hex="00F8"/>
  <outline>
    <contour>
      <point x="506.333" y="302" type="curve" smooth="yes" name="n00"/>
      <point x="506.333" y="143.333"/>
      <point x="397" y="-12"/>
      <point x="224.333" y="-12" type="curve" smooth="yes" name="n03"/>
      <point x="196.667" y="-12"/>
      <point x="172" y="-7.66667"/>
      <point x="150" y="-1" type="curve"/>
      <point x="92.3333" y="-91.3333" type="line"/>
      <point x="46" y="-60.3333" type="line"/>
      <point x="99.6667" y="24.3333" type="line"/>
      <point x="54.3333" y="58.3333"/>
      <point x="31.6667" y="112.667"/>
      <point x="31.6667" y="179.667" type="curve" smooth="yes" name="n12"/>
      <point x="31.6667" y="338.333"/>
      <point x="136.333" y="498"/>
      <point x="312" y="498" type="curve" smooth="yes" name="n15"/>
      <point x="340.667" y="498"/>
      <point x="367" y="493.333"/>
      <point x="390.667" y="485.333" type="curve"/>
      <point x="437.333" y="559.333" type="line"/>
      <point x="488" y="529.667" type="line"/>
      <point x="442.333" y="458" type="line"/>
      <point x="483" y="426"/>
      <point x="506.333" y="374.333"/>
    </contour>
    <contour>
      <point x="348.333" y="418.333" type="line"/>
      <point x="333.667" y="438.667"/>
      <point x="316.667" y="448.333"/>
      <point x="301" y="448.333" type="curve" smooth="yes" name="n27"/>
      <point x="231.333" y="448.333"/>
      <point x="160.667" y="317.333"/>
      <point x="160.667" y="184" type="curve" smooth="yes" name="n30"/>
      <point x="160.667" y="163.333"/>
      <point x="163" y="145.667"/>
      <point x="167" y="130.333" type="curve"/>
    </contour>
    <contour>
      <point x="376.667" y="306" type="curve" smooth="yes" name="n34"/>
      <point x="376.667" y="322"/>
      <point x="375.667" y="337"/>
      <point x="373" y="349.667" type="curve"/>
      <point x="192.667" y="66.3333" type="line"/>
      <point x="206.333" y="48"/>
      <point x="222.667" y="39.6667"/>
      <point x="236.333" y="39.6667" type="curve" smooth="yes" name="n41"/>
      <point x="314.667" y="39.6667"/>
      <point x="376.667" y="184.667"/>
    </contour>
  </outline>
</glyph>
<glyph name="dcroat" format="2">
  <advance width="552"/>
  <unicode hex="0111"/>
  <outline>
    <contour>
      <point x="622" y="596.667" type="line" name="n00"/>
      <point x="610.667" y="534.333" type="line" name="n01"/>
      <point x="520.333" y="534.333" type="line"/>
      <point x="441.667" y="88.6667" type="line" smooth="yes"/>
      <point x="435.333" y="54.3333"/>
      <point x="456" y="46"/>
      <point x="464.333" y="46" type="curve" smooth="yes"/>
      <point x="486.333" y="46"/>
      <point x="532.667" y="64.3333"/>
      <point x="550.333" y="72.3333" type="curve"/>
      <point x="550.333" y="27.3333" type="line"/>
      <point x="522.333" y="12"/>
      <point x="453.667" y="-12"/>
      <point x="405.333" y="-12" type="curve" smooth="yes"/>
      <point x="351.667" y="-12"/>
      <point x="327.667" y="10.3333"/>
      <point x="320.333" y="45" type="curve"/>
      <point x="284.667" y="14.6667"/>
      <point x="236.333" y="-12"/>
      <point x="189" y="-12" type="curve" smooth="yes" name="n19"/>
      <point x="74.3333" y="-12"/>
      <point x="32" y="83"/>
      <point x="32" y="168.333" type="curve" smooth="yes" name="n22"/>
      <point x="32" y="323.333"/>
      <point x="134.667" y="498"/>
      <point x="328.333" y="498" type="curve" smooth="yes" name="n25"/>
      <point x="355" y="498"/>
      <point x="377.667" y="488.333"/>
      <point x="392" y="483.667" type="curve"/>
      <point x="400.667" y="534.333" type="line"/>
      <point x="251.333" y="534.333" type="line"/>
      <point x="263.667" y="596.667" type="line"/>
      <point x="412" y="596.667" type="line"/>
      <point x="423.333" y="663.333" type="line"/>
      <point x="333" y="671.667" type="line"/>
      <point x="333" y="705.667" type="line"/>
      <point x="497.333" y="737" type="line" name="n36"/>
      <point x="556.333" y="737" type="line"/>
      <point x="531.667" y="596.667" type="line"/>
    </contour>
    <contour>
      <point x="376" y="394" type="line" smooth="yes"/>
      <point x="377" y="399.333"/>
      <point x="351" y="445"/>
      <point x="326.333" y="445" type="curve" smooth="yes" name="n42"/>
      <point x="247.333" y="445"/>
      <point x="156.333" y="332.333"/>
      <point x="156.333" y="174.333" type="curve" smooth="yes" name="n45"/>
      <point x="156.333" y="91.6667"/>
      <point x="182.667" y="55.6667"/>
      <point x="220.333" y="55.6667" type="curve" smooth="yes" name="n48"/>
      <point x="255" y="55.6667"/>
      <point x="295.333" y="93.6667"/>
      <point x="330" y="133.667" type="curve"/>
    </contour>
  </outline>
</glyph>
<glyph name="gcedilla" format="2">
  <advance width="470"/>
  <unicode hex="0123"/>
  <outline>
    <contour>
      <point x="517" y="418.333" type="line" name="n00"/>
      <point x="425" y="418.333" type="line"/>
      <point x="431" y="403.333"/>
      <point x="436.667" y="379.667"/>
      <point x="436.667" y="354.667" type="curve" smooth="yes" name="n04"/>
      <point x="436.667" y="246.333"/>
      <point x="351.667" y="161"/>
      <point x="216.333" y="160.333" type="curve" name="n07"/>
      <point x="208.667" y="141"/>
      <point x="204.333" y="117.333"/>
      <point x="206.667" y="106.333" type="curve"/>
      <point x="340" y="46" type="line" smooth="yes"/>
      <point x="403" y="18"/>
      <point x="444.667" y="-6.66667" name="hr01"/>
      <point x="444.667" y="-64.6667" type="curve" smooth="yes" name="n14"/>
      <point x="444.667" y="-149.333"/>
      <point x="319.333" y="-229"/>
      <point x="176.333" y="-229" type="curve" smooth="yes" name="n17"/>
      <point x="27.3333" y="-229"/>
      <point x="-31" y="-153.667"/>
      <point x="-31" y="-80.3333" type="curve" smooth="yes" name="n20"/>
      <point x="-31" y="-12.3333"/>
      <point x="28.3333" y="33.6667"/>
      <point x="102.667" y="59" type="curve"/>
      <point x="97.3333" y="90"/>
      <point x="114.667" y="145"/>
      <point x="141" y="172" type="curve"/>
      <point x="88" y="196.333"/>
      <point x="48.6667" y="233.333" name="hr02"/>
      <point x="48.6667" y="296.667" type="curve" smooth="yes" name="n29"/>
      <point x="48.6667" y="391"/>
      <point x="120.333" y="498"/>
      <point x="266" y="498" type="curve" smooth="yes" name="n32"/>
      <point x="315.333" y="498"/>
      <point x="357.667" y="480.333"/>
      <point x="374.333" y="472.667" type="curve" name="hr03"/>
      <point x="517" y="472.667" type="line" name="n36"/>
    </contour>
    <contour>
      <point x="312.667" y="359.667" type="curve" smooth="yes" name="n37"/>
      <point x="312.667" y="407.333"/>
      <point x="306.667" y="449.333" name="hr04"/>
      <point x="268" y="449.333" type="curve" smooth="yes" name="n40"/>
      <point x="237.333" y="449.333"/>
      <point x="172.667" y="381"/>
      <point x="172.667" y="284.333" type="curve" smooth="yes" name="n43"/>
      <point x="172.667" y="237.667"/>
      <point x="182.667" y="204"/>
      <point x="216.333" y="204" type="curve" smooth="yes" name="n46"/>
      <point x="282.667" y="204"/>
      <point x="312.667" y="298"/>
    </contour>
    <contour>
      <point x="323.667" y="-84.6667" type="curve" smooth="yes" name="n49"/>
      <point x="323.667" y="-61.3333" name="hr05"/>
      <point x="311.667" y="-41.3333"/>
      <point x="274" y="-24" type="curve" smooth="yes"/>
      <point x="157.667" y="27.6667" type="line"/>
      <point x="107" y="11"/>
      <point x="91" y="-25.3333"/>
      <point x="91" y="-63.3333" type="curve" smooth="yes" name="n56"/>
      <point x="91" y="-107.333"/>
      <point x="119.333" y="-176.333"/>
      <point x="202.333" y="-176.333" type="curve" smooth="yes" name="n59"/>
      <point x="295" y="-176.333"/>
      <point x="323.667" y="-116.333"/>
    </contour>
    <contour>
      <point x="235.333" y="615" type="curve" smooth="yes" name="n62"/>
      <point x="235.333" y="699"/>
      <point x="325" y="750" name="hr06"/>
      <point x="397.333" y="763.333" type="curve"/>
      <point x="390" y="725.667" type="line"/>
      <point x="350" y="714"/>
      <point x="313.333" y="690"/>
      <point x="304.333" y="646.333" type="curve" name="n69"/>
      <point x="364" y="646.333" type="line" name="hr07"/>
      <point x="372" y="638"/>
      <point x="375.333" y="626"/>
      <point x="375.333" y="615" type="curve" smooth="yes" name="n73"/>
      <point x="375.333" y="574.667" name="hr08"/>
      <point x="338.333" y="550.333"/>
      <point x="301.667" y="550.333" type="curve" smooth="yes" name="n76"/>
      <point x="262" y="550.333"/>
      <point x="235.333" y="575"/>
    </contour>
  </outline>
</glyph>
<glyph name="Lslash" format="2">
  <advance width="546"/>
  <unicode hex="0141"/>
  <outline>
    <contour>
      <point x="513" y="196.333" type="line"/>
      <point x="474.333" y="0" type="line" name="n01"/>
      <point x="-15" y="0" type="line"/>
      <point x="-15" y="47.3333" type="line"/>
      <point x="7.59411" y="49.7294"/>
      <point x="42.3333" y="51.6667"/>
      <point x="42.3333" y="51.6667" type="curve"/>
      <point x="59.3333" y="53.3333"/>
      <point x="65" y="56.6667"/>
      <point x="67" y="69.3333" type="curve"/>
      <point x="102.667" y="252.667" type="line"/>
      <point x="21" y="206.667" type="line"/>
      <point x="-9.66667" y="268.333" type="line"/>
      <point x="120" y="339.667" type="line"/>
      <point x="171" y="602" type="line"/>
      <point x="173.667" y="613"/>
      <point x="167" y="617.667"/>
      <point x="154" y="618.667" type="curve"/>
      <point x="154" y="618.667"/>
      <point x="119.929" y="621.256"/>
      <point x="96" y="623.667" type="curve"/>
      <point x="96" y="671" type="line" name="n21"/>
      <point x="384" y="671" type="line"/>
      <point x="384" y="623.667" type="line"/>
      <point x="357.002" y="621.243"/>
      <point x="321" y="618.667"/>
      <point x="321" y="618.667" type="curve"/>
      <point x="310" y="617.667"/>
      <point x="302.667" y="612.667"/>
      <point x="300" y="601.333" type="curve"/>
      <point x="265" y="420.333" type="line"/>
      <point x="362.333" y="473.667" type="line"/>
      <point x="396.667" y="413.667" type="line"/>
      <point x="248" y="332.333" type="line"/>
      <point x="194" y="56.6667" type="line"/>
      <point x="377" y="56.6667" type="line" smooth="yes" name="n35"/>
      <point x="388" y="56.6667"/>
      <point x="400.74" y="63.3095"/>
      <point x="404" y="72.6667" type="curve"/>
      <point x="443.333" y="196.333" type="line" name="n39"/>
    </contour>
  </outline>
</glyph>
<glyph name="lslash" format="2">
  <advance width="301"/>
  <unicode hex="0142"/>
  <outline>
    <contour>
      <point x="361.333" y="449" type="line"/>
      <point x="226.667" y="380.667" type="line"/>
      <point x="172.667" y="101" type="line" smooth="yes"/>
      <point x="168.333" y="76.6667"/>
      <point x="179.333" y="50"/>
      <point x="204.333" y="50" type="curve" smooth="yes" name="n05"/>
      <point x="222" y="50"/>
      <point x="265.333" y="61.6667"/>
      <point x="299.333" y="76.6667" type="curve"/>
      <point x="299.333" y="28" type="line"/>
      <point x="263" y="9.33333"/>
      <point x="197.667" y="-12"/>
      <point x="147" y="-12" type="curve" smooth="yes" name="n12"/>
      <point x="83" y="-12"/>
      <point x="48.6667" y="18"/>
      <point x="48.6667" y="63" type="curve" smooth="yes"/>
      <point x="48.6667" y="73.6667"/>
      <point x="50" y="85.6667"/>
      <point x="52.6667" y="98.6667" type="curve" smooth="yes"/>
      <point x="94.3333" y="313.333" type="line"/>
      <point x="15" y="273.333" type="line"/>
      <point x="-13" y="330" type="line"/>
      <point x="109" y="392.333" type="line"/>
      <point x="162" y="663.333" type="line"/>
      <point x="73.6667" y="671.667" type="line"/>
      <point x="73.6667" y="705.667" type="line"/>
      <point x="238.333" y="737" type="line" name="n26"/>
      <point x="295.333" y="737" type="line"/>
      <point x="242" y="459.333" type="line"/>
      <point x="333" y="505.667" type="line"/>
    </contour>
  </outline>
</glyph>
<glyph name="ncaron" format="2">
  <advance width="562"/>
  <unicode hex="0148"/>
  <outline>
    <contour>
      <point x="558.333" y="22" type="line"/>
      <point x="529.333" y="8.66667"/>
      <point x="454.333" y="-12" name="n02"/>
      <point x="409.667" y="-12" type="curve" smooth="yes"/>
      <point x="372.333" y="-12"/>
      <point x="304.333" y="-3.66667"/>
      <point x="315.333" y="49.6667" type="curve" smooth="yes"/>
      <point x="376.333" y="355.333" type="line" smooth="yes"/>
      <point x="386.333" y="405.667"/>
      <point x="367" y="421.667"/>
      <point x="345.667" y="421.667" type="curve" smooth="yes"/>
      <point x="314.333" y="421.667"/>
      <point x="256.333" y="382.333"/>
      <point x="213.667" y="338" type="curve"/>
      <point x="143.333" y="0" type="line" name="n14"/>
      <point x="23.6667" y="0" type="line"/>
      <point x="111.333" y="425" type="line"/>
      <point x="27.3333" y="433.333" type="line"/>
      <point x="27.3333" y="465.667" type="line"/>
      <point x="187" y="498" type="line" name="n19"/>
      <point x="246.333" y="498" type="line"/>
      <point x="232" y="428.333" type="line"/>
      <point x="279.333" y="465.333"/>
      <point x="344.333" y="498"/>
      <point x="401.333" y="498" type="curve" smooth="yes"/>
      <point x="492.333" y="498"/>
      <point x="519.667" y="454.667"/>
      <point x="503.667" y="368" type="curve" smooth="yes"/>
      <point x="450" y="86.6667" type="line" smooth="yes"/>
      <point x="443.667" y="52"/>
      <point x="469.667" y="46.6667"/>
      <point x="480.333" y="46.6667" type="curve" smooth="yes"/>
      <point x="500.333" y="46.6667"/>
      <point x="529" y="54.6667"/>
      <point x="556.667" y="65.6667" type="curve"/>
    </contour>
    <contour>
      <point x="541.333" y="721.333" type="line" name="n35"/>
      <point x="389.333" y="551" type="line"/>
      <point x="284.333" y="551" type="line"/>
      <point x="200.333" y="721.333" type="line"/>
      <point x="279" y="721.333" type="line"/>
      <point x="352.667" y="628" type="line"/>
      <point x="462.333" y="721.333" type="line"/>
    </contour>
  </outline>
</glyph>
<glyph name="oe" format="2">
  <advance width="774"/>
  <unicode hex="0153"/>
  <outline>
    <contour>
      <point x="757" y="384.333" type="curve" smooth="yes" name="n00"/>
      <point x="757" y="259.333"/>
      <point x="562.333" y="226.333"/>
      <point x="477" y="219.333" type="curve" name="n03"/>
      <point x="475.667" y="206.333"/>
      <point x="474.667" y="187.333"/>
      <point x="474.667" y="177.667" type="curve" smooth="yes" name="n06"/>
      <point x="474.667" y="101.667"/>
      <point x="509.333" y="54.6667"/>
      <point x="564" y="54.6667" type="curve" smooth="yes" name="n09"/>
      <point x="613.333" y="54.6667"/>
      <point x="663.667" y="99"/>
      <point x="744.333" y="173" type="curve"/>
      <point x="744.333" y="84" type="line"/>
      <point x="687.667" y="32.6667"/>
      <point x="619.667" y="-12"/>
      <point x="530" y="-12" type="curve" smooth="yes" name="n16"/>
      <point x="467" y="-12"/>
      <point x="423.333" y="15.3333"/>
      <point x="394" y="67.3333" type="curve"/>
      <point x="351.667" y="11"/>
      <point x="296.333" y="-12"/>
      <point x="224" y="-12" type="curve" smooth="yes" name="n22"/>
      <point x="100.667" y="-12"/>
      <point x="32" y="65.3333"/>
      <point x="32" y="180" type="curve" smooth="yes" name="n25"/>
      <point x="32" y="325.667"/>
      <point x="125" y="498"/>
      <point x="310" y="498" type="curve" smooth="yes" name="n28"/>
      <point x="375" y="498"/>
      <point x="428.667" y="459.333"/>
      <point x="456.333" y="408.333" type="curve"/>
      <point x="491.333" y="462.333"/>
      <point x="569.333" y="498"/>
      <point x="638.667" y="498" type="curve" smooth="yes" name="n34"/>
      <point x="726" y="498"/>
      <point x="757" y="427"/>
    </contour>
    <contour>
      <point x="647.667" y="384.333" type="curve" smooth="yes" name="n37"/>
      <point x="647.667" y="400"/>
      <point x="648.333" y="444.333"/>
      <point x="612" y="444.333" type="curve" smooth="yes" name="n40"/>
      <point x="548.667" y="444.333"/>
      <point x="506" y="349.333"/>
      <point x="484.667" y="266" type="curve" name="n43"/>
      <point x="546" y="275"/>
      <point x="647.667" y="311"/>
    </contour>
    <contour>
      <point x="368" y="295" type="curve" smooth="yes" name="n46"/>
      <point x="368" y="370.333"/>
      <point x="351.667" y="447.667"/>
      <point x="295.333" y="447.667" type="curve" smooth="yes" name="n49"/>
      <point x="226.333" y="447.667" name="hr01"/>
      <point x="159" y="313.667"/>
      <point x="159" y="184" type="curve" smooth="yes" name="n52"/>
      <point x="159" y="100.667"/>
      <point x="181.333" y="39.6667"/>
      <point x="233.333" y="39.6667" type="curve" smooth="yes" name="n55"/>
      <point x="312" y="39.6667"/>
      <point x="368" y="177.667"/>
    </contour>
  </outline>
</glyph>
<glyph name="uni0163" format="2">
  <advance width="329"/>
  <unicode hex="0163"/>
  <outline>
    <contour>
      <point x="378.333" y="418.333" type="line" name="n00"/>
      <point x="230" y="418.333" type="line" name="n01"/>
      <point x="167" y="107.667" type="line" smooth="yes"/>
      <point x="159.993" y="75.3348"/>
      <point x="180.333" y="54.3333"/>
      <point x="212.333" y="54.3333" type="curve" smooth="yes"/>
      <point x="245.667" y="54.3333"/>
      <point x="302" y="76"/>
      <point x="330.333" y="85.6667" type="curve"/>
      <point x="330.333" y="35.6667" type="line"/>
      <point x="310" y="26.6667"/>
      <point x="214" y="-12"/>
      <point x="152.667" y="-12" type="curve" smooth="yes"/>
      <point x="77.3333" y="-12"/>
      <point x="45.3333" y="25.6667"/>
      <point x="45.3333" y="76.6667" type="curve" smooth="yes"/>
      <point x="45.3333" y="89.6667"/>
      <point x="46.3333" y="103"/>
      <point x="49.3333" y="117" type="curve" smooth="yes"/>
      <point x="110.333" y="417" type="line"/>
      <point x="41.3333" y="409.667" type="line"/>
      <point x="41.3333" y="448" type="line"/>
      <point x="123" y="481.667" type="line"/>
      <point x="173.333" y="583.667" type="line"/>
      <point x="260.333" y="583.667" type="line" name="n24"/>
      <point x="239.667" y="470.333" type="line" name="hr01"/>
      <point x="378.333" y="470.333" type="line" name="n26"/>
    </contour>
    <contour>
      <point x="236" y="-112.667" type="curve" smooth="yes"/>
      <point x="236" y="-187.667"/>
      <point x="164.333" y="-228.333"/>
      <point x="92.3333" y="-228.333" type="curve" smooth="yes" name="n30"/>
      <point x="55" y="-228.333"/>
      <point x="17.3333" y="-218.333"/>
      <point x="12.6667" y="-217" type="curve"/>
      <point x="22.6667" y="-170.333" type="line"/>
      <point x="27.6667" y="-171.667"/>
      <point x="61.6667" y="-179.333"/>
      <point x="85.6667" y="-179.333" type="curve" smooth="yes" name="n37"/>
      <point x="109" y="-179.333"/>
      <point x="151" y="-172"/>
      <point x="151" y="-136.333" type="curve" smooth="yes"/>
      <point x="151" y="-117"/>
      <point x="133.333" y="-109.333"/>
      <point x="115" y="-109.333" type="curve" smooth="yes"/>
      <point x="108.333" y="-109.333"/>
      <point x="96.3333" y="-111.667"/>
      <point x="89.3333" y="-115" type="curve"/>
      <point x="116.333" y="24" type="line"/>
      <point x="167.667" y="24" type="line"/>
      <point x="152" y="-56.3333" type="line"/>
      <point x="153.667" y="-56"/>
      <point x="158" y="-56.3333"/>
      <point x="166.333" y="-56.3333" type="curve" smooth="yes"/>
      <point x="207.667" y="-56.3333"/>
      <point x="236" y="-74"/>
    </contour>
  </outline>
</glyph>
<glyph name="longs" format="2">
  <advance width="348"/>
  <unicode hex="017F"/>
  <outline>
    <contour>
      <point x="468.333" y="671.667" type="curve" smooth="yes"/>
      <point x="468.333" y="641"/>
      <point x="449.667" y="615.333"/>
      <point x="390" y="607" type="curve"/>
      <point x="322.667" y="667.333" type="line"/>
      <point x="272" y="623.667"/>
      <point x="257" y="507.333"/>
      <point x="240.667" y="402.333" type="curve" smooth="yes"/>
      <point x="232.667" y="350"/>
      <point x="198.667" y="95.3333"/>
      <point x="181.333" y="23.3333" type="curve" smooth="yes"/>
      <point x="155" y="-84.6667"/>
      <point x="62.6667" y="-229" name="n12"/>
      <point x="-53.6667" y="-229" type="curve" smooth="yes"/>
      <point x="-108.667" y="-229"/>
      <point x="-130" y="-185"/>
      <point x="-130" y="-165.667" type="curve" smooth="yes"/>
      <point x="-130" y="-140"/>
      <point x="-113.667" y="-116.667"/>
      <point x="-90.6667" y="-100.333" type="curve"/>
      <point x="3.33333" y="-147" type="line"/>
      <point x="35.6667" y="-103.333"/>
      <point x="56.6667" y="-24.3333"/>
      <point x="72.6667" y="63.3333" type="curve" smooth="yes"/>
      <point x="89.6667" y="156"/>
      <point x="97.6667" y="272.667"/>
      <point x="132" y="466" type="curve" smooth="yes"/>
      <point x="150.333" y="568"/>
      <point x="209.333" y="737" name="n28"/>
      <point x="363" y="737" type="curve" smooth="yes"/>
      <point x="435" y="737"/>
      <point x="468.333" y="696.667"/>
    </contour>
  </outline>
</glyph>
<glyph name="uni0183" format="2">
  <advance width="549"/>
  <unicode hex="0183"/>
  <outline>
    <contour>
      <point x="229.667" y="689" type="curve"/>
      <point x="317.667" y="557.667" type="line" name="n01"/>
      <point x="339.864" y="561.26"/>
      <point x="359.55" y="534.802"/>
      <point x="381.333" y="527" type="curve" name="n04"/>
      <point x="449.126" y="527"/>
      <point x="471.113" y="457"/>
      <point x="468.333" y="401" type="curve"/>
      <point x="468.491" y="325.212"/>
      <point x="420.697" y="208.843"/>
      <point x="268.333" y="215.667" type="curve"/>
      <point x="220.667" y="218.667"/>
      <point x="178.667" y="234.667"/>
      <point x="143.333" y="255.333" type="curve" name="n13"/>
      <point x="184" y="721.333" type="line"/>
      <point x="230.153" y="721.333"/>
      <point x="403.066" y="717"/>
      <point x="432.333" y="714.333" type="curve"/>
      <point x="395.667" y="526.667" type="line" name="hr02"/>
      <point x="400.109" y="537.667"/>
      <point x="385.428" y="546.667" name="hr03"/>
      <point x="394" y="546.667" type="curve" name="n21"/>
      <point x="428.596" y="557.829" name="hr04"/>
      <point x="441.122" y="560.672"/>
      <point x="441.333" y="542" type="curve" smooth="yes" name="n24"/>
      <point x="442" y="511.333"/>
      <point x="413" y="449.333"/>
      <point x="336" y="449.333" type="curve" smooth="yes" name="n27"/>
      <point x="303.283" y="449.333"/>
      <point x="227.657" y="454.667"/>
      <point x="198" y="464.667" type="curve"/>
      <point x="199.91" y="510.691"/>
      <point x="225.117" y="665.005"/>
    </contour>
    <contour>
      <point x="361.667" y="306.667" type="curve" smooth="yes" name="n33"/>
      <point x="361.667" y="392.667"/>
      <point x="326.333" y="425.333"/>
      <point x="303" y="425.333" type="curve" smooth="yes" name="n36"/>
      <point x="273.667" y="425.333"/>
      <point x="232.667" y="404.667"/>
      <point x="201.333" y="377.667" type="curve"/>
      <point x="145.333" y="77.3333" type="line"/>
      <point x="157" y="59.6667"/>
      <point x="180.667" y="41"/>
      <point x="213.333" y="41" type="curve" smooth="yes" name="n43"/>
      <point x="288" y="41"/>
      <point x="361.667" y="184"/>
    </contour>
  </outline>
</glyph>
<glyph name="uni0188" format="2">
  <advance width="462"/>
  <unicode hex="0188"/>
  <outline>
    <contour>
      <point x="547.333" y="555.333" type="curve" smooth="yes"/>
      <point x="547.333" y="519"/>
      <point x="514.667" y="507.667"/>
      <point x="495.333" y="503.667" type="curve"/>
      <point x="447" y="561.667" type="line"/>
      <point x="427" y="559"/>
      <point x="410.667" y="525.333"/>
      <point x="400.667" y="473.667" type="curve"/>
      <point x="423.333" y="463.667"/>
      <point x="430.333" y="439"/>
      <point x="430.333" y="426" type="curve" smooth="yes"/>
      <point x="430.333" y="400.667"/>
      <point x="424" y="358.333"/>
      <point x="338.667" y="355.667" type="curve"/>
      <point x="286.333" y="430.667" type="line"/>
      <point x="249" y="430.333"/>
      <point x="215.333" y="396.667"/>
      <point x="195" y="362.333" type="curve" smooth="yes"/>
      <point x="164.667" y="308.333"/>
      <point x="154.333" y="235.333"/>
      <point x="154.333" y="188.667" type="curve" smooth="yes" name="n20"/>
      <point x="154.333" y="125.667"/>
      <point x="166" y="59.6667"/>
      <point x="229.333" y="59.6667" type="curve" smooth="yes" name="n23"/>
      <point x="280.333" y="59.6667"/>
      <point x="330.333" y="88.3333"/>
      <point x="408.667" y="179.667" type="curve"/>
      <point x="409.333" y="98.6667" type="line"/>
      <point x="353.667" y="32"/>
      <point x="291.667" y="-12"/>
      <point x="199.333" y="-12" type="curve" smooth="yes" name="n30"/>
      <point x="87.6667" y="-12"/>
      <point x="32" y="61"/>
      <point x="32" y="177.333" type="curve" smooth="yes" name="n33"/>
      <point x="32" y="353"/>
      <point x="170.333" y="501.333" name="n35"/>
      <point x="305" y="498" type="curve"/>
      <point x="310.333" y="497.333"/>
      <point x="327.333" y="495.667"/>
      <point x="332.333" y="495.333" type="curve"/>
      <point x="355.333" y="562"/>
      <point x="385.333" y="607" name="n41"/>
      <point x="468.333" y="607" type="curve" smooth="yes"/>
      <point x="521.667" y="607"/>
      <point x="547.333" y="585.333"/>
    </contour>
  </outline>
</glyph>
<glyph name="uni0191" format="2">
  <advance width="542"/>
  <unicode hex="0191"/>
  <outline>
    <contour>
      <point x="597.667" y="671" type="line" name="n00"/>
      <point x="565.333" y="504.667" type="line"/>
      <point x="490" y="504.667" type="line"/>
      <point x="490" y="599.333" type="line" smooth="yes"/>
      <point x="490" y="610.667"/>
      <point x="480.333" y="614.333"/>
      <point x="468" y="614.333" type="curve" smooth="yes" name="n06"/>
      <point x="302.333" y="614.333" type="line"/>
      <point x="254.667" y="367.333" type="line" name="n08"/>
      <point x="368" y="367.333" type="line" smooth="yes"/>
      <point x="379.333" y="367.333"/>
      <point x="391.667" y="371.667"/>
      <point x="394.667" y="383" type="curve" smooth="yes"/>
      <point x="414.333" y="453.667" type="line"/>
      <point x="482.667" y="453.667" type="line"/>
      <point x="437.333" y="220.333" type="line"/>
      <point x="368.333" y="220.333" type="line"/>
      <point x="379" y="293.667" type="line" smooth="yes"/>
      <point x="380.333" y="304"/>
      <point x="368.333" y="309.667"/>
      <point x="357" y="309.667" type="curve" smooth="yes"/>
      <point x="243.333" y="309.667" type="line" name="n21"/>
      <point x="176.333" y="-30.6667" type="line" smooth="yes"/>
      <point x="151" y="-161"/>
      <point x="58.6667" y="-229" name="n24"/>
      <point x="-103" y="-229" type="curve" smooth="yes"/>
      <point x="-150.333" y="-229"/>
      <point x="-191" y="-197.333"/>
      <point x="-191" y="-157.333" type="curve" smooth="yes"/>
      <point x="-191" y="-115.333"/>
      <point x="-152.333" y="-76.3333"/>
      <point x="-111" y="-76.3333" type="curve"/>
      <point x="-45.6667" y="-164" type="line"/>
      <point x="-34" y="-161.333"/>
      <point x="-10.3333" y="-157.667"/>
      <point x="0" y="-148" type="curve"/>
      <point x="18.3333" y="-132.667"/>
      <point x="36" y="-89.3333"/>
      <point x="48.3333" y="-26" type="curve" smooth="yes"/>
      <point x="171" y="602" type="line" smooth="yes"/>
      <point x="173" y="613.667"/>
      <point x="165.667" y="617.667"/>
      <point x="151.667" y="618.667" type="curve"/>
      <point x="151.667" y="618.667"/>
      <point x="117.431" y="621.271"/>
      <point x="95" y="623.667" type="curve"/>
      <point x="95" y="671" type="line"/>
    </contour>
  </outline>
</glyph>
<glyph name="uni0195" format="2">
  <advance width="868"/>
  <unicode hex="0195"/>
  <outline>
    <contour>
      <point x="337" y="163.333" type="curve" smooth="yes"/>
      <point x="376" y="348.667" type="line" smooth="yes"/>
      <point x="386.333" y="398.333"/>
      <point x="355.667" y="425.333"/>
      <point x="335" y="425.333" type="curve" smooth="yes" name="n04"/>
      <point x="304.333" y="425.333"/>
      <point x="251.667" y="393.333"/>
      <point x="209.667" y="350" type="curve"/>
      <point x="136.667" y="0" type="line" name="n08"/>
      <point x="17.3333" y="0" type="line"/>
      <point x="155.333" y="663.333" type="line"/>
      <point x="67" y="671.667" type="line"/>
      <point x="67" y="705.667" type="line"/>
      <point x="231.667" y="737" type="line" name="n13"/>
      <point x="291" y="737" type="line"/>
      <point x="228.667" y="440.667" type="line"/>
      <point x="269" y="472.333"/>
      <point x="328.333" y="498"/>
      <point x="390" y="498" type="curve" smooth="yes" name="n18"/>
      <point x="481" y="498"/>
      <point x="516.667" y="444.333"/>
      <point x="498.333" y="359" type="curve" smooth="yes"/>
      <point x="456" y="158" type="line" smooth="yes"/>
      <point x="439.667" y="82.6667"/>
      <point x="468" y="56" name="hr01"/>
      <point x="503.333" y="56" type="curve" smooth="yes" name="n25"/>
      <point x="540" y="56"/>
      <point x="603" y="79.3333"/>
      <point x="619.333" y="157.667" type="curve" smooth="yes"/>
      <point x="687.667" y="486" type="line"/>
      <point x="807.333" y="486" type="line"/>
      <point x="742" y="175.667" type="line" smooth="yes"/>
      <point x="720.333" y="74"/>
      <point x="615.333" y="-14.6667"/>
      <point x="475" y="-14.6667" type="curve" smooth="yes" name="n34"/>
      <point x="356" y="-14.6667"/>
      <point x="314" y="52.6667"/>
    </contour>
  </outline>
</glyph>
<glyph name="uni0197" format="2">
  <advance width="341"/>
  <unicode hex="0197"/>
  <outline>
    <contour>
      <point x="384" y="623.667" type="line"/>
      <point x="316.667" y="618.667" type="line" smooth="yes"/>
      <point x="305.667" y="617.667"/>
      <point x="302.333" y="611.667"/>
      <point x="300" y="601.333" type="curve"/>
      <point x="258.667" y="386.667" type="line"/>
      <point x="363.667" y="386.667" type="line" name="n06"/>
      <point x="355" y="330.667" type="line" name="n07"/>
      <point x="247.333" y="330.667" type="line"/>
      <point x="196" y="68.6667" type="line" smooth="yes"/>
      <point x="194" y="58"/>
      <point x="198" y="53.3333"/>
      <point x="212.667" y="52.3333" type="curve"/>
      <point x="212.667" y="52.3333"/>
      <point x="247.751" y="49.7571"/>
      <point x="274" y="47.3333" type="curve"/>
      <point x="274" y="0" type="line"/>
      <point x="-15" y="0" type="line"/>
      <point x="-15" y="47.3333" type="line"/>
      <point x="9.49476" y="49.0763"/>
      <point x="45.3333" y="51.6667"/>
      <point x="45.3333" y="51.6667" type="curve"/>
      <point x="59.3333" y="52.6667"/>
      <point x="65" y="56"/>
      <point x="67" y="69.3333" type="curve"/>
      <point x="118.333" y="330.667" type="line"/>
      <point x="31" y="330.667" type="line"/>
      <point x="39.6667" y="386.667" type="line"/>
      <point x="129.667" y="386.667" type="line"/>
      <point x="171" y="602" type="line"/>
      <point x="173.667" y="613.667"/>
      <point x="167" y="617.667"/>
      <point x="152.667" y="618.667" type="curve"/>
      <point x="152.667" y="618.667"/>
      <point x="118.431" y="621.271"/>
      <point x="96" y="623.667" type="curve"/>
      <point x="96" y="671" type="line"/>
      <point x="384" y="671" type="line"/>
    </contour>
  </outline>
</glyph>
<glyph name="uni019C" format="2">
  <advance width="1096"/>
  <unicode hex="019C"/>
  <outline>
    <contour>
      <point x="304.667" y="596" type="curve"/>
      <point x="229.667" y="219.333" type="line" smooth="yes"/>
      <point x="212" y="129"/>
      <point x="268.667" y="73"/>
      <point x="339.667" y="73" type="curve" smooth="yes"/>
      <point x="377" y="73"/>
      <point x="428.667" y="97.6667"/>
      <point x="468" y="116.333" type="curve"/>
      <point x="465" y="140.667"/>
      <point x="466.667" y="168.667"/>
      <point x="472.667" y="199.333" type="curve" smooth="yes"/>
      <point x="551.667" y="596" type="line"/>
      <point x="553.667" y="608"/>
      <point x="546.001" y="617.011"/>
      <point x="534" y="618" type="curve" smooth="yes" name="n14"/>
      <point x="480.667" y="622.667" type="line"/>
      <point x="480.667" y="671" type="line" name="n16"/>
      <point x="762.667" y="671" type="line"/>
      <point x="762.667" y="622.667" type="line"/>
      <point x="706.333" y="618" type="line" smooth="yes"/>
      <point x="693.667" y="617"/>
      <point x="682.667" y="608"/>
      <point x="680.667" y="596" type="curve"/>
      <point x="605.667" y="219.333" type="line" smooth="yes"/>
      <point x="588" y="128.333"/>
      <point x="618.333" y="73"/>
      <point x="689.333" y="73" type="curve" smooth="yes" name="n26"/>
      <point x="746.333" y="73"/>
      <point x="786.667" y="107"/>
      <point x="837" y="140.667" type="curve"/>
      <point x="927.667" y="596" type="line"/>
      <point x="929.667" y="608"/>
      <point x="922" y="617"/>
      <point x="910" y="618" type="curve" smooth="yes"/>
      <point x="856.667" y="622.667" type="line"/>
      <point x="856.667" y="671" type="line"/>
      <point x="1138.67" y="671" type="line"/>
      <point x="1138.67" y="622.667" type="line"/>
      <point x="1082.33" y="618" type="line" smooth="yes"/>
      <point x="1069.67" y="617"/>
      <point x="1058.67" y="608"/>
      <point x="1056.67" y="596" type="curve"/>
      <point x="952" y="69" type="line" smooth="yes"/>
      <point x="950" y="59.6667"/>
      <point x="953.333" y="54.3333"/>
      <point x="963.667" y="53.3333" type="curve"/>
      <point x="963.667" y="53.3333"/>
      <point x="1004.32" y="50.0127"/>
      <point x="1026.33" y="48.3333" type="curve"/>
      <point x="1026.33" y="0" type="line" name="n49"/>
      <point x="809" y="0" type="line"/>
      <point x="822.667" y="64.3333" type="line"/>
      <point x="747" y="11.6667"/>
      <point x="717.333" y="-16" name="hr02"/>
      <point x="632" y="-16" type="curve" smooth="yes" name="n54"/>
      <point x="558.333" y="-16"/>
      <point x="511.667" y="13.3333"/>
      <point x="487.667" y="57" type="curve"/>
      <point x="422" y="15.6667"/>
      <point x="360" y="-16"/>
      <point x="283" y="-16" type="curve" smooth="yes"/>
      <point x="170.333" y="-16"/>
      <point x="92" y="47.3333"/>
      <point x="92" y="152.333" type="curve" smooth="yes"/>
      <point x="92" y="167.333"/>
      <point x="93.6667" y="183"/>
      <point x="97" y="199.333" type="curve" smooth="yes"/>
      <point x="175.667" y="596" type="line"/>
      <point x="177.667" y="608"/>
      <point x="170" y="617"/>
      <point x="158" y="618" type="curve" smooth="yes"/>
      <point x="104.667" y="622.667" type="line"/>
      <point x="104.667" y="671" type="line"/>
      <point x="386.667" y="671" type="line"/>
      <point x="386.667" y="622.667" type="line"/>
      <point x="330.333" y="618" type="line" smooth="yes"/>
      <point x="317.667" y="617"/>
      <point x="306.667" y="608"/>
    </contour>
  </outline>
</glyph>
<glyph name="uni019D" format="2">
  <advance width="764"/>
  <unicode hex="019D"/>
  <outline>
    <contour>
      <point x="276.667" y="487" type="line"/>
      <point x="180" y="-4.66667" type="line" smooth="yes"/>
      <point x="158" y="-118.667"/>
      <point x="86.6667" y="-229" name="n03"/>
      <point x="-41.3333" y="-229" type="curve" smooth="yes"/>
      <point x="-110.667" y="-229"/>
      <point x="-140" y="-196"/>
      <point x="-140" y="-162" type="curve" smooth="yes"/>
      <point x="-140" y="-126"/>
      <point x="-104.667" y="-93.3333"/>
      <point x="-71" y="-86.3333" type="curve"/>
      <point x="-2.33333" y="-157.333" type="line"/>
      <point x="41.6667" y="-147"/>
      <point x="64.3333" y="-75.6667"/>
      <point x="79.3333" y="0.333333" type="curve" smooth="yes"/>
      <point x="195.667" y="602" type="line"/>
      <point x="198.333" y="613.667"/>
      <point x="191.667" y="617.667"/>
      <point x="177.333" y="618.667" type="curve" name="n18"/>
      <point x="177.333" y="618.667"/>
      <point x="144.178" y="621.257"/>
      <point x="121" y="623.667" type="curve"/>
      <point x="121" y="671" type="line" name="n22"/>
      <point x="342" y="671" type="line"/>
      <point x="342" y="641.667" type="line"/>
      <point x="547" y="211.333" type="line"/>
      <point x="624" y="602" type="line"/>
      <point x="626.667" y="613.667"/>
      <point x="618.667" y="617.667"/>
      <point x="605" y="618.667" type="curve"/>
      <point x="605" y="618.667"/>
      <point x="570.51" y="621.271"/>
      <point x="548" y="623.667" type="curve"/>
      <point x="548" y="671" type="line"/>
      <point x="807.667" y="671" type="line"/>
      <point x="807.667" y="623.667" type="line"/>
      <point x="745.667" y="618" type="line" smooth="yes"/>
      <point x="735.333" y="617"/>
      <point x="728" y="611.667"/>
      <point x="725.667" y="601.333" type="curve"/>
      <point x="607.333" y="0" type="line" name="n40"/>
      <point x="509.333" y="0" type="line"/>
    </contour>
  </outline>
</glyph>
<glyph name="ohorn" format="2">
  <advance width="633"/>
  <unicode hex="01A1"/>
  <outline>
    <contour>
      <point x="628.333" y="491" type="curve" smooth="yes" name="n00"/>
      <point x="628.333" y="421"/>
      <point x="579.667" y="341.333"/>
      <point x="506.333" y="308.333" type="curve" name="hr01"/>
      <point x="506.333" y="302" type="line" smooth="yes" name="n04"/>
      <point x="506.333" y="143.333"/>
      <point x="397" y="-12"/>
      <point x="224.333" y="-12" type="curve" smooth="yes" name="n07"/>
      <point x="96.3333" y="-12"/>
      <point x="31.6667" y="67"/>
      <point x="31.6667" y="179.667" type="curve" smooth="yes" name="n10"/>
      <point x="31.6667" y="338.333"/>
      <point x="136.333" y="498"/>
      <point x="312" y="498" type="curve" smooth="yes" name="n13"/>
      <point x="406.333" y="498"/>
      <point x="477.667" y="454"/>
      <point x="499.333" y="365" type="curve"/>
      <point x="528.333" y="388.667"/>
      <point x="547.667" y="424"/>
      <point x="551" y="452.667" type="curve" name="n19"/>
      <point x="485.667" y="452.667" type="line"/>
      <point x="485.667" y="452.667"/>
      <point x="468.333" y="474.333"/>
      <point x="468.333" y="502" type="curve" smooth="yes" name="n23"/>
      <point x="468.333" y="544.667"/>
      <point x="500" y="578.667"/>
      <point x="545.667" y="578.667" type="curve" smooth="yes" name="n26"/>
      <point x="591.667" y="578.667"/>
      <point x="628.333" y="541"/>
    </contour>
    <contour>
      <point x="376.667" y="306" type="curve" smooth="yes" name="n29"/>
      <point x="376.667" y="403" name="hr03"/>
      <point x="334.667" y="448.333"/>
      <point x="301" y="448.333" type="curve" smooth="yes" name="n32"/>
      <point x="231.333" y="448.333"/>
      <point x="160.667" y="317.333"/>
      <point x="160.667" y="184" type="curve" smooth="yes" name="n35"/>
      <point x="160.667" y="82.3333"/>
      <point x="204.333" y="39.6667"/>
      <point x="236.333" y="39.6667" type="curve" smooth="yes" name="n38"/>
      <point x="314.667" y="39.6667"/>
      <point x="376.667" y="184.667"/>
    </contour>
  </outline>
</glyph>
<glyph name="uni01A2" format="2">
  <advance width="1007"/>
  <unicode hex="01A2"/>
  <outline>
    <contour>
      <point x="883.333" y="-170.667" type="line"/>
      <point x="883.333" y="-218" type="line"/>
      <point x="593.667" y="-218" type="line"/>
      <point x="593.667" y="-170.667" type="line"/>
      <point x="654" y="-166.333" type="line" smooth="yes"/>
      <point x="668.667" y="-165.333"/>
      <point x="673.667" y="-160"/>
      <point x="675.667" y="-150" type="curve" smooth="yes"/>
      <point x="814" y="555.333" type="line"/>
      <point x="772.667" y="545.333"/>
      <point x="708.667" y="548.667"/>
      <point x="676.333" y="552.667" type="curve"/>
      <point x="601.667" y="161" type="line" smooth="yes"/>
      <point x="583.667" y="65"/>
      <point x="478.333" y="-16"/>
      <point x="334" y="-16" type="curve" smooth="yes" name="n15"/>
      <point x="155" y="-16"/>
      <point x="48" y="100.667"/>
      <point x="48" y="262.667" type="curve" smooth="yes" name="n18"/>
      <point x="48" y="483"/>
      <point x="212" y="687"/>
      <point x="448" y="687" type="curve" smooth="yes" name="n21"/>
      <point x="628.333" y="687"/>
      <point x="650" y="646"/>
      <point x="748.333" y="646" type="curve" smooth="yes"/>
      <point x="800" y="646"/>
      <point x="851.667" y="658"/>
      <point x="890.667" y="687" type="curve"/>
      <point x="966.667" y="687" type="line"/>
      <point x="805.333" y="-149.333" type="line"/>
      <point x="802.667" y="-161.333"/>
      <point x="808.667" y="-164.667"/>
      <point x="823.333" y="-165.667" type="curve" smooth="yes"/>
    </contour>
    <contour>
      <point x="473" y="178" type="curve" smooth="yes"/>
      <point x="551" y="590.333" type="line"/>
      <point x="510" y="618"/>
      <point x="476" y="626.667"/>
      <point x="435.333" y="626.667" type="curve" smooth="yes" name="n37"/>
      <point x="284" y="626.667"/>
      <point x="189" y="424.667"/>
      <point x="189" y="254.667" type="curve" smooth="yes" name="n40"/>
      <point x="189" y="125.333"/>
      <point x="259" y="42.6667"/>
      <point x="341" y="42.6667" type="curve" smooth="yes" name="n43"/>
      <point x="416" y="42.6667"/>
      <point x="452.667" y="70"/>
    </contour>
  </outline>
</glyph>
<glyph name="uni01A5" format="2">
  <advance width="525"/>
  <unicode hex="01A5"/>
  <outline>
    <contour>
      <point x="537" y="636.667" type="curve" smooth="yes"/>
      <point x="537" y="603.667"/>
      <point x="494.667" y="576.333"/>
      <point x="462" y="576.333" type="curve" smooth="yes" name="n03"/>
      <point x="442.667" y="576.333"/>
      <point x="426.333" y="584"/>
      <point x="426.333" y="584" type="curve"/>
      <point x="408.667" y="668" type="line"/>
      <point x="400" y="676.667"/>
      <point x="385.333" y="678.667" name="hr01"/>
      <point x="372" y="678.667" type="curve" smooth="yes" name="n10"/>
      <point x="324.667" y="678.667"/>
      <point x="254.333" y="630.333"/>
      <point x="233" y="519" type="curve" smooth="yes"/>
      <point x="219.667" y="452.667" type="line"/>
      <point x="245" y="468"/>
      <point x="293.667" y="498"/>
      <point x="347.667" y="498" type="curve" smooth="yes" name="n17"/>
      <point x="451.333" y="498"/>
      <point x="493.333" y="400.667"/>
      <point x="493.333" y="310.333" type="curve" smooth="yes" name="n20"/>
      <point x="493.333" y="149"/>
      <point x="373" y="-12"/>
      <point x="192" y="-12" type="curve" smooth="yes" name="n23"/>
      <point x="166" y="-12"/>
      <point x="145" y="-5.66667"/>
      <point x="131" y="-0.666667" type="curve"/>
      <point x="100.333" y="-153" type="line" smooth="yes"/>
      <point x="98.3333" y="-162.667"/>
      <point x="103.667" y="-169.667"/>
      <point x="117" y="-170.333" type="curve"/>
      <point x="184" y="-176" type="line"/>
      <point x="184" y="-218.667" type="line"/>
      <point x="-96" y="-218.667" type="line"/>
      <point x="-96" y="-176" type="line"/>
      <point x="-78.9635" y="-174.375"/>
      <point x="-38.6667" y="-171"/>
      <point x="-38.6667" y="-171" type="curve"/>
      <point x="-27.6667" y="-170"/>
      <point x="-21.3333" y="-163.333"/>
      <point x="-19.3333" y="-153" type="curve" smooth="yes"/>
      <point x="115.333" y="540" type="line" smooth="yes"/>
      <point x="133.667" y="632.333"/>
      <point x="223.667" y="737"/>
      <point x="377" y="737" type="curve" smooth="yes" name="n44"/>
      <point x="480.333" y="737"/>
      <point x="537" y="704"/>
    </contour>
    <contour>
      <point x="367" y="306.333" type="curve" smooth="yes" name="n47"/>
      <point x="367" y="363.333"/>
      <point x="354.333" y="431"/>
      <point x="301" y="431" type="curve" smooth="yes" name="n50"/>
      <point x="266.333" y="431"/>
      <point x="221.333" y="390.333"/>
      <point x="204.667" y="375.667" type="curve"/>
      <point x="144" y="67" type="line"/>
      <point x="158.667" y="58"/>
      <point x="187.667" y="39"/>
      <point x="211.333" y="39" type="curve" smooth="yes" name="n57"/>
      <point x="303.667" y="39"/>
      <point x="367" y="191.333"/>
    </contour>
  </outline>
</glyph>
<glyph name="uni01A7" format="2">
  <advance width="557"/>
  <unicode hex="01A7"/>
  <outline>
    <contour>
      <point x="493.333" y="203.667" type="line"/>
      <point x="463.333" y="39.3333" type="line"/>
      <point x="428.333" y="18.3333"/>
      <point x="357" y="-16"/>
      <point x="261.333" y="-16" type="curve" smooth="yes" name="n04"/>
      <point x="90.3333" y="-16"/>
      <point x="20" y="53"/>
      <point x="20" y="141.333" type="curve" smooth="yes" name="n07"/>
      <point x="20" y="262.333"/>
      <point x="115.333" y="324"/>
      <point x="256" y="389.667" type="curve" smooth="yes"/>
      <point x="360.333" y="438"/>
      <point x="406.667" y="479.333"/>
      <point x="406.667" y="546.667" type="curve" smooth="yes" name="n13"/>
      <point x="406.667" y="602"/>
      <point x="369.333" y="631.333"/>
      <point x="316.333" y="631.333" type="curve" smooth="yes" name="n16"/>
      <point x="265.333" y="631.333"/>
      <point x="216" y="607.333"/>
      <point x="213.667" y="593" type="curve"/>
      <point x="177" y="493.333" type="line"/>
      <point x="106" y="493.333" type="line"/>
      <point x="134.333" y="648.333" type="line"/>
      <point x="183.333" y="667.333"/>
      <point x="239.667" y="687"/>
      <point x="328.333" y="687" type="curve" smooth="yes" name="n25"/>
      <point x="450.333" y="687"/>
      <point x="537.333" y="645"/>
      <point x="537.333" y="549" type="curve" smooth="yes" name="n28"/>
      <point x="537.333" y="431.333"/>
      <point x="437.667" y="356.333"/>
      <point x="339.667" y="304.333" type="curve" smooth="yes"/>
      <point x="253" y="258.333"/>
      <point x="149" y="229.667"/>
      <point x="149" y="137" type="curve" smooth="yes" name="n34"/>
      <point x="149" y="75.6667"/>
      <point x="196.667" y="42.6667"/>
      <point x="254.667" y="42.6667" type="curve" smooth="yes" name="n37"/>
      <point x="317.667" y="42.6667"/>
      <point x="373.667" y="71.3333"/>
      <point x="378.667" y="88.6667" type="curve" smooth="yes"/>
      <point x="413.667" y="203.667" type="line"/>
    </contour>
  </outline>
</glyph>
<glyph name="uni01AA" format="2">
  <advance width="467"/>
  <unicode hex="01AA"/>
  <outline>
    <contour>
      <point x="512.667" y="-148.667" type="curve" smooth="yes"/>
      <point x="512.667" y="-189"/>
      <point x="460.667" y="-218" name="n02"/>
      <point x="396.333" y="-218" type="curve" smooth="yes"/>
      <point x="275.667" y="-218"/>
      <point x="222" y="-141.667"/>
      <point x="222" y="-51" type="curve" smooth="yes" name="n06"/>
      <point x="222" y="-36"/>
      <point x="224" y="-20.3333"/>
      <point x="227" y="-4.33333" type="curve" smooth="yes"/>
      <point x="289.333" y="321.667" type="line"/>
      <point x="264.667" y="312.667"/>
      <point x="237" y="307.333"/>
      <point x="206.333" y="307.333" type="curve" smooth="yes" name="n13"/>
      <point x="94.6667" y="307.333"/>
      <point x="39" y="371.667"/>
      <point x="39" y="457" type="curve" smooth="yes" name="n16"/>
      <point x="39" y="558.667"/>
      <point x="117.667" y="688"/>
      <point x="277.333" y="688" type="curve" smooth="yes" name="n19"/>
      <point x="395" y="688"/>
      <point x="444.667" y="617.667" name="hr01"/>
      <point x="444.667" y="534.333" type="curve" smooth="yes" name="n22"/>
      <point x="444.667" y="522.333"/>
      <point x="443.667" y="509.333"/>
      <point x="440.667" y="497" type="curve"/>
      <point x="342.667" y="-7" type="line" smooth="yes"/>
      <point x="335.667" y="-44.3333"/>
      <point x="333.333" y="-74" name="hr02"/>
      <point x="333.333" y="-95.3333" type="curve" smooth="yes" name="n29"/>
      <point x="333.333" y="-122.333"/>
      <point x="351.333" y="-144.667"/>
      <point x="369.333" y="-148.667" type="curve"/>
      <point x="450.333" y="-82.3333" type="line"/>
      <point x="488.667" y="-82.3333"/>
      <point x="512.667" y="-107.667"/>
    </contour>
    <contour>
      <point x="328" y="539.333" type="curve" smooth="yes" name="n36"/>
      <point x="328" y="600.667" name="hr03"/>
      <point x="312.333" y="630.667"/>
      <point x="269.333" y="630.667" type="curve" smooth="yes" name="n39"/>
      <point x="187.333" y="630.667"/>
      <point x="154.667" y="527"/>
      <point x="154.667" y="455" type="curve" smooth="yes" name="n42"/>
      <point x="154.667" y="392.333"/>
      <point x="175.333" y="364.667"/>
      <point x="214.333" y="364.667" type="curve" smooth="yes" name="n45"/>
      <point x="295.333" y="364.667"/>
      <point x="328" y="463.333"/>
    </contour>
  </outline>
</glyph>
<glyph name="uni01B2" format="2">
  <advance width="731"/>
  <unicode hex="01B2"/>
  <outline>
    <contour>
      <point x="708" y="449.333" type="curve" smooth="yes" name="n00"/>
      <point x="708" y="195.667"/>
      <point x="551" y="-14"/>
      <point x="292" y="-14" type="curve" smooth="yes" name="n03"/>
      <point x="168.667" y="-14"/>
      <point x="79" y="47.6667"/>
      <point x="79" y="162" type="curve" smooth="yes" name="n06"/>
      <point x="79" y="172.333"/>
      <point x="85" y="213.333"/>
      <point x="96" y="265.333" type="curve" smooth="yes"/>
      <point x="163.667" y="595.333" type="line" smooth="yes"/>
      <point x="167" y="611.667"/>
      <point x="163.667" y="617.667"/>
      <point x="143.333" y="619.333" type="curve"/>
      <point x="143.333" y="619.333"/>
      <point x="110.149" y="621.94"/>
      <point x="89" y="623.667" type="curve"/>
      <point x="89" y="671" type="line" name="n17"/>
      <point x="308.667" y="671" type="line"/>
      <point x="225" y="264.667" type="line"/>
      <point x="217" y="229.333"/>
      <point x="214" y="198.667"/>
      <point x="214" y="196.333" type="curve" smooth="yes" name="n22"/>
      <point x="214" y="104"/>
      <point x="279.333" y="69.6667"/>
      <point x="338" y="69.6667" type="curve" smooth="yes" name="n25"/>
      <point x="486" y="69.6667"/>
      <point x="613.667" y="259.667"/>
      <point x="613.667" y="413.333" type="curve" smooth="yes" name="n28"/>
      <point x="613.667" y="485.667"/>
      <point x="597.667" y="534.333"/>
      <point x="583" y="551" type="curve" name="n31"/>
      <point x="480" y="551" type="line"/>
      <point x="480" y="551"/>
      <point x="453" y="582.333"/>
      <point x="453" y="608.333" type="curve" smooth="yes"/>
      <point x="453" y="654.333"/>
      <point x="495.667" y="687"/>
      <point x="549" y="687" type="curve" smooth="yes" name="n38"/>
      <point x="652.333" y="687"/>
      <point x="708" y="544"/>
    </contour>
  </outline>
</glyph>
<glyph name="uni01B3.RtHook" format="2">
  <advance width="667"/>
  <unicode hex="01B3"/>
  <outline>
    <contour>
      <point x="838" y="682.333" type="curve" smooth="yes"/>
      <point x="838" y="643.333"/>
      <point x="807" y="615.667"/>
      <point x="753.667" y="600.667" type="curve"/>
      <point x="673.667" y="681.667" type="line"/>
      <point x="650.333" y="677.667"/>
      <point x="636.333" y="657"/>
      <point x="599" y="595.333" type="curve" smooth="yes"/>
      <point x="402" y="271.667" type="line"/>
      <point x="361" y="68.6667" type="line"/>
      <point x="358" y="57.3333"/>
      <point x="364.333" y="53.3333"/>
      <point x="379.333" y="52.3333" type="curve"/>
      <point x="379.333" y="52.3333"/>
      <point x="412.74" y="49.7434"/>
      <point x="436" y="47.3333" type="curve"/>
      <point x="436" y="0" type="line" name="n16"/>
      <point x="148" y="0" type="line"/>
      <point x="148" y="47.3333" type="line"/>
      <point x="170.589" y="49.7289"/>
      <point x="205.333" y="52.3333"/>
      <point x="205.333" y="52.3333" type="curve"/>
      <point x="218" y="53.3333"/>
      <point x="227" y="56.6667"/>
      <point x="230" y="69.3333" type="curve"/>
      <point x="271" y="272.667" type="line"/>
      <point x="159" y="606.667" type="line"/>
      <point x="155.667" y="618.333"/>
      <point x="146.333" y="618.667"/>
      <point x="136" y="619.667" type="curve"/>
      <point x="136" y="619.667"/>
      <point x="103.629" y="622.026"/>
      <point x="84" y="623.667" type="curve"/>
      <point x="84" y="671" type="line"/>
      <point x="371" y="671" type="line"/>
      <point x="371" y="623.667" type="line"/>
      <point x="345.838" y="622.011"/>
      <point x="308.333" y="619.667"/>
      <point x="308.333" y="619.667" type="curve"/>
      <point x="297.333" y="619.333"/>
      <point x="288.333" y="614.667"/>
      <point x="293" y="602.333" type="curve"/>
      <point x="365" y="375.667" type="line"/>
      <point x="534" y="654" type="line" smooth="yes"/>
      <point x="571.333" y="716"/>
      <point x="629.333" y="753" name="n45"/>
      <point x="727" y="753" type="curve" smooth="yes"/>
      <point x="787" y="753"/>
      <point x="838" y="713.667"/>
    </contour>
  </outline>
</glyph>
<glyph name="uni01BB" format="2">
  <advance width="576"/>
  <unicode hex="01BB"/>
  <outline>
    <contour>
      <point x="560.667" y="398.667" type="curve" name="n00"/>
      <point x="559.412" y="365.976"/>
      <point x="539.524" y="314.795"/>
      <point x="515.667" y="284.333" type="curve"/>
      <point x="432.333" y="284.333" type="line" name="n04"/>
      <point x="385.851" y="246.967"/>
      <point x="325.62" y="199.806"/>
      <point x="261" y="159" type="curve" name="n07"/>
      <point x="401" y="159" type="line"/>
      <point x="381.585" y="148.68"/>
      <point x="369.561" y="169.344"/>
      <point x="345.667" y="159.667" type="curve"/>
      <point x="482" y="159.667" type="line" name="n12"/>
      <point x="467" y="57" type="line" name="n13"/>
      <point x="151.333" y="57" type="line"/>
      <point x="152" y="55.3333" type="line" name="n15"/>
      <point x="171.053" y="80.6667"/>
      <point x="137.424" y="124"/>
      <point x="170.333" y="178.667" type="curve"/>
      <point x="38.6667" y="201.667" type="line"/>
      <point x="75.7657" y="235.693"/>
      <point x="109.847" y="284.325"/>
      <point x="132.667" y="308.333" type="curve"/>
      <point x="229.333" y="308.333" type="line"/>
      <point x="257.996" y="342.372"/>
      <point x="281.77" y="388.133"/>
      <point x="289" y="425.667" type="curve"/>
      <point x="318.473" y="478.333"/>
      <point x="348.501" y="516.333"/>
      <point x="316" y="516.333" type="curve"/>
      <point x="321.333" y="539.667"/>
      <point x="327.667" y="559"/>
      <point x="311.667" y="578.333" type="curve" smooth="yes" name="n32"/>
      <point x="307.792" y="582.96"/>
      <point x="283.444" y="539.887"/>
      <point x="258.667" y="522.667" type="curve" name="n35"/>
      <point x="244.333" y="522.667"/>
      <point x="205.667" y="503.667"/>
      <point x="182.333" y="502.333" type="curve"/>
      <point x="148.296" y="494.831"/>
      <point x="130.59" y="494.543"/>
      <point x="135.333" y="517" type="curve" smooth="yes"/>
      <point x="151.333" y="600.667"/>
      <point x="253.667" y="615"/>
      <point x="301" y="615" type="curve" smooth="yes"/>
      <point x="381.333" y="615"/>
      <point x="426.667" y="567.333"/>
      <point x="410.667" y="500.667" type="curve"/>
      <point x="403.333" y="488.667"/>
      <point x="419.667" y="481.667"/>
      <point x="427.333" y="449" type="curve" name="n50"/>
      <point x="472.024" y="449"/>
      <point x="545.449" y="435.667"/>
    </contour>
  </outline>
</glyph>
<glyph name="uni01C9" format="2">
  <advance width="595"/>
  <unicode hex="01C9"/>
  <outline>
    <contour>
      <point x="290.333" y="28" type="line"/>
      <point x="253" y="9.33333"/>
      <point x="187.667" y="-12"/>
      <point x="137.333" y="-12" type="curve" smooth="yes" name="n03"/>
      <point x="73" y="-12"/>
      <point x="39" y="18"/>
      <point x="39" y="63" type="curve" smooth="yes"/>
      <point x="39" y="73.6667"/>
      <point x="40" y="85.6667"/>
      <point x="42.6667" y="98.6667" type="curve" smooth="yes"/>
      <point x="152" y="663.333" type="line"/>
      <point x="63.6667" y="671.667" type="line"/>
      <point x="63.6667" y="705.667" type="line"/>
      <point x="228.333" y="737" type="line" name="n13"/>
      <point x="285.333" y="737" type="line"/>
      <point x="162.667" y="101" type="line" smooth="yes"/>
      <point x="158.333" y="76.6667"/>
      <point x="169.333" y="50"/>
      <point x="195.333" y="50" type="curve" smooth="yes" name="n18"/>
      <point x="212.333" y="50"/>
      <point x="255.333" y="61.6667"/>
      <point x="290.333" y="76.6667" type="curve"/>
    </contour>
    <contour>
      <point x="588.333" y="655.667" type="curve" smooth="yes" name="n22"/>
      <point x="588.333" y="619"/>
      <point x="556" y="585"/>
      <point x="515" y="585" type="curve" smooth="yes" name="n25"/>
      <point x="474.333" y="585"/>
      <point x="443" y="616.333"/>
      <point x="443" y="655.667" type="curve" smooth="yes" name="n28"/>
      <point x="443" y="694.333"/>
      <point x="472.333" y="726"/>
      <point x="515" y="726" type="curve" smooth="yes" name="n31"/>
      <point x="557" y="726"/>
      <point x="588.333" y="694.333"/>
    </contour>
    <contour>
      <point x="552.667" y="498" type="line" name="n34"/>
      <point x="481.667" y="82.6667" type="line" smooth="yes"/>
      <point x="463.952" y="-17.9917"/>
      <point x="380.333" y="-229" name="n37"/>
      <point x="243.667" y="-229" type="curve" smooth="yes"/>
      <point x="198.333" y="-229"/>
      <point x="163.333" y="-204.667"/>
      <point x="163.333" y="-172.667" type="curve" smooth="yes"/>
      <point x="163.333" y="-147.667"/>
      <point x="181.333" y="-133.667"/>
      <point x="200" y="-121.667" type="curve"/>
      <point x="296.667" y="-147.333" type="line"/>
      <point x="315" y="-121.667"/>
      <point x="337" y="-59"/>
      <point x="346.333" y="-8" type="curve" smooth="yes"/>
      <point x="420.667" y="423" type="line"/>
      <point x="335.333" y="432" type="line"/>
      <point x="335.333" y="465.667" type="line"/>
      <point x="496.333" y="498" type="line"/>
    </contour>
  </outline>
</glyph>
<glyph name="uni01CB" format="2">
  <advance width="1041"/>
  <unicode hex="01CB"/>
  <outline>
    <contour>
      <point x="783" y="623.667" type="line"/>
      <point x="720.667" y="618" type="line" smooth="yes"/>
      <point x="710.337" y="616.954"/>
      <point x="703.333" y="611.667"/>
      <point x="701" y="601.333" type="curve"/>
      <point x="582.333" y="0" type="line" name="n05"/>
      <point x="484.333" y="0" type="line"/>
      <point x="251" y="487" type="line"/>
      <point x="170" y="68.6667" type="line" smooth="yes"/>
      <point x="168" y="57.3333"/>
      <point x="173.333" y="53.3333"/>
      <point x="188.667" y="52.3333" type="curve"/>
      <point x="188.667" y="52.3333"/>
      <point x="221.993" y="49.7506"/>
      <point x="246" y="47.3333" type="curve"/>
      <point x="246" y="0" type="line"/>
      <point x="-14" y="0" type="line"/>
      <point x="-14" y="47.3333" type="line"/>
      <point x="9.34167" y="49.7434"/>
      <point x="43" y="52.3333"/>
      <point x="43" y="52.3333" type="curve"/>
      <point x="56.6667" y="53.3333"/>
      <point x="65" y="56.6667"/>
      <point x="68" y="69.3333" type="curve"/>
      <point x="171" y="602" type="line"/>
      <point x="173.667" y="613.667"/>
      <point x="167" y="617.667"/>
      <point x="152.667" y="618.667" type="curve" name="n27"/>
      <point x="152.667" y="618.667"/>
      <point x="119.26" y="621.257"/>
      <point x="96" y="623.667" type="curve"/>
      <point x="96" y="671" type="line" name="n31"/>
      <point x="317" y="671" type="line"/>
      <point x="317" y="641.667" type="line"/>
      <point x="522" y="211.333" type="line"/>
      <point x="599" y="602" type="line"/>
      <point x="601.667" y="613.667"/>
      <point x="593.667" y="617.667"/>
      <point x="580" y="618.667" type="curve"/>
      <point x="580" y="618.667"/>
      <point x="545.51" y="621.271"/>
      <point x="523" y="623.667" type="curve"/>
      <point x="523" y="671" type="line"/>
      <point x="783" y="671" type="line"/>
    </contour>
    <contour>
      <point x="1035" y="655.667" type="curve" smooth="yes" name="n44"/>
      <point x="1035" y="619"/>
      <point x="1002.67" y="585" name="hr01"/>
      <point x="961.667" y="585" type="curve" smooth="yes" name="n47"/>
      <point x="921" y="585"/>
      <point x="889.667" y="616.333"/>
      <point x="889.667" y="655.667" type="curve" smooth="yes" name="n50"/>
      <point x="889.667" y="694.333"/>
      <point x="919" y="726"/>
      <point x="961.667" y="726" type="curve" smooth="yes" name="n53"/>
      <point x="1003.67" y="726"/>
      <point x="1035" y="694.333"/>
    </contour>
    <contour>
      <point x="999.333" y="498" type="line" name="n56"/>
      <point x="928.333" y="82.6667" type="line" smooth="yes"/>
      <point x="910.618" y="-17.9917"/>
      <point x="827" y="-229" name="n59"/>
      <point x="690.333" y="-229" type="curve" smooth="yes"/>
      <point x="645" y="-229"/>
      <point x="610" y="-204.667"/>
      <point x="610" y="-172.667" type="curve" smooth="yes"/>
      <point x="610" y="-147.667"/>
      <point x="628" y="-133.667"/>
      <point x="646.667" y="-121.667" type="curve"/>
      <point x="743.333" y="-147.333" type="line"/>
      <point x="761.667" y="-121.667"/>
      <point x="783.667" y="-59"/>
      <point x="793" y="-8" type="curve" smooth="yes"/>
      <point x="867.333" y="423" type="line"/>
      <point x="782" y="432" type="line"/>
      <point x="782" y="465.667" type="line"/>
      <point x="943" y="498" type="line"/>
    </contour>
  </outline>
</glyph>
<glyph name="uni01D7" format="2">
  <advance width="735"/>
  <unicode hex="01D7"/>
  <outline>
    <contour>
      <point x="777" y="623.667" type="line"/>
      <point x="713.667" y="618.667" type="line" smooth="yes"/>
      <point x="703.668" y="617.655"/>
      <point x="697" y="611.667"/>
      <point x="695" y="601.333" type="curve" smooth="yes"/>
      <point x="618" y="214.667" type="line" smooth="yes"/>
      <point x="590.667" y="73.6667"/>
      <point x="500.667" y="-16"/>
      <point x="325" y="-16" type="curve" smooth="yes" name="n08"/>
      <point x="185.333" y="-16"/>
      <point x="92" y="36"/>
      <point x="92" y="161" type="curve" smooth="yes" name="n11"/>
      <point x="92" y="180.333"/>
      <point x="96" y="219.333"/>
      <point x="105" y="264.667" type="curve" smooth="yes"/>
      <point x="175" y="602" type="line"/>
      <point x="177" y="613.667"/>
      <point x="170.333" y="617.667"/>
      <point x="155" y="618.667" type="curve" name="n18"/>
      <point x="155" y="618.667"/>
      <point x="121.509" y="621.264"/>
      <point x="99" y="623.667" type="curve"/>
      <point x="99" y="671" type="line" name="n22"/>
      <point x="387" y="671" type="line"/>
      <point x="387" y="623.667" type="line"/>
      <point x="361.41" y="621.249"/>
      <point x="326" y="618.667"/>
      <point x="326" y="618.667" type="curve"/>
      <point x="314" y="617.667"/>
      <point x="306" y="613.667"/>
      <point x="304" y="601.333" type="curve"/>
      <point x="235" y="264.667" type="line" smooth="yes"/>
      <point x="227" y="226.333"/>
      <point x="224" y="194.333"/>
      <point x="224" y="176.333" type="curve" smooth="yes" name="n34"/>
      <point x="224" y="91.6667"/>
      <point x="282.333" y="55.6667"/>
      <point x="351" y="55.6667" type="curve" smooth="yes" name="n37"/>
      <point x="463.667" y="55.6667"/>
      <point x="507.333" y="140.667"/>
      <point x="529" y="249.667" type="curve" smooth="yes"/>
      <point x="599" y="602" type="line"/>
      <point x="601" y="613.667"/>
      <point x="596.333" y="617.667"/>
      <point x="579.667" y="618.667" type="curve"/>
      <point x="579.667" y="618.667"/>
      <point x="545.431" y="621.271"/>
      <point x="523" y="623.667" type="curve"/>
      <point x="523" y="671" type="line"/>
      <point x="777" y="671" type="line"/>
    </contour>
    <contour>
      <point x="645.333" y="844.667" type="curve" smooth="yes" name="n50"/>
      <point x="645.333" y="809.333"/>
      <point x="616.667" y="780"/>
      <point x="581.333" y="780" type="curve" smooth="yes" name="n53"/>
      <point x="546" y="780"/>
      <point x="517.667" y="809.333"/>
      <point x="517.667" y="844.667" type="curve" smooth="yes" name="n56"/>
      <point x="517.667" y="879.333"/>
      <point x="546.667" y="909"/>
      <point x="581.333" y="909" type="curve" smooth="yes" name="n59"/>
      <point x="616.667" y="909"/>
      <point x="645.333" y="880"/>
    </contour>
    <contour>
      <point x="436.333" y="844.667" type="curve" smooth="yes" name="n62"/>
      <point x="436.333" y="809.333"/>
      <point x="407.333" y="780"/>
      <point x="372" y="780" type="curve" smooth="yes"/>
      <point x="337" y="780"/>
      <point x="308" y="809.333"/>
      <point x="308" y="844.333" type="curve" smooth="yes" name="n68"/>
      <point x="308" y="879.333"/>
      <point x="337" y="909"/>
      <point x="372" y="909" type="curve" smooth="yes"/>
      <point x="407.333" y="909"/>
      <point x="436.333" y="880"/>
    </contour>
    <contour>
      <point x="646.667" y="1074.67" type="curve" smooth="yes"/>
      <point x="646.667" y="1059.67"/>
      <point x="635.667" y="1041.67"/>
      <point x="620.667" y="1033" type="curve" smooth="yes"/>
      <point x="464" y="941" type="line"/>
      <point x="393.333" y="941" type="line"/>
      <point x="530.667" y="1094.67" type="line" smooth="yes"/>
      <point x="549.667" y="1116.33"/>
      <point x="563.667" y="1124.33" name="n82"/>
      <point x="591.667" y="1124.33" type="curve" smooth="yes"/>
      <point x="632" y="1124.33"/>
      <point x="646.667" y="1097.33"/>
    </contour>
  </outline>
</glyph>
<glyph name="uni01DB" format="2">
  <advance width="735"/>
  <unicode hex="01DB"/>
  <outline>
    <contour>
      <point x="777" y="623.667" type="line"/>
      <point x="713.667" y="618.667" type="line" smooth="yes"/>
      <point x="703.668" y="617.655"/>
      <point x="697" y="611.667"/>
      <point x="695" y="601.333" type="curve" smooth="yes"/>
      <point x="618" y="214.667" type="line" smooth="yes"/>
      <point x="590.667" y="73.6667"/>
      <point x="500.667" y="-16"/>
      <point x="325" y="-16" type="curve" smooth="yes" name="n08"/>
      <point x="185.333" y="-16"/>
      <point x="92" y="36"/>
      <point x="92" y="161" type="curve" smooth="yes" name="n11"/>
      <point x="92" y="180.333"/>
      <point x="96" y="219.333"/>
      <point x="105" y="264.667" type="curve" smooth="yes"/>
      <point x="175" y="602" type="line"/>
      <point x="177" y="613.667"/>
      <point x="170.333" y="617.667"/>
      <point x="155" y="618.667" type="curve" name="n18"/>
      <point x="155" y="618.667"/>
      <point x="121.509" y="621.264"/>
      <point x="99" y="623.667" type="curve"/>
      <point x="99" y="671" type="line" name="n22"/>
      <point x="387" y="671" type="line"/>
      <point x="387" y="623.667" type="line"/>
      <point x="361.41" y="621.249"/>
      <point x="326" y="618.667"/>
      <point x="326" y="618.667" type="curve"/>
      <point x="314" y="617.667"/>
      <point x="306" y="613.667"/>
      <point x="304" y="601.333" type="curve"/>
      <point x="235" y="264.667" type="line" smooth="yes"/>
      <point x="227" y="226.333"/>
      <point x="224" y="194.333"/>
      <point x="224" y="176.333" type="curve" smooth="yes" name="n34"/>
      <point x="224" y="91.6667"/>
      <point x="282.333" y="55.6667"/>
      <point x="351" y="55.6667" type="curve" smooth="yes" name="n37"/>
      <point x="463.667" y="55.6667"/>
      <point x="507.333" y="140.667"/>
      <point x="529" y="249.667" type="curve" smooth="yes"/>
      <point x="599" y="602" type="line"/>
      <point x="601" y="613.667"/>
      <point x="596.333" y="617.667"/>
      <point x="579.667" y="618.667" type="curve"/>
      <point x="579.667" y="618.667"/>
      <point x="545.431" y="621.271"/>
      <point x="523" y="623.667" type="curve"/>
      <point x="523" y="671" type="line"/>
      <point x="777" y="671" type="line"/>
    </contour>
    <contour>
      <point x="645.333" y="844.667" type="curve" smooth="yes" name="n50"/>
      <point x="645.333" y="809.333"/>
      <point x="616.667" y="780"/>
      <point x="581.333" y="780" type="curve" smooth="yes" name="n53"/>
      <point x="546" y="780"/>
      <point x="517.667" y="809.333"/>
      <point x="517.667" y="844.667" type="curve" smooth="yes" name="n56"/>
      <point x="517.667" y="879.333"/>
      <point x="546.667" y="909"/>
      <point x="581.333" y="909" type="curve" smooth="yes" name="n59"/>
      <point x="616.667" y="909"/>
      <point x="645.333" y="880"/>
    </contour>
    <contour>
      <point x="436.333" y="844.667" type="curve" smooth="yes" name="n62"/>
      <point x="436.333" y="809.333"/>
      <point x="407.333" y="780"/>
      <point x="372" y="780" type="curve" smooth="yes"/>
      <point x="337" y="780"/>
      <point x="308" y="809.333"/>
      <point x="308" y="844.333" type="curve" smooth="yes" name="n68"/>
      <point x="308" y="879.333"/>
      <point x="337" y="909"/>
      <point x="372" y="909" type="curve" smooth="yes"/>
      <point x="407.333" y="909"/>
      <point x="436.333" y="880"/>
    </contour>
    <contour>
      <point x="584" y="941" type="line"/>
      <point x="516.667" y="941" type="line"/>
      <point x="360.333" y="1032.33" type="line" smooth="yes"/>
      <point x="346.333" y="1040.67"/>
      <point x="336.333" y="1059"/>
      <point x="336.333" y="1074.33" type="curve" smooth="yes"/>
      <point x="336.333" y="1097"/>
      <point x="348.667" y="1124.33" name="n81"/>
      <point x="389" y="1124.33" type="curve" smooth="yes"/>
      <point x="416.333" y="1124.33"/>
      <point x="429" y="1116"/>
      <point x="448.333" y="1094.67" type="curve" smooth="yes"/>
    </contour>
  </outline>
</glyph>
<glyph name="kcaron" format="2">
  <advance width="535"/>
  <unicode hex="01E9"/>
  <outline>
    <contour>
      <point x="524.333" y="25" type="line"/>
      <point x="491.333" y="8"/>
      <point x="428.333" y="-12"/>
      <point x="387" y="-12" type="curve" smooth="yes" name="n03"/>
      <point x="352.333" y="-12"/>
      <point x="313" y="14.3333"/>
      <point x="295.667" y="40.3333" type="curve" smooth="yes"/>
      <point x="272" y="76.6667"/>
      <point x="226.333" y="180"/>
      <point x="202.667" y="230.667" type="curve"/>
      <point x="173.333" y="204.333" type="line"/>
      <point x="131.667" y="0" type="line" name="n11"/>
      <point x="12.3333" y="0" type="line"/>
      <point x="146" y="663.333" type="line"/>
      <point x="58" y="671.667" type="line"/>
      <point x="58" y="705.667" type="line"/>
      <point x="222.333" y="737" type="line"/>
      <point x="281" y="737" type="line"/>
      <point x="194" y="308" type="line"/>
      <point x="322.667" y="440.333" type="line" smooth="yes"/>
      <point x="362.667" y="482"/>
      <point x="393.333" y="498" name="n21"/>
      <point x="431" y="498" type="curve" smooth="yes"/>
      <point x="478.667" y="498"/>
      <point x="509.667" y="467.667"/>
      <point x="509.333" y="441.333" type="curve"/>
      <point x="509.333" y="417.667"/>
      <point x="498.667" y="377.333"/>
      <point x="431.667" y="354.667" type="curve"/>
      <point x="393.667" y="410" type="line"/>
      <point x="360" y="382.667"/>
      <point x="314.333" y="337.667"/>
      <point x="287.333" y="313.667" type="curve"/>
      <point x="305.333" y="279.667"/>
      <point x="329.333" y="205"/>
      <point x="358.667" y="151" type="curve" smooth="yes"/>
      <point x="388" y="97.6667"/>
      <point x="414.667" y="48" name="hr02"/>
      <point x="449" y="48" type="curve" smooth="yes" name="n38"/>
      <point x="454.333" y="48"/>
      <point x="481.333" y="53.6667"/>
      <point x="524.333" y="71.6667" type="curve"/>
    </contour>
    <contour>
      <point x="569.667" y="936.333" type="line" name="n42"/>
      <point x="417.667" y="766" type="line"/>
      <point x="312.667" y="766" type="line"/>
      <point x="228.667" y="936.333" type="line"/>
      <point x="307.333" y="936.333" type="line"/>
      <point x="381" y="843" type="line"/>
      <point x="490.667" y="936.333" type="line"/>
    </contour>
  </outline>
</glyph>
<glyph name="uni01F6" format="2">
  <advance width="1061"/>
  <unicode hex="01F6"/>
  <outline>
    <contour>
      <point x="751" y="374" type="curve"/>
      <point x="851.333" y="434" type="line" name="n01"/>
      <point x="704" y="228.667" type="line"/>
      <point x="687.757" y="151.67"/>
      <point x="618.494" y="31.2334"/>
      <point x="500.667" y="11.3333" type="curve"/>
      <point x="402" y="8"/>
      <point x="362.667" y="58"/>
      <point x="383" y="130.333" type="curve"/>
      <point x="423" y="228" type="line"/>
      <point x="243" y="214" type="line" name="n10"/>
      <point x="123.667" y="46.6667" type="line"/>
      <point x="122.333" y="41.6955"/>
      <point x="124.333" y="47.0935"/>
      <point x="135.667" y="50.6667" type="curve"/>
      <point x="135.667" y="50.6667"/>
      <point x="170.734" y="50.5965"/>
      <point x="194.667" y="49" type="curve"/>
      <point x="199" y="42.9065"/>
      <point x="202" y="24.097"/>
      <point x="203" y="22" type="curve"/>
      <point x="35.6667" y="201.333" type="line"/>
      <point x="36.3333" y="210.61"/>
      <point x="35" y="231.955"/>
      <point x="29" y="241.333" type="curve" name="n24"/>
      <point x="44.3266" y="243.751"/>
      <point x="50.3333" y="246.333"/>
      <point x="50.3333" y="246.333" type="curve"/>
      <point x="59.6667" y="250.269"/>
      <point x="63.6667" y="260.167"/>
      <point x="65" y="271" type="curve" name="n30"/>
      <point x="221" y="624.333" type="line"/>
      <point x="222.333" y="629.381"/>
      <point x="217.667" y="623.073"/>
      <point x="208.333" y="620.333" type="curve"/>
      <point x="208.333" y="620.333"/>
      <point x="174.925" y="620.417"/>
      <point x="151.333" y="622" type="curve"/>
      <point x="147.333" y="627.561"/>
      <point x="144" y="646.562"/>
      <point x="143.333" y="648.667" type="curve"/>
      <point x="329.333" y="572.667" type="line"/>
      <point x="433.333" y="539.333" type="line" name="n42"/>
      <point x="416.338" y="556.359"/>
      <point x="406.667" y="612"/>
      <point x="406.667" y="612" type="curve"/>
      <point x="398.706" y="614.993"/>
      <point x="393.333" y="615.667"/>
      <point x="386" y="608" type="curve"/>
      <point x="338.333" y="463.667" type="line"/>
      <point x="518.333" y="477.667" type="line"/>
      <point x="633.667" y="624.333" type="line"/>
      <point x="635" y="629.596"/>
      <point x="630.333" y="623.941"/>
      <point x="619.667" y="621" type="curve"/>
      <point x="619.667" y="621"/>
      <point x="584.838" y="620.388"/>
      <point x="563" y="622" type="curve"/>
      <point x="559" y="627.561"/>
      <point x="555.667" y="646.562"/>
      <point x="555" y="648.667" type="curve"/>
      <point x="727" y="497.333" type="line"/>
      <point x="720" y="453.394"/>
      <point x="738" y="433.591"/>
      <point x="746.667" y="430.667" type="curve" name="n64"/>
      <point x="756.942" y="430.121"/>
      <point x="750.789" y="435.535"/>
      <point x="746.667" y="459.667" type="curve"/>
      <point x="743.862" y="484.44"/>
      <point x="754.023" y="547.189"/>
      <point x="756.667" y="560.667" type="curve"/>
      <point x="729.667" y="268.667" type="line"/>
      <point x="716.707" y="201.298"/>
      <point x="725.01" y="112.818"/>
      <point x="754" y="95" type="curve"/>
      <point x="773.667" y="58.6667"/>
      <point x="774" y="50.6667"/>
      <point x="747.667" y="104" type="curve" name="n77"/>
      <point x="725.493" y="145.7"/>
      <point x="732.564" y="283.802"/>
    </contour>
  </outline>
</glyph>
<glyph name="uni01F7" format="2">
  <advance width="597"/>
  <unicode hex="01F7"/>
  <outline>
    <contour>
      <point x="502.667" y="623.667" type="curve" name="n00"/>
      <point x="551.333" y="558.333"/>
      <point x="519.333" y="453"/>
      <point x="465" y="372" type="curve"/>
      <point x="463.305" y="219.477"/>
      <point x="259.525" y="27.6692"/>
      <point x="145.333" y="-44" type="curve"/>
      <point x="141.307" y="-63.8166"/>
      <point x="130.606" y="-125.528"/>
      <point x="130.667" y="-155" type="curve"/>
      <point x="132.705" y="-160.571"/>
      <point x="144.284" y="-165.469"/>
      <point x="162.333" y="-166.667" type="curve"/>
      <point x="205" y="-184.667" type="line" name="n13"/>
      <point x="118.333" y="-218" type="line"/>
      <point x="-80.3333" y="-204" type="line"/>
      <point x="-61" y="-168.333" type="line"/>
      <point x="-49.806" y="-167.39"/>
      <point x="-22.0564" y="-163.293"/>
      <point x="-13.6667" y="-158.667" type="curve"/>
      <point x="6.64146" y="-98.288"/>
      <point x="35.6226" y="38.0189"/>
      <point x="48.6667" y="102.667" type="curve"/>
      <point x="115.667" y="605" type="line"/>
      <point x="57" y="619.667" type="line"/>
      <point x="109" y="654.333" type="line" name="n25"/>
      <point x="237" y="675" type="line"/>
      <point x="277.333" y="655.333" type="line"/>
      <point x="288.861" y="659.994"/>
      <point x="304.273" y="644.623"/>
      <point x="317" y="639.667" type="curve" name="n30"/>
      <point x="381.667" y="661"/>
      <point x="443.333" y="656.333"/>
    </contour>
    <contour>
      <point x="423.667" y="557" type="curve" name="n33"/>
      <point x="391" y="584.333"/>
      <point x="345" y="581.667"/>
      <point x="297.333" y="554.333" type="curve" name="n36"/>
      <point x="279.977" y="521.465"/>
      <point x="228.536" y="325.708"/>
      <point x="201.333" y="250.667" type="curve"/>
      <point x="291.781" y="294.948"/>
      <point x="371.951" y="298.593"/>
      <point x="368" y="373.667" type="curve"/>
      <point x="411.667" y="432.667"/>
      <point x="451.667" y="508.333"/>
    </contour>
  </outline>
</glyph>
<glyph name="uni0220" format="2">
  <advance width="753"/>
  <unicode hex="0220"/>
  <outline>
    <contour>
      <point x="567.333" y="471.667" type="curve"/>
      <point x="462" y="-73.3333" type="line"/>
      <point x="462" y="-85.7641"/>
      <point x="466.294" y="-92.255"/>
      <point x="480.667" y="-93.6667" type="curve" smooth="yes"/>
      <point x="532" y="-98.6667" type="line"/>
      <point x="532" y="-146" type="line" name="n06"/>
      <point x="250.333" y="-146" type="line"/>
      <point x="250.333" y="-98.6667" type="line"/>
      <point x="307.667" y="-94.3333" type="line" smooth="yes"/>
      <point x="324.705" y="-93.1084"/>
      <point x="330.565" y="-86.0519"/>
      <point x="333" y="-73.3333" type="curve" smooth="yes"/>
      <point x="445.664" y="515.206" type="line" smooth="yes"/>
      <point x="446.991" y="522.142"/>
      <point x="447.964" y="531.083"/>
      <point x="447.963" y="536.383" type="curve" smooth="yes"/>
      <point x="447.961" y="584.369"/>
      <point x="404.746" y="610.213"/>
      <point x="362.056" y="610.667" type="curve" smooth="yes"/>
      <point x="318.284" y="610.909"/>
      <point x="259.138" y="582.644"/>
      <point x="228.044" y="540.904" type="curve"/>
      <point x="172.333" y="274.333" type="line" name="n23"/>
      <point x="186.528" y="264.91"/>
      <point x="222.242" y="261.365"/>
      <point x="247.667" y="260.333" type="curve"/>
      <point x="272.667" y="217" type="line"/>
      <point x="294.333" y="239.993"/>
      <point x="321.667" y="234.448"/>
      <point x="353" y="229" type="curve" name="n30"/>
      <point x="352.114" y="229"/>
      <point x="255.7" y="205.667"/>
      <point x="219.667" y="170.667" type="curve" name="n33"/>
      <point x="219.667" y="172.365"/>
      <point x="219.333" y="190.733"/>
      <point x="218.667" y="192.667" type="curve"/>
      <point x="216.667" y="-19" type="line"/>
      <point x="229.373" y="-22.897"/>
      <point x="233.556" y="-18.8542"/>
      <point x="240" y="-10.6667" type="curve"/>
      <point x="326.333" y="331" type="line"/>
      <point x="326.86" y="330.993"/>
      <point x="327.099" y="324.03" name="hr02"/>
      <point x="327.102" y="324.062" type="curve" name="n44"/>
      <point x="311.452" y="330.541"/>
      <point x="259.757" y="333.689"/>
      <point x="228.333" y="334.333" type="curve"/>
      <point x="190.333" y="351" type="line"/>
      <point x="209.667" y="386" type="line"/>
      <point x="244.396" y="386.333"/>
      <point x="343.973" y="388.333"/>
      <point x="373" y="392.333" type="curve"/>
      <point x="404" y="561.333" type="line"/>
      <point x="441.829" y="597.309"/>
      <point x="488.066" y="622.54"/>
      <point x="541.561" y="625.015" type="curve" name="n56"/>
      <point x="622.066" y="647.516"/>
      <point x="663.156" y="611.333"/>
      <point x="640.333" y="543.991" type="curve" name="n59"/>
      <point x="614.667" y="537.333"/>
      <point x="577.074" y="493.653"/>
    </contour>
  </outline>
</glyph>
<glyph name="uni0221" format="2">
  <advance width="602"/>
  <unicode hex="0221"/>
  <outline>
    <contour>
      <point x="617.667" y="131" type="curve" smooth="yes" name="n00"/>
      <point x="617.667" y="42.3333"/>
      <point x="532.333" y="-12"/>
      <point x="435.333" y="-12" type="curve" smooth="yes" name="n03"/>
      <point x="371.333" y="-12"/>
      <point x="331.667" y="4.33333"/>
      <point x="323" y="46" type="curve" name="n06"/>
      <point x="281.667" y="4"/>
      <point x="240.667" y="-57.3333"/>
      <point x="206.333" y="-118.333" type="curve"/>
      <point x="146.333" y="-96.3333" type="line"/>
      <point x="161.333" y="-67"/>
      <point x="178.333" y="-38"/>
      <point x="198" y="-11" type="curve"/>
      <point x="186.333" y="-12"/>
      <point x="174.667" y="-11.3333"/>
      <point x="167" y="-10" type="curve" name="n16"/>
      <point x="68.3333" y="0.666667"/>
      <point x="32" y="89"/>
      <point x="32" y="168.333" type="curve" smooth="yes" name="n19"/>
      <point x="32" y="323.333"/>
      <point x="134.667" y="498"/>
      <point x="328.333" y="498" type="curve" smooth="yes" name="n22"/>
      <point x="355" y="498"/>
      <point x="377.667" y="488.667"/>
      <point x="392" y="484" type="curve"/>
      <point x="423.333" y="663.333" type="line"/>
      <point x="333" y="671.667" type="line"/>
      <point x="333" y="705.667" type="line"/>
      <point x="497.333" y="737" type="line" name="n29"/>
      <point x="556.333" y="737" type="line"/>
      <point x="503.19" y="435.398"/>
      <point x="461.682" y="199.545"/>
      <point x="460.333" y="191.667" type="curve"/>
      <point x="493.333" y="201.667"/>
      <point x="501.667" y="206.333" name="hr02"/>
      <point x="535.333" y="206.333" type="curve" smooth="yes" name="n36"/>
      <point x="583" y="206.333"/>
      <point x="617.667" y="167"/>
    </contour>
    <contour>
      <point x="486.333" y="212" type="curve"/>
      <point x="486.333" y="225"/>
      <point x="477" y="255"/>
      <point x="452.333" y="255" type="curve" smooth="yes" name="n42"/>
      <point x="411.333" y="255"/>
      <point x="360.333" y="203"/>
      <point x="351.667" y="147" type="curve" name="n45"/>
      <point x="349" y="103"/>
      <point x="361.333" y="80.3333"/>
      <point x="374.333" y="77.6667" type="curve" name="n48"/>
      <point x="386.333" y="57" name="hr04"/>
      <point x="405.667" y="61.3333"/>
      <point x="427" y="75.3333" type="curve"/>
      <point x="455.659" y="90.2492"/>
      <point x="483.538" y="168.986"/>
    </contour>
    <contour>
      <point x="431.333" y="302" type="curve" name="n54"/>
      <point x="432" y="312.667"/>
      <point x="414.333" y="348"/>
      <point x="389.333" y="348" type="curve" smooth="yes" name="n57"/>
      <point x="333" y="348"/>
      <point x="263.333" y="270"/>
      <point x="254.333" y="160" type="curve"/>
      <point x="253" y="98"/>
      <point x="265.667" y="69.3333"/>
      <point x="290.333" y="68" type="curve" name="n63"/>
      <point x="313" y="56.6667"/>
      <point x="343.667" y="76.3333"/>
      <point x="372" y="102.333" type="curve" name="n66"/>
      <point x="391.369" y="130.686"/>
      <point x="426.181" y="258.321" name="hr05"/>
    </contour>
  </outline>
</glyph>
<glyph name="j.dotless" format="2">
  <advance width="302"/>
  <unicode hex="0237"/>
  <outline>
    <contour>
      <point x="260.333" y="498" type="line" name="n00"/>
      <point x="189.333" y="82.6667" type="line" smooth="yes"/>
      <point x="171.618" y="-17.9917"/>
      <point x="88" y="-229" name="n03"/>
      <point x="-48.6667" y="-229" type="curve" smooth="yes"/>
      <point x="-94" y="-229"/>
      <point x="-129" y="-204.667"/>
      <point x="-129" y="-172.667" type="curve" smooth="yes"/>
      <point x="-129" y="-147.667"/>
      <point x="-111" y="-133.667"/>
      <point x="-92.3333" y="-121.667" type="curve"/>
      <point x="4.33333" y="-147.333" type="line"/>
      <point x="22.6667" y="-121.667"/>
      <point x="44.6667" y="-59"/>
      <point x="54" y="-8" type="curve" smooth="yes"/>
      <point x="128.333" y="423" type="line"/>
      <point x="43" y="432" type="line"/>
      <point x="43" y="465.667" type="line"/>
      <point x="204" y="498" type="line"/>
    </contour>
  </outline>
</glyph>
<glyph name="uni023A" format="2">
  <advance width="700"/>
  <unicode hex="023A"/>
  <outline>
    <contour>
      <point x="268.667" y="210" type="line"/>
      <point x="448" y="482" type="line"/>
      <point x="487" y="459.333" type="line"/>
      <point x="300.333" y="185.667" type="line"/>
    </contour>
    <contour>
      <point x="654" y="0" type="line" name="n04"/>
      <point x="391" y="0" type="line"/>
      <point x="391" y="47.3333" type="line"/>
      <point x="408.495" y="49.0466"/>
      <point x="437" y="52.3333"/>
      <point x="437" y="52.3333" type="curve"/>
      <point x="450.667" y="53.6667"/>
      <point x="457.912" y="56.985"/>
      <point x="456" y="68.6667" type="curve" smooth="yes"/>
      <point x="426.667" y="254.333" type="line" name="n13"/>
      <point x="225" y="254.333" type="line"/>
      <point x="125" y="68.6667" type="line"/>
      <point x="118.667" y="57.6667"/>
      <point x="125" y="53.6667"/>
      <point x="140" y="52.3333" type="curve"/>
      <point x="140" y="52.3333"/>
      <point x="169.653" y="49.0667"/>
      <point x="190" y="47.3333" type="curve"/>
      <point x="190" y="0" type="line"/>
      <point x="-53" y="0" type="line"/>
      <point x="-53" y="47.3333" type="line"/>
      <point x="4.33333" y="53.3333" type="line"/>
      <point x="374" y="687" type="line" name="n26"/>
      <point x="479.333" y="687" type="line"/>
      <point x="588" y="69.3333" type="line" smooth="yes"/>
      <point x="590" y="56.3333"/>
      <point x="593.333" y="53.3333"/>
      <point x="608" y="51.6667" type="curve"/>
      <point x="608" y="51.6667"/>
      <point x="635.665" y="49.0654"/>
      <point x="654" y="47.3333" type="curve"/>
    </contour>
    <contour>
      <point x="416.333" y="308" type="line" name="n35"/>
      <point x="380" y="524" type="line"/>
      <point x="256" y="308" type="line"/>
    </contour>
  </outline>
</glyph>
<glyph name="uni0242" format="2">
  <advance width="411"/>
  <unicode hex="0242"/>
  <outline>
    <contour>
      <point x="399" y="382" type="curve" smooth="yes" name="n00"/>
      <point x="399" y="282.667"/>
      <point x="331" y="236.333"/>
      <point x="245" y="208" type="curve"/>
      <point x="216.333" y="60.6667" type="line"/>
      <point x="214.333" y="51.6667"/>
      <point x="219.333" y="47.3333"/>
      <point x="227" y="47.3333" type="curve"/>
      <point x="227" y="47.3333"/>
      <point x="265.535" y="45.1999"/>
      <point x="284.333" y="44.3333" type="curve"/>
      <point x="284.333" y="0" type="line"/>
      <point x="19.6667" y="0" type="line"/>
      <point x="19.6667" y="44.3333" type="line"/>
      <point x="40.43" y="45.2048"/>
      <point x="80.3333" y="47.3333"/>
      <point x="80.3333" y="47.3333" type="curve"/>
      <point x="88" y="47.3333"/>
      <point x="95" y="51.6667"/>
      <point x="96.3333" y="60.6667" type="curve"/>
      <point x="128.333" y="222.333" type="line"/>
      <point x="220.667" y="243.333"/>
      <point x="277" y="295"/>
      <point x="277" y="390.333" type="curve" smooth="yes" name="n23"/>
      <point x="277" y="429"/>
      <point x="262" y="450"/>
      <point x="231" y="450" type="curve" smooth="yes" name="n26"/>
      <point x="219.333" y="450"/>
      <point x="200.667" y="447"/>
      <point x="192.333" y="440.667" type="curve"/>
      <point x="143.333" y="344.667" type="line"/>
      <point x="143.333" y="344.667"/>
      <point x="126.333" y="335.667"/>
      <point x="115.333" y="335.667" type="curve" smooth="yes"/>
      <point x="84" y="335.667"/>
      <point x="59.6667" y="362.667"/>
      <point x="59.6667" y="398.333" type="curve" smooth="yes"/>
      <point x="59.6667" y="447.333"/>
      <point x="129.667" y="498"/>
      <point x="226.333" y="498" type="curve" smooth="yes" name="n39"/>
      <point x="345.667" y="498"/>
      <point x="399" y="448.333"/>
    </contour>
  </outline>
</glyph>
<glyph name="uni024D" format="2">
  <advance width="403"/>
  <unicode hex="024D"/>
  <outline>
    <contour>
      <point x="440.333" y="428.333" type="curve" smooth="yes"/>
      <point x="440.333" y="382"/>
      <point x="410.667" y="364.667"/>
      <point x="347.333" y="364.667" type="curve" name="n03"/>
      <point x="321.333" y="416.667" type="line"/>
      <point x="268" y="391"/>
      <point x="214" y="330.667"/>
      <point x="195.667" y="274.333" type="curve"/>
      <point x="288.667" y="274.333" type="line" name="n08"/>
      <point x="288.667" y="217.667" type="line" name="n09"/>
      <point x="183" y="217.667" type="line"/>
      <point x="138" y="0" type="line" name="n11"/>
      <point x="18.3333" y="0" type="line"/>
      <point x="63.3333" y="217.667" type="line"/>
      <point x="1" y="217.667" type="line"/>
      <point x="1" y="274.333" type="line"/>
      <point x="75.3333" y="274.333" type="line"/>
      <point x="105.667" y="423.667" type="line"/>
      <point x="21.6667" y="432.667" type="line"/>
      <point x="21.6667" y="465.667" type="line"/>
      <point x="182.667" y="498" type="line"/>
      <point x="242" y="498" type="line"/>
      <point x="226.333" y="419.667" type="line"/>
      <point x="264" y="465.333"/>
      <point x="315" y="498"/>
      <point x="368.333" y="498" type="curve" smooth="yes" name="n25"/>
      <point x="419" y="498"/>
      <point x="440.333" y="456.667"/>
    </contour>
  </outline>
</glyph>
<glyph name="uni025A" format="2">
  <advance width="568"/>
  <unicode hex="025A"/>
  <outline>
    <contour>
      <point x="634" y="375.333" type="line"/>
      <point x="618.333" y="336.333"/>
      <point x="591" y="274.667"/>
      <point x="520.667" y="274.667" type="curve" smooth="yes" name="n03"/>
      <point x="473" y="274.667"/>
      <point x="450.333" y="307"/>
      <point x="451" y="343" type="curve" name="n06"/>
      <point x="451" y="364"/>
      <point x="460.333" y="389"/>
      <point x="463" y="399.667" type="curve"/>
      <point x="450.667" y="393"/>
      <point x="420" y="375.333"/>
      <point x="404.667" y="366.667" type="curve"/>
      <point x="409.333" y="346.333"/>
      <point x="411.667" y="326.333"/>
      <point x="411.667" y="304" type="curve" smooth="yes" name="n15"/>
      <point x="411.667" y="150.333"/>
      <point x="315" y="-12"/>
      <point x="144.333" y="-12" type="curve" smooth="yes" name="n18"/>
      <point x="53" y="-12"/>
      <point x="18" y="44.3333"/>
      <point x="18" y="94.6667" type="curve" smooth="yes" name="n21"/>
      <point x="18" y="175.333"/>
      <point x="138.333" y="286.667"/>
      <point x="280.333" y="358.667" type="curve"/>
      <point x="266" y="402.333"/>
      <point x="247.333" y="431.333"/>
      <point x="212.333" y="431.333" type="curve" smooth="yes" name="n27"/>
      <point x="164.667" y="431.333"/>
      <point x="99.6667" y="388.667"/>
      <point x="41" y="328.333" type="curve"/>
      <point x="41" y="406" type="line"/>
      <point x="90" y="458.333"/>
      <point x="154" y="498"/>
      <point x="243.333" y="498" type="curve" smooth="yes" name="n34"/>
      <point x="282" y="498"/>
      <point x="348.333" y="479.333"/>
      <point x="386" y="414.333" type="curve"/>
      <point x="424.667" y="436.333"/>
      <point x="468" y="460.667"/>
      <point x="500.333" y="479.667" type="curve"/>
      <point x="535.333" y="455" type="line"/>
      <point x="509" y="377" type="line" smooth="yes"/>
      <point x="499.667" y="349"/>
      <point x="497.667" y="319.667"/>
      <point x="525.667" y="319.667" type="curve" smooth="yes" name="n45"/>
      <point x="542" y="319.667"/>
      <point x="564.333" y="345.333"/>
      <point x="571.333" y="359.333" type="curve"/>
      <point x="573.608" y="364.633"/>
      <point x="580.815" y="375.83"/>
      <point x="593" y="405.333" type="curve"/>
    </contour>
    <contour>
      <point x="288" y="300.667" type="curve"/>
      <point x="199.667" y="248"/>
      <point x="128" y="171.667"/>
      <point x="128" y="98.6667" type="curve" smooth="yes" name="n55"/>
      <point x="128" y="75.6667"/>
      <point x="134.667" y="41.6667"/>
      <point x="165.333" y="41.6667" type="curve" smooth="yes" name="n58"/>
      <point x="263.667" y="41.6667"/>
      <point x="287.667" y="216.667"/>
    </contour>
  </outline>
</glyph>
<glyph name="uni025B" format="2">
  <advance width="445"/>
  <unicode hex="025B"/>
  <outline>
    <contour>
      <point x="444.333" y="412.708" type="curve" smooth="yes"/>
      <point x="444.333" y="378.76"/>
      <point x="416.355" y="358.963"/>
      <point x="358.667" y="351.241" type="curve"/>
      <point x="293.333" y="446.667" type="line" name="n04"/>
      <point x="242.071" y="445.337"/>
      <point x="202.667" y="398.929"/>
      <point x="202.667" y="341.009" type="curve" smooth="yes" name="n07"/>
      <point x="202.667" y="290.9"/>
      <point x="232.205" y="266.192"/>
      <point x="291.333" y="266.192" type="curve" name="n10"/>
      <point x="291.333" y="212.133" type="line" name="n11"/>
      <point x="226.667" y="212.133" type="line" smooth="yes"/>
      <point x="171.15" y="212.133"/>
      <point x="133.333" y="174.734" name="hr01"/>
      <point x="133.333" y="120.051" type="curve" smooth="yes" name="n15"/>
      <point x="133.333" y="71.7464"/>
      <point x="162.946" y="44"/>
      <point x="214.523" y="44" type="curve" smooth="yes" name="n18"/>
      <point x="280.952" y="44"/>
      <point x="349.304" y="91.9835"/>
      <point x="404.667" y="140.104" type="curve"/>
      <point x="404.667" y="59.3392" type="line"/>
      <point x="361.885" y="24.0957"/>
      <point x="260.528" y="-12"/>
      <point x="204.333" y="-12" type="curve" smooth="yes" name="n25"/>
      <point x="70.1299" y="-12"/>
      <point x="7" y="27.2645"/>
      <point x="7" y="109.903" type="curve" smooth="yes" name="n28"/>
      <point x="7" y="182.447"/>
      <point x="55.679" y="231.051"/>
      <point x="145" y="248.506" type="curve"/>
      <point x="99.8428" y="271.659"/>
      <point x="77" y="304.235" name="hr02"/>
      <point x="77" y="345.524" type="curve" smooth="yes" name="n34"/>
      <point x="77" y="429.191"/>
      <point x="173.755" y="498"/>
      <point x="291.667" y="498" type="curve" smooth="yes" name="n37"/>
      <point x="321.667" y="498" type="line" smooth="yes"/>
      <point x="390.247" y="498"/>
      <point x="444.333" y="459.956"/>
    </contour>
  </outline>
</glyph>
<glyph name="uni0260" format="2">
  <advance width="587"/>
  <unicode hex="0260"/>
  <outline>
    <contour>
      <point x="568" y="536.333" type="curve" smooth="yes"/>
      <point x="461.667" y="5.33333" type="line" smooth="yes"/>
      <point x="434" y="-129.667"/>
      <point x="329.333" y="-229"/>
      <point x="168.333" y="-229" type="curve" smooth="yes" name="n04"/>
      <point x="106.667" y="-229"/>
      <point x="-13.3333" y="-210"/>
      <point x="-13.3333" y="-133" type="curve" smooth="yes"/>
      <point x="-13.3333" y="-94"/>
      <point x="18.6667" y="-56.6667"/>
      <point x="60.6667" y="-56.6667" type="curve" smooth="yes"/>
      <point x="76" y="-56.6667"/>
      <point x="88.3333" y="-58.6667"/>
      <point x="98" y="-63.3333" type="curve"/>
      <point x="115.667" y="-151.333" type="line"/>
      <point x="127.333" y="-161.333"/>
      <point x="156.667" y="-175"/>
      <point x="174.333" y="-175" type="curve" smooth="yes" name="n17"/>
      <point x="291.667" y="-175"/>
      <point x="325.333" y="-77.6667"/>
      <point x="348" y="37.6667" type="curve"/>
      <point x="302" y="10.6667"/>
      <point x="249.667" y="-12"/>
      <point x="197.333" y="-12" type="curve" smooth="yes" name="n23"/>
      <point x="74" y="-12"/>
      <point x="32" y="74"/>
      <point x="32" y="168.333" type="curve" smooth="yes"/>
      <point x="32" y="339.333"/>
      <point x="160.333" y="498"/>
      <point x="357" y="498" type="curve" smooth="yes" name="n29"/>
      <point x="381" y="498"/>
      <point x="411" y="488.667"/>
      <point x="435.333" y="471.667" type="curve"/>
      <point x="470" y="635"/>
      <point x="567.667" y="739.333" name="n34"/>
      <point x="702.667" y="739.333" type="curve" smooth="yes"/>
      <point x="764" y="739.333"/>
      <point x="791" y="710"/>
      <point x="791" y="675.333" type="curve" smooth="yes"/>
      <point x="791" y="631.667"/>
      <point x="741.333" y="621.333"/>
      <point x="716.333" y="614" type="curve"/>
      <point x="640.667" y="676.667" type="line"/>
      <point x="614" y="657.333"/>
      <point x="583.667" y="616.333"/>
    </contour>
    <contour>
      <point x="421" y="403" type="line"/>
      <point x="405.333" y="423"/>
      <point x="380.333" y="442.667"/>
      <point x="354" y="442.667" type="curve" smooth="yes" name="n48"/>
      <point x="239.333" y="442.667"/>
      <point x="161.667" y="311"/>
      <point x="161.667" y="191.333" type="curve" smooth="yes"/>
      <point x="161.667" y="121"/>
      <point x="186" y="64.3333"/>
      <point x="262.333" y="64.3333" type="curve" smooth="yes" name="n54"/>
      <point x="297" y="64.3333"/>
      <point x="328.667" y="78.6667"/>
      <point x="359" y="95.6667" type="curve"/>
    </contour>
  </outline>
</glyph>
<glyph name="uni0267" format="2">
  <advance width="550"/>
  <unicode hex="0267"/>
  <outline>
    <contour>
      <point x="565" y="646.667" type="curve" smooth="yes"/>
      <point x="565" y="608"/>
      <point x="534" y="575.667"/>
      <point x="494.333" y="575.667" type="curve" smooth="yes"/>
      <point x="475" y="575.667"/>
      <point x="457.667" y="583.333"/>
      <point x="457.667" y="583.333" type="curve"/>
      <point x="440" y="667.333" type="line"/>
      <point x="431.333" y="675.333"/>
      <point x="404" y="678"/>
      <point x="390" y="678" type="curve" smooth="yes" name="n10"/>
      <point x="334.667" y="678"/>
      <point x="269" y="629"/>
      <point x="245.333" y="517.667" type="curve" smooth="yes"/>
      <point x="228.333" y="440.667" type="line"/>
      <point x="269" y="472.333"/>
      <point x="328.333" y="498"/>
      <point x="390" y="498" type="curve" smooth="yes" name="n17"/>
      <point x="481" y="498"/>
      <point x="515.333" y="445"/>
      <point x="498.333" y="359" type="curve" smooth="yes"/>
      <point x="422" y="-17" type="line" smooth="yes"/>
      <point x="396.333" y="-143"/>
      <point x="300.667" y="-229"/>
      <point x="162.667" y="-229" type="curve" smooth="yes" name="n24"/>
      <point x="90.3333" y="-229"/>
      <point x="65.3333" y="-189"/>
      <point x="65.3333" y="-151" type="curve" smooth="yes"/>
      <point x="65.3333" y="-107"/>
      <point x="112.333" y="-86.3333"/>
      <point x="143.667" y="-82.6667" type="curve"/>
      <point x="204.333" y="-170.333" type="line" name="n31"/>
      <point x="257" y="-164.333"/>
      <point x="281.667" y="-113"/>
      <point x="294" y="-51" type="curve"/>
      <point x="294" y="-51"/>
      <point x="377.444" y="343.56"/>
      <point x="375.667" y="348.667" type="curve"/>
      <point x="386" y="398.333"/>
      <point x="355.667" y="425.333"/>
      <point x="335" y="425.333" type="curve" smooth="yes" name="n40"/>
      <point x="304" y="425.333"/>
      <point x="251.333" y="393.333"/>
      <point x="209.333" y="350" type="curve"/>
      <point x="136.667" y="0" type="line" name="n44"/>
      <point x="17" y="0" type="line"/>
      <point x="125.667" y="520.333" type="line" smooth="yes"/>
      <point x="136.667" y="573"/>
      <point x="211.667" y="737"/>
      <point x="395" y="737" type="curve" smooth="yes" name="n49"/>
      <point x="514.667" y="737"/>
      <point x="565" y="705"/>
    </contour>
  </outline>
</glyph>
<glyph name="uni026B" format="2">
  <advance width="318"/>
  <unicode hex="026B"/>
  <outline>
    <contour>
      <point x="391.333" y="423.333" type="line"/>
      <point x="362" y="358"/>
      <point x="315.667" y="305.333" name="hr01"/>
      <point x="246.333" y="305.333" type="curve" smooth="yes" name="n03"/>
      <point x="241.669" y="305.333"/>
      <point x="235.007" y="305.333"/>
      <point x="230.333" y="306" type="curve"/>
      <point x="191" y="101" type="line" smooth="yes"/>
      <point x="186.333" y="76"/>
      <point x="197.333" y="50"/>
      <point x="223" y="50" type="curve" smooth="yes" name="n10"/>
      <point x="240.667" y="50"/>
      <point x="283.667" y="61.6667"/>
      <point x="317.667" y="76.6667" type="curve"/>
      <point x="317.667" y="28" type="line"/>
      <point x="281" y="9.33333"/>
      <point x="216" y="-12"/>
      <point x="165.333" y="-12" type="curve" smooth="yes" name="n17"/>
      <point x="101" y="-12"/>
      <point x="67" y="18"/>
      <point x="67" y="63" type="curve" smooth="yes"/>
      <point x="67" y="73.6667"/>
      <point x="68" y="85.6667"/>
      <point x="71" y="98.6667" type="curve"/>
      <point x="118.667" y="346.667" type="line"/>
      <point x="107" y="349.667"/>
      <point x="95" y="352.333" name="hr02"/>
      <point x="81.6667" y="352.333" type="curve" smooth="yes" name="n27"/>
      <point x="62" y="352.333"/>
      <point x="36.6667" y="332.333"/>
      <point x="27.6667" y="305.333" type="curve" name="hr03"/>
      <point x="-26" y="305.333" type="line"/>
      <point x="3.33333" y="370.333"/>
      <point x="50.3333" y="423.333" name="hr04"/>
      <point x="119" y="423.333" type="curve" smooth="yes" name="n34"/>
      <point x="124" y="423.333"/>
      <point x="128.333" y="423"/>
      <point x="133.333" y="422.333" type="curve"/>
      <point x="180.333" y="663.333" type="line"/>
      <point x="92" y="671.667" type="line"/>
      <point x="92" y="705.667" type="line"/>
      <point x="256.667" y="737" type="line" name="n41"/>
      <point x="313.333" y="737" type="line"/>
      <point x="245" y="382" type="line"/>
      <point x="256.667" y="378.667"/>
      <point x="270.333" y="376" name="hr05"/>
      <point x="284" y="376" type="curve" smooth="yes" name="n46"/>
      <point x="303.667" y="376"/>
      <point x="328.667" y="396"/>
      <point x="337.667" y="423.333" type="curve" name="hr06"/>
    </contour>
  </outline>
</glyph>
<glyph name="uni026E" format="2">
  <advance width="617"/>
  <unicode hex="026E"/>
  <outline>
    <contour>
      <point x="646.667" y="448.667" type="line"/>
      <point x="367.333" y="193" type="line" name="n01"/>
      <point x="476.667" y="182.667"/>
      <point x="551.333" y="119.667"/>
      <point x="551.333" y="12.3333" type="curve" smooth="yes" name="n04"/>
      <point x="551.333" y="-134"/>
      <point x="397.333" y="-229"/>
      <point x="247" y="-229" type="curve" smooth="yes" name="n07"/>
      <point x="137.667" y="-229"/>
      <point x="48.3333" y="-189.667"/>
      <point x="48.3333" y="-114.333" type="curve" smooth="yes"/>
      <point x="48.3333" y="-72.6667"/>
      <point x="86.3333" y="-39"/>
      <point x="126.333" y="-39" type="curve" smooth="yes"/>
      <point x="141" y="-39"/>
      <point x="162.333" y="-46.6667"/>
      <point x="178.333" y="-52.6667" type="curve"/>
      <point x="197.333" y="-145" type="line"/>
      <point x="215" y="-172.333"/>
      <point x="243.667" y="-171"/>
      <point x="258" y="-171" type="curve" smooth="yes" name="n20"/>
      <point x="336.667" y="-171"/>
      <point x="426" y="-81.6667"/>
      <point x="426" y="12.3333" type="curve" smooth="yes" name="n23"/>
      <point x="426" y="77.3333"/>
      <point x="367" y="137"/>
      <point x="306.667" y="145.667" type="curve" name="n26"/>
      <point x="275.667" y="104" type="line"/>
      <point x="212" y="158" type="line"/>
      <point x="478" y="393.333" type="line"/>
      <point x="460" y="392.667"/>
      <point x="408.667" y="392"/>
      <point x="383.333" y="392" type="curve" smooth="yes" name="n32"/>
      <point x="336.333" y="392"/>
      <point x="304" y="415" name="hr01"/>
      <point x="272.333" y="415" type="curve" smooth="yes" name="n35"/>
      <point x="258.333" y="415"/>
      <point x="232" y="408.667"/>
      <point x="220" y="396" type="curve"/>
      <point x="162.667" y="101" type="line" smooth="yes"/>
      <point x="158.333" y="76"/>
      <point x="169" y="50"/>
      <point x="195.667" y="50" type="curve" smooth="yes" name="n42"/>
      <point x="212.667" y="50"/>
      <point x="255.333" y="61.6667"/>
      <point x="290.333" y="76.6667" type="curve"/>
      <point x="290.333" y="28" type="line"/>
      <point x="253" y="9.33333"/>
      <point x="187.667" y="-12"/>
      <point x="137.333" y="-12" type="curve" smooth="yes" name="n49"/>
      <point x="73" y="-12"/>
      <point x="39" y="18"/>
      <point x="39" y="63" type="curve" smooth="yes"/>
      <point x="39" y="73.6667"/>
      <point x="40" y="85.6667"/>
      <point x="42.6667" y="98.6667" type="curve" smooth="yes"/>
      <point x="152" y="663.333" type="line"/>
      <point x="63.6667" y="671.667" type="line"/>
      <point x="63.6667" y="705.667" type="line"/>
      <point x="228.333" y="737" type="line" name="n59"/>
      <point x="285.333" y="737" type="line"/>
      <point x="236.667" y="482.333" type="line"/>
      <point x="256.667" y="491"/>
      <point x="279" y="496"/>
      <point x="301.333" y="496" type="curve" smooth="yes" name="n64"/>
      <point x="374.667" y="496"/>
      <point x="441.333" y="449"/>
      <point x="495.333" y="449" type="curve" smooth="yes"/>
      <point x="502.333" y="449"/>
      <point x="518" y="453"/>
      <point x="524.333" y="454.333" type="curve"/>
      <point x="565.333" y="510.667" type="line"/>
    </contour>
  </outline>
</glyph>
<glyph name="uni0271" format="2">
  <advance width="808"/>
  <unicode hex="0271"/>
  <outline>
    <contour>
      <point x="759" y="397.667" type="curve" smooth="yes"/>
      <point x="759" y="388.333"/>
      <point x="758" y="379"/>
      <point x="755.667" y="368.333" type="curve" smooth="yes"/>
      <point x="696" y="80.6667" type="line" smooth="yes"/>
      <point x="669" y="-51"/>
      <point x="604.667" y="-231" name="n06"/>
      <point x="419.667" y="-231" type="curve" smooth="yes"/>
      <point x="376" y="-231"/>
      <point x="341.333" y="-213"/>
      <point x="341.333" y="-172" type="curve" smooth="yes"/>
      <point x="341.333" y="-136.333"/>
      <point x="375" y="-119.667"/>
      <point x="412.667" y="-106.667" type="curve"/>
      <point x="492.667" y="-165.333" type="line"/>
      <point x="525" y="-138.667"/>
      <point x="544.667" y="-75.6667"/>
      <point x="559.333" y="-7" type="curve"/>
      <point x="627" y="327" type="line" smooth="yes"/>
      <point x="637.667" y="379"/>
      <point x="634" y="422.667"/>
      <point x="601.667" y="422.667" type="curve" smooth="yes" name="n21"/>
      <point x="542" y="422.667"/>
      <point x="493" y="362.333"/>
      <point x="479" y="340" type="curve"/>
      <point x="407.667" y="0" type="line" name="n25"/>
      <point x="288.667" y="0" type="line"/>
      <point x="357" y="328" type="line" smooth="yes"/>
      <point x="364.667" y="365.667"/>
      <point x="371.333" y="422.667"/>
      <point x="327" y="422.667" type="curve" smooth="yes"/>
      <point x="283.333" y="422.667"/>
      <point x="232" y="367"/>
      <point x="208" y="338" type="curve"/>
      <point x="137.333" y="0" type="line"/>
      <point x="18" y="0" type="line"/>
      <point x="105.333" y="425" type="line"/>
      <point x="21.6667" y="433.333" type="line"/>
      <point x="21.6667" y="465.667" type="line"/>
      <point x="181.667" y="498" type="line"/>
      <point x="241.333" y="498" type="line"/>
      <point x="227" y="429.333" type="line"/>
      <point x="275.333" y="467"/>
      <point x="332.333" y="498"/>
      <point x="382.667" y="498" type="curve" smooth="yes"/>
      <point x="441.667" y="498"/>
      <point x="468.667" y="456.667"/>
      <point x="480.333" y="422" type="curve"/>
      <point x="531" y="464"/>
      <point x="600.667" y="498"/>
      <point x="655.667" y="498" type="curve" smooth="yes" name="n50"/>
      <point x="716.333" y="498"/>
      <point x="759" y="459.333"/>
    </contour>
  </outline>
</glyph>
<glyph name="uni0274" format="2">
  <advance width="593"/>
  <unicode hex="0274"/>
  <outline>
    <contour>
      <point x="616.333" y="443.333" type="line"/>
      <point x="565.333" y="439" type="line"/>
      <point x="557.333" y="438.667"/>
      <point x="550.257" y="431.35"/>
      <point x="548.667" y="424.333" type="curve" smooth="yes"/>
      <point x="455" y="0" type="line" name="n05"/>
      <point x="370" y="0" type="line"/>
      <point x="187.333" y="342" type="line"/>
      <point x="125.667" y="63" type="line"/>
      <point x="124.333" y="56"/>
      <point x="130.667" y="47.6667"/>
      <point x="140.333" y="46.3333" type="curve"/>
      <point x="140.333" y="46.3333"/>
      <point x="166.018" y="44.479"/>
      <point x="189" y="42.6667" type="curve"/>
      <point x="189" y="0" type="line"/>
      <point x="-30" y="0" type="line"/>
      <point x="-30" y="42.6667" type="line"/>
      <point x="-7.84902" y="44.4416"/>
      <point x="19.6667" y="46.3333"/>
      <point x="19.6667" y="46.3333" type="curve"/>
      <point x="30.3333" y="47.3333"/>
      <point x="36.6667" y="55.3333"/>
      <point x="38.3333" y="62.6667" type="curve" smooth="yes"/>
      <point x="117.667" y="424.333" type="line"/>
      <point x="119" y="432"/>
      <point x="113.667" y="438.333"/>
      <point x="103.667" y="439.667" type="curve"/>
      <point x="103.667" y="439.667"/>
      <point x="76.3655" y="441.548"/>
      <point x="54.3333" y="443.333" type="curve"/>
      <point x="54.3333" y="486" type="line" name="n31"/>
      <point x="244" y="486" type="line"/>
      <point x="244" y="461.667" type="line"/>
      <point x="403.667" y="163" type="line"/>
      <point x="461.333" y="424.333" type="line"/>
      <point x="462.667" y="432"/>
      <point x="456.667" y="438.333"/>
      <point x="447" y="439.667" type="curve"/>
      <point x="447" y="439.667"/>
      <point x="420.224" y="441.539"/>
      <point x="398" y="443.333" type="curve"/>
      <point x="398" y="486" type="line"/>
      <point x="616.333" y="486" type="line"/>
    </contour>
  </outline>
</glyph>
<glyph name="uni0275" format="2">
  <advance width="537"/>
  <unicode hex="0275"/>
  <outline>
    <contour>
      <point x="506.333" y="302" type="curve" smooth="yes" name="n00"/>
      <point x="506.333" y="143.333"/>
      <point x="397" y="-12"/>
      <point x="224.333" y="-12" type="curve" smooth="yes" name="n03"/>
      <point x="96.3333" y="-12"/>
      <point x="31.6667" y="67"/>
      <point x="31.6667" y="179.667" type="curve" smooth="yes" name="n06"/>
      <point x="31.6667" y="338.333"/>
      <point x="136.333" y="498"/>
      <point x="312" y="498" type="curve" smooth="yes" name="n09"/>
      <point x="426" y="498"/>
      <point x="506.333" y="433.667"/>
    </contour>
    <contour>
      <point x="376.667" y="306" type="curve" smooth="yes" name="n12"/>
      <point x="376.667" y="403"/>
      <point x="334.667" y="448.333"/>
      <point x="301" y="448.333" type="curve" smooth="yes" name="n15"/>
      <point x="248" y="448.333"/>
      <point x="194" y="372.333"/>
      <point x="172" y="276.333" type="curve"/>
      <point x="375.333" y="276.333" type="line" name="n19"/>
      <point x="376.333" y="286"/>
      <point x="376.667" y="296.333"/>
    </contour>
    <contour>
      <point x="367.667" y="219.667" type="curve" name="n22"/>
      <point x="162.667" y="219.667" type="line"/>
      <point x="161.667" y="208"/>
      <point x="160.667" y="195.667"/>
      <point x="160.667" y="184" type="curve" smooth="yes" name="n26"/>
      <point x="160.667" y="82.3333"/>
      <point x="204.333" y="39.6667"/>
      <point x="236.333" y="39.6667" type="curve" smooth="yes" name="n29"/>
      <point x="297" y="39.6667"/>
      <point x="347" y="124.667"/>
    </contour>
  </outline>
</glyph>
<glyph name="uni027D" format="2">
  <advance width="403"/>
  <unicode hex="027D"/>
  <outline>
    <contour>
      <point x="440.333" y="428.333" type="curve" smooth="yes"/>
      <point x="440.333" y="382"/>
      <point x="410.667" y="364.667"/>
      <point x="347.333" y="364.667" type="curve" name="n03"/>
      <point x="321.333" y="416.667" type="line"/>
      <point x="263" y="389"/>
      <point x="204.333" y="319.333"/>
      <point x="192.667" y="260" type="curve" smooth="yes"/>
      <point x="136.667" y="-13.3333" type="line" smooth="yes"/>
      <point x="129.667" y="-48"/>
      <point x="120.333" y="-94.3333"/>
      <point x="120.333" y="-114.667" type="curve" smooth="yes" name="n11"/>
      <point x="120.333" y="-139"/>
      <point x="136.667" y="-160.333"/>
      <point x="154.333" y="-166.333" type="curve"/>
      <point x="231.667" y="-101.333" type="line"/>
      <point x="256.333" y="-107"/>
      <point x="287" y="-118.333"/>
      <point x="287" y="-154.333" type="curve" smooth="yes"/>
      <point x="287" y="-202"/>
      <point x="239" y="-229" name="n20"/>
      <point x="185" y="-229" type="curve" smooth="yes"/>
      <point x="58.3333" y="-229"/>
      <point x="10.3333" y="-166.667"/>
      <point x="10.3333" y="-77.6667" type="curve" smooth="yes" name="n24"/>
      <point x="10.3333" y="-56"/>
      <point x="14.6667" y="-18.3333"/>
      <point x="21.6667" y="13.6667" type="curve" smooth="yes"/>
      <point x="105.667" y="423.667" type="line"/>
      <point x="21.6667" y="432.667" type="line"/>
      <point x="21.6667" y="465.667" type="line"/>
      <point x="182.667" y="498" type="line"/>
      <point x="242" y="498" type="line"/>
      <point x="226.333" y="419.667" type="line"/>
      <point x="264" y="465.333"/>
      <point x="315" y="498"/>
      <point x="368.333" y="498" type="curve" smooth="yes" name="n36"/>
      <point x="419" y="498"/>
      <point x="440.333" y="456.667"/>
    </contour>
  </outline>
</glyph>
<glyph name="uni0280" format="2">
  <advance width="535"/>
  <unicode hex="0280"/>
  <outline>
    <contour>
      <point x="514.667" y="3" type="line"/>
      <point x="488.667" y="-7.33333"/>
      <point x="467" y="-12"/>
      <point x="440.667" y="-12" type="curve" smooth="yes" name="n03"/>
      <point x="353.333" y="-12"/>
      <point x="324.667" y="25"/>
      <point x="306.667" y="93" type="curve" smooth="yes"/>
      <point x="293.333" y="141.333"/>
      <point x="288.333" y="207"/>
      <point x="220.667" y="207" type="curve" smooth="yes" name="n09"/>
      <point x="215.336" y="207"/>
      <point x="199.277" y="207"/>
      <point x="195" y="206.667" type="curve"/>
      <point x="163.333" y="63" type="line"/>
      <point x="162" y="56"/>
      <point x="165" y="47.6667"/>
      <point x="180.667" y="46.3333" type="curve"/>
      <point x="180.667" y="46.3333"/>
      <point x="203.161" y="43.8627"/>
      <point x="227.333" y="42" type="curve"/>
      <point x="227.333" y="0" type="line" name="n20"/>
      <point x="-20" y="0" type="line"/>
      <point x="-20" y="42" type="line" name="hr02"/>
      <point x="3.71735" y="43.819"/>
      <point x="29.3333" y="46.3333"/>
      <point x="29.3333" y="46.3333" type="curve"/>
      <point x="42.3333" y="47.3333"/>
      <point x="49.3333" y="53.3333"/>
      <point x="51" y="62.6667" type="curve"/>
      <point x="128.333" y="423" type="line"/>
      <point x="130.667" y="430"/>
      <point x="128.333" y="438.333"/>
      <point x="114" y="439.667" type="curve"/>
      <point x="114" y="439.667"/>
      <point x="89.0899" y="441.511"/>
      <point x="66" y="443.333" type="curve"/>
      <point x="66" y="486" type="line" name="n36"/>
      <point x="300.333" y="486" type="line" smooth="yes"/>
      <point x="400.333" y="486"/>
      <point x="487.667" y="457.333"/>
      <point x="487.667" y="372.667" type="curve" smooth="yes" name="n40"/>
      <point x="487.667" y="297.667"/>
      <point x="421" y="251.667"/>
      <point x="337.333" y="227.333" type="curve"/>
      <point x="391.333" y="202"/>
      <point x="399" y="166"/>
      <point x="413.333" y="116" type="curve" smooth="yes"/>
      <point x="430" y="56.3333"/>
      <point x="446.333" y="42.6667"/>
      <point x="514.667" y="42.6667" type="curve" name="n49"/>
    </contour>
    <contour>
      <point x="366.667" y="362.333" type="curve" smooth="yes" name="n50"/>
      <point x="366.667" y="426.333"/>
      <point x="297" y="440.333"/>
      <point x="260" y="437.333" type="curve"/>
      <point x="245" y="437" type="line"/>
      <point x="205.667" y="256.667" type="line"/>
      <point x="211.247" y="256.667"/>
      <point x="218.667" y="257.333"/>
      <point x="218.667" y="257.333" type="curve" name="n58"/>
      <point x="287.667" y="260"/>
      <point x="366.667" y="283.333"/>
    </contour>
  </outline>
</glyph>
<glyph name="uni0284" format="2">
  <advance width="334"/>
  <unicode hex="0284"/>
  <outline>
    <contour>
      <point x="463.333" y="666.333" type="curve" smooth="yes"/>
      <point x="463.333" y="635.333"/>
      <point x="448" y="608.333"/>
      <point x="396.333" y="602" type="curve"/>
      <point x="327.333" y="668.333" type="line"/>
      <point x="287.333" y="663.333"/>
      <point x="279.333" y="598.667"/>
      <point x="261.333" y="498" type="curve"/>
      <point x="229.667" y="309" type="line"/>
      <point x="333" y="309" type="line" name="n09"/>
      <point x="333" y="246.667" type="line" name="n10"/>
      <point x="218.667" y="246.667" type="line"/>
      <point x="190.667" y="81.3333" type="line" smooth="yes"/>
      <point x="168.333" y="-48.6667"/>
      <point x="85.6667" y="-229" name="n14"/>
      <point x="-50.3333" y="-229" type="curve" smooth="yes"/>
      <point x="-95.6667" y="-229"/>
      <point x="-129" y="-204.667"/>
      <point x="-129" y="-172.667" type="curve" smooth="yes"/>
      <point x="-129" y="-147.667"/>
      <point x="-111" y="-133.667"/>
      <point x="-92.3333" y="-121.667" type="curve"/>
      <point x="4.33333" y="-147.333" type="line"/>
      <point x="22.6667" y="-121.667"/>
      <point x="44.6667" y="-60.3333"/>
      <point x="53.3333" y="-10" type="curve" smooth="yes"/>
      <point x="68.3619" y="76.1648"/>
      <point x="88.3333" y="189.778"/>
      <point x="98.3333" y="246.667" type="curve"/>
      <point x="-5.66667" y="246.667" type="line"/>
      <point x="-5.66667" y="309" type="line"/>
      <point x="109.333" y="309" type="line"/>
      <point x="128.506" y="416.957"/>
      <point x="142" y="489.333"/>
      <point x="142" y="489.333" type="curve"/>
      <point x="169.667" y="640.667"/>
      <point x="219.333" y="737" name="n36"/>
      <point x="363" y="737" type="curve" smooth="yes"/>
      <point x="413.667" y="737"/>
      <point x="463.333" y="708.667"/>
    </contour>
  </outline>
</glyph>
<glyph name="uni0285" format="2">
  <advance width="320"/>
  <unicode hex="0285"/>
  <outline>
    <contour>
      <point x="338.667" y="-151.333" type="curve" smooth="yes" name="n00"/>
      <point x="338.667" y="-201.667"/>
      <point x="283" y="-229" name="n02"/>
      <point x="226.333" y="-229" type="curve" smooth="yes"/>
      <point x="103" y="-229"/>
      <point x="71" y="-148"/>
      <point x="71" y="-56" type="curve" smooth="yes" name="n06"/>
      <point x="71" y="-21.6667"/>
      <point x="76" y="13.3333"/>
      <point x="83" y="47" type="curve" smooth="yes"/>
      <point x="133" y="295.333" type="line" smooth="yes"/>
      <point x="139" y="325.333"/>
      <point x="145" y="355.667" name="hr01"/>
      <point x="145" y="385.667" type="curve" smooth="yes" name="n13"/>
      <point x="145" y="401.333"/>
      <point x="139" y="425.667"/>
      <point x="116" y="429.333" type="curve"/>
      <point x="31.3333" y="361" type="line"/>
      <point x="-5.33333" y="373.667"/>
      <point x="-18" y="397.667" name="hr02"/>
      <point x="-18" y="419.333" type="curve" smooth="yes" name="n20"/>
      <point x="-18" y="469.667"/>
      <point x="37.3333" y="498" name="n22"/>
      <point x="94.3333" y="498" type="curve" smooth="yes"/>
      <point x="217.667" y="498"/>
      <point x="249.333" y="416.333"/>
      <point x="249.333" y="324" type="curve" smooth="yes" name="n26"/>
      <point x="249.333" y="289.667"/>
      <point x="244.667" y="255"/>
      <point x="237.667" y="221" type="curve" smooth="yes"/>
      <point x="187.667" y="-27.3333" type="line" smooth="yes"/>
      <point x="181.667" y="-57.3333"/>
      <point x="175.667" y="-87" name="hr03"/>
      <point x="175.667" y="-117.667" type="curve" smooth="yes" name="n33"/>
      <point x="175.667" y="-133"/>
      <point x="181.333" y="-157.667"/>
      <point x="204.333" y="-161.333" type="curve"/>
      <point x="289.333" y="-92.6667" type="line"/>
      <point x="326" y="-105.667"/>
      <point x="338.667" y="-129.667" name="hr04"/>
    </contour>
  </outline>
</glyph>
<glyph name="uni0289" format="2">
  <advance width="558"/>
  <unicode hex="0289"/>
  <outline>
    <contour>
      <point x="570.333" y="232.667" type="line" name="n00"/>
      <point x="500" y="214.667" type="line" name="n01"/>
      <point x="455.333" y="139.333" type="line"/>
      <point x="447.695" y="103.509"/>
      <point x="451.612" y="70.5229"/>
      <point x="464.333" y="64.3333" type="curve"/>
      <point x="468" y="50.6667"/>
      <point x="487" y="48.3333"/>
      <point x="535" y="69.6667" type="curve"/>
      <point x="539.333" y="66.0137"/>
      <point x="546.667" y="42.0618"/>
      <point x="556" y="38.3333" type="curve"/>
      <point x="538" y="27.238"/>
      <point x="488.667" y="2.0214"/>
      <point x="450.667" y="0" type="curve"/>
      <point x="396.333" y="-4.66667"/>
      <point x="365" y="10"/>
      <point x="348.667" y="19.3333" type="curve"/>
      <point x="294.333" y="-0.666667"/>
      <point x="264.333" y="7.66667"/>
      <point x="221" y="13" type="curve"/>
      <point x="137.667" y="-3.66667"/>
      <point x="94.6667" y="38"/>
      <point x="80.3333" y="74" type="curve" name="n23"/>
      <point x="52.5694" y="89.5333"/>
      <point x="54.1505" y="153.456"/>
      <point x="59.6667" y="179.667" type="curve"/>
      <point x="15" y="214.667" type="line"/>
      <point x="-12" y="256.667" type="line"/>
      <point x="53" y="274.667" type="line"/>
      <point x="101" y="373.333" type="line"/>
      <point x="55.3333" y="430.333" type="line"/>
      <point x="27.3333" y="456" type="line"/>
      <point x="137.333" y="487.667" type="line"/>
      <point x="233.667" y="498" type="line" name="n34"/>
      <point x="215.333" y="348.667" type="line"/>
      <point x="301" y="274.667" type="line"/>
      <point x="394" y="416" type="line"/>
      <point x="497.333" y="486" type="line"/>
      <point x="499" y="344.667" type="line"/>
      <point x="541.667" y="274.667" type="line"/>
    </contour>
    <contour>
      <point x="351.667" y="214.667" type="line"/>
      <point x="187.333" y="214.667" type="line"/>
      <point x="166" y="115.667" type="line" smooth="yes"/>
      <point x="159.667" y="83.6667"/>
      <point x="180" y="55.3333"/>
      <point x="205.333" y="55.3333" type="curve" smooth="yes" name="n46"/>
      <point x="251.333" y="55.3333"/>
      <point x="294.667" y="83"/>
      <point x="331.333" y="116.667" type="curve"/>
    </contour>
  </outline>
</glyph>
<glyph name="uni028A" format="2">
  <advance width="582"/>
  <unicode hex="028A"/>
  <outline>
    <contour>
      <point x="576.333" y="486" type="line" name="n00"/>
      <point x="568.667" y="440" type="line"/>
      <point x="552.123" y="438.996"/>
      <point x="495.333" y="435.667"/>
      <point x="495.333" y="435.667" type="curve"/>
      <point x="518.333" y="400.667"/>
      <point x="533.667" y="350"/>
      <point x="533.667" y="287.333" type="curve" smooth="yes" name="n07"/>
      <point x="533.667" y="132"/>
      <point x="411" y="-12"/>
      <point x="237.333" y="-12" type="curve" smooth="yes" name="n10"/>
      <point x="103" y="-12"/>
      <point x="32" y="60.6667"/>
      <point x="32" y="179.667" type="curve" smooth="yes" name="n13"/>
      <point x="32" y="276.333"/>
      <point x="89" y="367.667"/>
      <point x="149.667" y="435.667" type="curve"/>
      <point x="149.667" y="435.667"/>
      <point x="96.5328" y="440.446"/>
      <point x="81.3333" y="441.667" type="curve"/>
      <point x="89" y="486" type="line"/>
      <point x="280" y="486" type="line"/>
      <point x="226.667" y="420.667"/>
      <point x="161.667" y="293.667"/>
      <point x="161.667" y="176.667" type="curve" smooth="yes" name="n24"/>
      <point x="161.667" y="114.333"/>
      <point x="171.333" y="45"/>
      <point x="246.333" y="45" type="curve" smooth="yes" name="n27"/>
      <point x="351.333" y="45"/>
      <point x="416" y="215.667"/>
      <point x="416" y="359" type="curve" smooth="yes" name="n30"/>
      <point x="416" y="421.333"/>
      <point x="386" y="486"/>
      <point x="386" y="486" type="curve"/>
    </contour>
  </outline>
</glyph>
<glyph name="uni028D" format="2">
  <advance width="733"/>
  <unicode hex="028D"/>
  <outline>
    <contour>
      <point x="728" y="23" type="line"/>
      <point x="598.667" y="-12" type="line"/>
      <point x="535" y="-3" type="line"/>
      <point x="515.667" y="323" type="line"/>
      <point x="467.667" y="231.667"/>
      <point x="413.333" y="116"/>
      <point x="368" y="12.3333" type="curve"/>
      <point x="267.667" y="1.33333" type="line"/>
      <point x="243" y="363" type="line"/>
      <point x="192" y="291.667"/>
      <point x="134" y="204"/>
      <point x="99.3333" y="126" type="curve"/>
      <point x="131.333" y="16.3333" type="line"/>
      <point x="125.333" y="9.33333"/>
      <point x="105.667" y="-12"/>
      <point x="67" y="-12" type="curve" smooth="yes"/>
      <point x="15" y="-12"/>
      <point x="-7" y="33"/>
      <point x="-7" y="49.6667" type="curve" smooth="yes"/>
      <point x="-7" y="161"/>
      <point x="240.667" y="469.333"/>
      <point x="264.667" y="498" type="curve" name="n21"/>
      <point x="350.667" y="498" type="line"/>
      <point x="371.667" y="193" type="line"/>
      <point x="425.667" y="304.333"/>
      <point x="491.333" y="420"/>
      <point x="542.667" y="498" type="curve"/>
      <point x="636" y="498" type="line"/>
      <point x="624.667" y="472.333" type="line"/>
      <point x="652.667" y="61.3333" type="line"/>
      <point x="728" y="54" type="line"/>
    </contour>
  </outline>
</glyph>
<glyph name="uni0295" format="2">
  <advance width="465"/>
  <unicode hex="0295"/>
  <outline>
    <contour>
      <point x="496" y="598.333" type="curve" smooth="yes"/>
      <point x="496" y="557"/>
      <point x="469" y="526.333"/>
      <point x="426.667" y="526.333" type="curve" smooth="yes"/>
      <point x="416.067" y="526.333"/>
      <point x="400.711" y="528.333"/>
      <point x="390" y="532.333" type="curve" name="n06"/>
      <point x="371.333" y="621.667" type="line" name="n07"/>
      <point x="286" y="660.333"/>
      <point x="204.667" y="562.667"/>
      <point x="204.667" y="469.333" type="curve" smooth="yes" name="n10"/>
      <point x="204.667" y="387.667"/>
      <point x="272.667" y="332"/>
      <point x="339.333" y="309.667" type="curve"/>
      <point x="292.667" y="77" type="line" smooth="yes"/>
      <point x="290" y="64.6667"/>
      <point x="299.333" y="54.6667"/>
      <point x="315.667" y="53.6667" type="curve" smooth="yes"/>
      <point x="372.333" y="50" type="line"/>
      <point x="372.333" y="0" type="line" name="n19"/>
      <point x="85.6667" y="0" type="line"/>
      <point x="85.6667" y="50" type="line"/>
      <point x="142.667" y="53.6667" type="line" smooth="yes"/>
      <point x="156.667" y="54.6667"/>
      <point x="170" y="65.3333"/>
      <point x="172.667" y="77" type="curve"/>
      <point x="214.333" y="287.667" type="line"/>
      <point x="140" y="310.333"/>
      <point x="77.3333" y="363.333"/>
      <point x="77.3333" y="462.333" type="curve" smooth="yes" name="n29"/>
      <point x="77.3333" y="610.667"/>
      <point x="212.667" y="687"/>
      <point x="346.333" y="687" type="curve" smooth="yes" name="n32"/>
      <point x="418" y="687"/>
      <point x="496" y="663.333"/>
    </contour>
  </outline>
</glyph>
<glyph name="uni0297" format="2">
  <advance width="462"/>
  <unicode hex="0297"/>
  <outline>
    <contour>
      <point x="463.667" y="424.667" type="curve" smooth="yes"/>
      <point x="463.667" y="388"/>
      <point x="440.333" y="357"/>
      <point x="378.333" y="354.333" type="curve"/>
      <point x="323.333" y="437.333" type="line"/>
      <point x="296" y="428.333"/>
      <point x="263.667" y="408"/>
      <point x="240.667" y="378.333" type="curve" smooth="yes"/>
      <point x="215.667" y="347"/>
      <point x="201.667" y="302"/>
      <point x="195.667" y="274.667" type="curve" smooth="yes"/>
      <point x="151.667" y="57.6667" type="line" smooth="yes"/>
      <point x="145.667" y="31.3333"/>
      <point x="142.667" y="2"/>
      <point x="142.667" y="-30.6667" type="curve" smooth="yes" name="n14"/>
      <point x="142.667" y="-93.6667"/>
      <point x="154" y="-159.667"/>
      <point x="218.333" y="-159.667" type="curve" smooth="yes" name="n17"/>
      <point x="268.333" y="-159.667"/>
      <point x="320" y="-126.333"/>
      <point x="397.333" y="-39.3333" type="curve"/>
      <point x="398" y="-120" type="line"/>
      <point x="355" y="-181.333"/>
      <point x="279.667" y="-231"/>
      <point x="187.333" y="-231" type="curve" smooth="yes" name="n24"/>
      <point x="75.6667" y="-231"/>
      <point x="20" y="-158"/>
      <point x="20" y="-41.6667" type="curve" smooth="yes" name="n27"/>
      <point x="20" y="-19"/>
      <point x="22" y="3.33333"/>
      <point x="26" y="24.3333" type="curve" smooth="yes"/>
      <point x="71" y="242.333" type="line" smooth="yes"/>
      <point x="101" y="384.667"/>
      <point x="210.667" y="498" name="n33"/>
      <point x="354" y="498" type="curve" smooth="yes"/>
      <point x="430" y="498"/>
      <point x="463.667" y="456"/>
    </contour>
  </outline>
</glyph>
<glyph name="uni029B" format="2">
  <advance width="588"/>
  <unicode hex="029B"/>
  <outline>
    <contour>
      <point x="743" y="610" type="curve" smooth="yes"/>
      <point x="743" y="567"/>
      <point x="709.667" y="557"/>
      <point x="685.333" y="549.667" type="curve"/>
      <point x="609.333" y="617" type="line"/>
      <point x="588.667" y="607.333"/>
      <point x="575.667" y="563.333"/>
      <point x="555.667" y="470" type="curve" smooth="yes"/>
      <point x="527.333" y="339" type="line"/>
      <point x="455.333" y="339" type="line"/>
      <point x="460.333" y="415" type="line"/>
      <point x="460.333" y="420.333"/>
      <point x="455" y="429.333"/>
      <point x="445" y="432.667" type="curve"/>
      <point x="431" y="438"/>
      <point x="405.667" y="445.333"/>
      <point x="381.667" y="445.333" type="curve" smooth="yes"/>
      <point x="279.333" y="445.333"/>
      <point x="153" y="344.333"/>
      <point x="153" y="183.667" type="curve" smooth="yes" name="n19"/>
      <point x="153" y="72.6667"/>
      <point x="248" y="39.6667"/>
      <point x="290.333" y="39.6667" type="curve" smooth="yes" name="n22"/>
      <point x="311.333" y="39.6667"/>
      <point x="336.667" y="45.6667"/>
      <point x="354.667" y="49.3333" type="curve"/>
      <point x="383.333" y="181.667" type="line"/>
      <point x="384.333" y="187"/>
      <point x="383" y="193.667"/>
      <point x="373.667" y="194.667" type="curve"/>
      <point x="373.667" y="194.667"/>
      <point x="347.064" y="196.32"/>
      <point x="326" y="198" type="curve"/>
      <point x="326" y="240.667" type="line"/>
      <point x="561.333" y="240.667" type="line"/>
      <point x="561.333" y="198" type="line"/>
      <point x="510.667" y="194" type="line" smooth="yes"/>
      <point x="505" y="193.667"/>
      <point x="499.333" y="188.667"/>
      <point x="497" y="180" type="curve"/>
      <point x="461" y="18.3333" type="line"/>
      <point x="400.333" y="3.66667"/>
      <point x="336.667" y="-12"/>
      <point x="274.333" y="-12" type="curve" smooth="yes" name="n43"/>
      <point x="75.6667" y="-12"/>
      <point x="32.6667" y="116.333"/>
      <point x="32.6667" y="193.667" type="curve" smooth="yes" name="n46"/>
      <point x="32.6667" y="375.333"/>
      <point x="204.667" y="498" name="n48"/>
      <point x="391" y="498" type="curve" smooth="yes"/>
      <point x="420" y="498"/>
      <point x="448.333" y="494.667"/>
      <point x="473.333" y="490.667" type="curve"/>
      <point x="505" y="607.667"/>
      <point x="543" y="674.333" name="n54"/>
      <point x="662.333" y="674.333" type="curve" smooth="yes"/>
      <point x="716" y="674.333"/>
      <point x="743" y="644"/>
    </contour>
  </outline>
</glyph>
<glyph name="uni029F" format="2">
  <advance width="439"/>
  <unicode hex="029F"/>
  <outline>
    <contour>
      <point x="412.667" y="148" type="line"/>
      <point x="379.667" y="0" type="line" name="n01"/>
      <point x="-21" y="0" type="line"/>
      <point x="-21" y="42.6667" type="line"/>
      <point x="0.844852" y="44.4338"/>
      <point x="29.6667" y="46.3333"/>
      <point x="29.6667" y="46.3333" type="curve"/>
      <point x="42" y="47.3333"/>
      <point x="47" y="52.6667"/>
      <point x="49.3333" y="61.3333" type="curve"/>
      <point x="128" y="424.333" type="line" smooth="yes"/>
      <point x="130.333" y="434.667"/>
      <point x="127.333" y="438.667"/>
      <point x="115.667" y="439.667" type="curve"/>
      <point x="115.667" y="439.667"/>
      <point x="86.1241" y="441.533"/>
      <point x="61.6667" y="443.333" type="curve"/>
      <point x="61.6667" y="486" type="line" name="n17"/>
      <point x="312" y="486" type="line"/>
      <point x="312" y="443.333" type="line"/>
      <point x="286.538" y="441.539"/>
      <point x="257.333" y="439"/>
      <point x="257.333" y="439" type="curve"/>
      <point x="248.667" y="438.667"/>
      <point x="242.667" y="432"/>
      <point x="241.333" y="424.333" type="curve"/>
      <point x="159.667" y="49.3333" type="line"/>
      <point x="298.667" y="49.3333" type="line" smooth="yes" name="n27"/>
      <point x="310" y="49.3333"/>
      <point x="317.667" y="53.3333"/>
      <point x="320.333" y="63" type="curve"/>
      <point x="320.333" y="63"/>
      <point x="346.874" y="146.31"/>
      <point x="347.667" y="148" type="curve" name="n33"/>
    </contour>
  </outline>
</glyph>
<glyph name="uni02A1" format="2">
  <advance width="465"/>
  <unicode hex="02A1"/>
  <outline>
    <contour>
      <point x="484" y="535.667" type="curve" smooth="yes" name="n00"/>
      <point x="484" y="417"/>
      <point x="379.333" y="322.333"/>
      <point x="271" y="293.667" type="curve"/>
      <point x="262.667" y="249.333" type="line"/>
      <point x="371" y="249.333" type="line" name="n05"/>
      <point x="371" y="190.333" type="line" name="n06"/>
      <point x="250.667" y="190.333" type="line"/>
      <point x="230.333" y="74.6667" type="line" smooth="yes"/>
      <point x="228.333" y="62.3333"/>
      <point x="237.333" y="52.3333"/>
      <point x="253.667" y="51.3333" type="curve" smooth="yes"/>
      <point x="310.667" y="47.6667" type="line"/>
      <point x="310.667" y="0" type="line" name="hr02"/>
      <point x="22.3333" y="0" type="line" name="n14"/>
      <point x="22.3333" y="47.6667" type="line"/>
      <point x="80.6667" y="51.3333" type="line" smooth="yes"/>
      <point x="94.3333" y="52.3333"/>
      <point x="108.333" y="63"/>
      <point x="110.667" y="74.6667" type="curve" smooth="yes"/>
      <point x="131" y="190.333" type="line" name="hr03"/>
      <point x="23.3333" y="190.333" type="line"/>
      <point x="23.3333" y="249.333" type="line" name="n22"/>
      <point x="142.333" y="249.333" type="line"/>
      <point x="154" y="306.667" type="line"/>
      <point x="253" y="336"/>
      <point x="359.333" y="423"/>
      <point x="359.333" y="534" type="curve" smooth="yes" name="n27"/>
      <point x="359.333" y="586"/>
      <point x="336.668" y="632.234"/>
      <point x="287" y="632" type="curve" smooth="yes" name="n30"/>
      <point x="268.334" y="631.9"/>
      <point x="252.667" y="629"/>
      <point x="234.333" y="618.667" type="curve"/>
      <point x="188.333" y="533" type="line"/>
      <point x="179" y="529"/>
      <point x="159" y="522"/>
      <point x="139.333" y="522" type="curve" smooth="yes"/>
      <point x="112" y="522"/>
      <point x="93.3333" y="536"/>
      <point x="93.3333" y="562.333" type="curve" smooth="yes"/>
      <point x="93.3333" y="654.667"/>
      <point x="224.667" y="687"/>
      <point x="296.667" y="687" type="curve" smooth="yes" name="n43"/>
      <point x="395.333" y="687"/>
      <point x="484" y="638"/>
    </contour>
  </outline>
</glyph>
<glyph name="uni02A7" format="2">
  <advance width="559"/>
  <unicode hex="02A7"/>
  <outline>
    <contour>
      <point x="677.667" y="679.667" type="curve" smooth="yes"/>
      <point x="677.667" y="652.667"/>
      <point x="660.667" y="621.333"/>
      <point x="617.333" y="607.333" type="curve"/>
      <point x="549" y="670.333" type="line"/>
      <point x="489.333" y="661"/>
      <point x="483" y="583.667"/>
      <point x="480.333" y="540" type="curve" smooth="yes"/>
      <point x="440" y="-23" type="line" smooth="yes"/>
      <point x="432" y="-135.667"/>
      <point x="351.333" y="-229" name="n10"/>
      <point x="200.667" y="-229" type="curve" smooth="yes"/>
      <point x="160.333" y="-229"/>
      <point x="121.333" y="-208.333"/>
      <point x="121.333" y="-172.333" type="curve" smooth="yes"/>
      <point x="121.333" y="-146"/>
      <point x="138.667" y="-113.667"/>
      <point x="182" y="-100.333" type="curve"/>
      <point x="249.667" y="-163" type="line"/>
      <point x="309.333" y="-154"/>
      <point x="315.877" y="-76.325"/>
      <point x="319.333" y="-33" type="curve" smooth="yes"/>
      <point x="351.333" y="418.333" type="line" name="n22"/>
      <point x="230" y="418.333" type="line"/>
      <point x="167" y="107.667" type="line" smooth="yes"/>
      <point x="160" y="75.3333"/>
      <point x="180.333" y="54.3333"/>
      <point x="212.333" y="54.3333" type="curve" smooth="yes" name="n27"/>
      <point x="245.667" y="54.3333"/>
      <point x="273" y="65.6667"/>
      <point x="301" y="83" type="curve"/>
      <point x="301" y="33" type="line"/>
      <point x="276.667" y="16.6667"/>
      <point x="214" y="-12"/>
      <point x="152.667" y="-12" type="curve" smooth="yes" name="n34"/>
      <point x="77.3333" y="-12"/>
      <point x="45.3333" y="25.6667"/>
      <point x="45.3333" y="76.6667" type="curve" smooth="yes"/>
      <point x="45.3333" y="89.6667"/>
      <point x="46.3333" y="103"/>
      <point x="49.3333" y="117" type="curve" smooth="yes"/>
      <point x="110.333" y="417" type="line"/>
      <point x="41.3333" y="409.667" type="line"/>
      <point x="41.3333" y="448" type="line"/>
      <point x="123" y="481.667" type="line"/>
      <point x="173.333" y="583.667" type="line"/>
      <point x="260.333" y="583.667" type="line"/>
      <point x="239.667" y="470.333" type="line"/>
      <point x="355" y="470.333" type="line" name="n48"/>
      <point x="359.333" y="530" type="line" smooth="yes"/>
      <point x="366.883" y="643.296"/>
      <point x="448.333" y="737" name="n51"/>
      <point x="598.333" y="737" type="curve" smooth="yes"/>
      <point x="638.667" y="737"/>
      <point x="677.667" y="716"/>
    </contour>
  </outline>
</glyph>
<glyph name="uni02A9" format="2">
  <advance width="865"/>
  <unicode hex="02A9"/>
  <outline>
    <contour>
      <point x="709.667" y="499" type="curve" smooth="yes"/>
      <point x="709.667" y="479.667"/>
      <point x="700.333" y="464.667"/>
      <point x="686" y="453" type="curve"/>
      <point x="612.667" y="223.333" type="line" smooth="yes"/>
      <point x="584.667" y="137"/>
      <point x="509.333" y="14.6667"/>
      <point x="409.667" y="-2.33333" type="curve" name="n07"/>
      <point x="378.409" y="-2.33333"/>
      <point x="378.706" y="15.6667"/>
      <point x="383.333" y="35.6667" type="curve"/>
      <point x="393.008" y="69.3705"/>
      <point x="466.989" y="90.6906"/>
      <point x="489" y="96.6667" type="curve"/>
      <point x="552.333" y="60" type="line"/>
      <point x="572.326" y="71.1862"/>
      <point x="578.554" y="81.6932"/>
      <point x="588.333" y="131" type="curve"/>
      <point x="610.203" y="181.524"/>
      <point x="668.665" y="364.183"/>
      <point x="698.667" y="402" type="curve" smooth="yes" name="n20"/>
      <point x="725.667" y="434.667"/>
      <point x="728" y="436.667"/>
      <point x="714" y="416.667" type="curve"/>
      <point x="692.667" y="412.667"/>
      <point x="657" y="381.667"/>
      <point x="628.667" y="348" type="curve"/>
      <point x="557.333" y="-3" type="line" name="hr02"/>
      <point x="535.748" y="-41.3333"/>
      <point x="441.888" y="-76.3333" name="n29"/>
      <point x="386" y="-76.3333" type="curve"/>
      <point x="382.606" y="-4.33659"/>
      <point x="409.271" y="164.632"/>
      <point x="416.333" y="207.333" type="curve"/>
      <point x="387.582" y="222.667"/>
      <point x="318.333" y="228.333"/>
      <point x="318.333" y="228.333" type="curve"/>
      <point x="314.931" y="189.539"/>
      <point x="313.841" y="7.21886"/>
      <point x="305" y="-42" type="curve"/>
      <point x="304.333" y="-106.333"/>
      <point x="249.333" y="-188.667"/>
      <point x="172.667" y="-155" type="curve"/>
      <point x="140.467" y="-126.706"/>
      <point x="139.558" y="-15.9134"/>
      <point x="142" y="12" type="curve" smooth="yes"/>
      <point x="144" y="40"/>
      <point x="153.333" y="71.6667"/>
      <point x="158" y="84.3333" type="curve" name="n48"/>
      <point x="152.923" y="80.7935"/>
      <point x="173.421" y="40.122"/>
      <point x="170" y="17.3333" type="curve"/>
      <point x="187.831" y="32.856"/>
      <point x="185.558" y="8.19321"/>
      <point x="191.667" y="42.6667" type="curve" name="n54"/>
      <point x="198.643" y="104"/>
      <point x="184.98" y="180"/>
      <point x="191.667" y="264.667" type="curve"/>
      <point x="168.667" y="395" type="line"/>
      <point x="102" y="426.333" type="line" name="n59"/>
      <point x="103.339" y="412.498"/>
      <point x="139.733" y="340.713"/>
      <point x="139.333" y="318" type="curve"/>
      <point x="143.667" y="346.667"/>
      <point x="149.333" y="415"/>
      <point x="224.333" y="415" type="curve" smooth="yes"/>
      <point x="256.667" y="415"/>
      <point x="278" y="401"/>
      <point x="278" y="387" type="curve" smooth="yes"/>
      <point x="278" y="375.333"/>
      <point x="271.667" y="359.333"/>
      <point x="229.333" y="356.333" type="curve"/>
      <point x="222" y="387" type="line"/>
      <point x="197" y="369.333"/>
      <point x="200" y="327.667"/>
      <point x="200" y="326.667" type="curve"/>
      <point x="213.454" y="358"/>
      <point x="255.53" y="397.667"/>
      <point x="273" y="441.333" type="curve"/>
      <point x="357.333" y="466" type="line"/>
      <point x="403" y="479" type="line"/>
      <point x="424" y="450" type="line"/>
      <point x="464" y="507.333"/>
      <point x="524" y="579" name="n83"/>
      <point x="603.667" y="579" type="curve" smooth="yes"/>
      <point x="681" y="579"/>
      <point x="709.667" y="545.333"/>
    </contour>
  </outline>
</glyph>
<glyph name="uni02B1" format="2">
  <advance width="358"/>
  <unicode hex="02B1"/>
  <outline>
    <contour>
      <point x="417.667" y="771" type="curve" smooth="yes"/>
      <point x="417.667" y="747.667"/>
      <point x="397.667" y="728"/>
      <point x="372" y="728" type="curve" smooth="yes"/>
      <point x="359.333" y="728"/>
      <point x="348.333" y="732.333"/>
      <point x="348.333" y="732.333" type="curve"/>
      <point x="336.667" y="783.333" type="line"/>
      <point x="331" y="788"/>
      <point x="313" y="790"/>
      <point x="304" y="790" type="curve" smooth="yes" name="n10"/>
      <point x="267.667" y="790"/>
      <point x="225.667" y="760.333"/>
      <point x="210.667" y="693.333" type="curve" smooth="yes"/>
      <point x="199.667" y="647" type="line"/>
      <point x="226" y="666"/>
      <point x="263.667" y="680.333"/>
      <point x="304.333" y="680.333" type="curve" smooth="yes" name="n17"/>
      <point x="362.667" y="680.333"/>
      <point x="384.667" y="650"/>
      <point x="373" y="599" type="curve" smooth="yes"/>
      <point x="338" y="438.333" type="line"/>
      <point x="334" y="417.333"/>
      <point x="350" y="411"/>
      <point x="357.333" y="411" type="curve" smooth="yes"/>
      <point x="374" y="411"/>
      <point x="388.667" y="417.667"/>
      <point x="407" y="425.667" type="curve"/>
      <point x="408" y="398.667" type="line"/>
      <point x="382.333" y="388"/>
      <point x="344" y="376" name="n30"/>
      <point x="311.667" y="376" type="curve" smooth="yes"/>
      <point x="286.333" y="376"/>
      <point x="246.667" y="384.667"/>
      <point x="254" y="416.333" type="curve" smooth="yes"/>
      <point x="292.667" y="592" type="line" smooth="yes"/>
      <point x="299.667" y="621.667"/>
      <point x="281.667" y="637.333"/>
      <point x="268.333" y="637.333" type="curve" smooth="yes" name="n38"/>
      <point x="248" y="637.333"/>
      <point x="214" y="618.667"/>
      <point x="187.333" y="593" type="curve"/>
      <point x="139.333" y="383" type="line"/>
      <point x="62" y="383" type="line"/>
      <point x="132.333" y="695" type="line" smooth="yes"/>
      <point x="139.333" y="726.667"/>
      <point x="188.333" y="825"/>
      <point x="307.333" y="825" type="curve" smooth="yes" name="n47"/>
      <point x="385.333" y="825"/>
      <point x="417.667" y="806"/>
    </contour>
  </outline>
</glyph>
<glyph name="uni02B3" format="2">
  <advance width="262"/>
  <unicode hex="02B3"/>
  <outline>
    <contour>
      <point x="353" y="639.667" type="curve" smooth="yes"/>
      <point x="353" y="611.667"/>
      <point x="334" y="601.667"/>
      <point x="293" y="601.667" type="curve" name="n03"/>
      <point x="276.667" y="632.667" type="line"/>
      <point x="238.333" y="616"/>
      <point x="200.222" y="575.025"/>
      <point x="192.333" y="539.333" type="curve" smooth="yes"/>
      <point x="157.333" y="383" type="line" name="n08"/>
      <point x="79" y="383" type="line"/>
      <point x="136.333" y="637.333" type="line"/>
      <point x="81.6667" y="642.333" type="line"/>
      <point x="81.6667" y="662.333" type="line"/>
      <point x="185.667" y="681.667" type="line"/>
      <point x="225" y="681.667" type="line"/>
      <point x="214.333" y="634.667" type="line"/>
      <point x="238.667" y="662"/>
      <point x="272" y="681.667"/>
      <point x="306.667" y="681.667" type="curve" smooth="yes" name="n18"/>
      <point x="339.333" y="681.667"/>
      <point x="353" y="657"/>
    </contour>
  </outline>
</glyph>
